<svg width="54" height="43" viewBox="0 0 54 43" fill="none" xmlns="http://www.w3.org/2000/svg">
<path d="M18.5508 0C17.6509 0 16.7713 0.266841 16.023 0.76678C15.2748 1.26672 14.6917 1.9773 14.3473 2.80867C14.0029 3.64003 13.9128 4.55485 14.0884 5.43742C14.264 6.32 14.6973 7.13069 15.3336 7.76699C15.9699 8.4033 16.7806 8.83662 17.6632 9.01218C18.5457 9.18773 19.4605 9.09763 20.2919 8.75327C21.1233 8.4089 21.8339 7.82574 22.3338 7.07753C22.8337 6.32932 23.1006 5.44967 23.1006 4.5498C23.0987 3.34369 22.6188 2.1875 21.7659 1.33465C20.9131 0.481798 19.7569 0.00185129 18.5508 0ZM18.5508 6.99969C18.0662 6.99969 17.5926 6.85601 17.1897 6.58681C16.7868 6.31761 16.4728 5.93499 16.2874 5.48733C16.1019 5.03967 16.0534 4.54708 16.148 4.07185C16.2425 3.59662 16.4758 3.16009 16.8184 2.81746C17.1611 2.47484 17.5976 2.24151 18.0728 2.14698C18.5481 2.05245 19.0407 2.10097 19.4883 2.28639C19.936 2.47182 20.3186 2.78583 20.5878 3.18871C20.857 3.59159 21.0007 4.06526 21.0007 4.5498C21.0007 5.19955 20.7426 5.82269 20.2831 6.28214C19.8237 6.74158 19.2005 6.99969 18.5508 6.99969Z" fill="white"/>
<path d="M11.6698 8.39258H11.5508C7.68698 8.39258 1.40126 17.5272 0.176313 19.3611C0.0620779 19.5333 0.00120486 19.7354 0.00132107 19.9421C-0.0238663 20.9753 0.311784 21.985 0.950537 22.7975C1.58929 23.61 2.49121 24.1745 3.50117 24.3939V37.4483C3.48376 38.0505 3.58954 38.6499 3.81202 39.2098C4.03451 39.7697 4.36901 40.2782 4.79502 40.7042C5.22103 41.1303 5.72957 41.4648 6.28945 41.6872C6.84933 41.9097 7.44875 42.0155 8.05097 41.9981C9.12192 41.9981 11.9008 41.1791 11.9008 37.4483V20.0961C12.5316 18.2223 13.4785 16.4704 14.7007 14.9163C15.1642 14.319 15.4518 13.6041 15.5309 12.8522C15.6101 12.1003 15.4777 11.3412 15.1487 10.6605C14.8374 9.99609 14.3468 9.43179 13.7322 9.03111C13.1176 8.63043 12.4033 8.40929 11.6698 8.39258ZM13.0697 13.6283C11.6345 15.4285 10.5452 17.4791 9.85689 19.6761C9.84569 19.7644 9.84569 19.8538 9.85689 19.9421V37.4483C9.85689 39.6742 8.50595 39.8842 8.10696 39.8982C7.78073 39.9153 7.45454 39.8637 7.14954 39.7466C6.84455 39.6296 6.56757 39.4497 6.33657 39.2187C6.10557 38.9877 5.92571 38.7107 5.80865 38.4057C5.69159 38.1007 5.63995 37.7745 5.65707 37.4483V23.4489C5.65707 23.1705 5.54645 22.9034 5.34955 22.7065C5.15264 22.5096 4.88558 22.399 4.60712 22.399C4.30524 22.4208 4.00206 22.382 3.71542 22.2848C3.42879 22.1876 3.1645 22.034 2.93815 21.8331C2.71179 21.6322 2.52794 21.388 2.39743 21.1149C2.26692 20.8418 2.19238 20.5454 2.17822 20.2431C4.9781 16.0992 9.6259 10.4995 11.6068 10.4995H11.6908C12.0232 10.5145 12.345 10.6203 12.6215 10.8054C12.8979 10.9905 13.1183 11.2478 13.2587 11.5494C13.4284 11.8832 13.4982 12.2589 13.4598 12.6314C13.4213 13.0039 13.2761 13.3573 13.0417 13.6493L13.0697 13.6283Z" fill="white"/>
<path d="M39.9204 4.54975C39.9204 3.65078 39.6541 2.77197 39.1551 2.02422C38.656 1.27647 37.9467 0.693306 37.1166 0.348334C36.2864 0.00336156 35.3727 -0.0879586 34.4907 0.0859012C33.6087 0.259761 32.798 0.691007 32.1608 1.32521C31.5237 1.95941 31.0887 2.76814 30.9108 3.64933C30.7329 4.53052 30.82 5.44466 31.1611 6.27639C31.5023 7.10811 32.0822 7.82013 32.8276 8.32259C33.5731 8.82504 34.4506 9.0954 35.3496 9.09955C35.9486 9.10139 36.5421 8.98512 37.0961 8.75738C37.6501 8.52964 38.1538 8.19491 38.5783 7.77233C39.0029 7.34975 39.3399 6.84762 39.5702 6.29465C39.8005 5.74169 39.9195 5.14875 39.9204 4.54975ZM35.3496 6.99965C34.8651 6.99965 34.3914 6.85596 33.9885 6.58676C33.5856 6.31757 33.2716 5.93495 33.0862 5.48729C32.9008 5.03963 32.8523 4.54704 32.9468 4.0718C33.0413 3.59657 33.2746 3.16004 33.6173 2.81742C33.9599 2.47479 34.3964 2.24146 34.8717 2.14694C35.3469 2.05241 35.8395 2.10092 36.2871 2.28635C36.7348 2.47178 37.1174 2.78578 37.3866 3.18867C37.6558 3.59155 37.7995 4.06521 37.7995 4.54975C37.7995 5.19951 37.5414 5.82265 37.0819 6.28209C36.6225 6.74153 35.9994 6.99965 35.3496 6.99965Z" fill="white"/>
<path d="M53.7452 19.3611C52.5203 17.5272 46.2346 8.39258 42.3498 8.39258H42.2238C41.4872 8.40395 40.7687 8.62191 40.1499 9.02162C39.5312 9.42133 39.0371 9.98674 38.7239 10.6535C38.3949 11.3342 38.2625 12.0933 38.3416 12.8452C38.4208 13.5971 38.7083 14.312 39.1719 14.9093C40.3939 16.4635 41.3409 18.2154 41.9718 20.0891V37.4483C41.9718 41.1791 44.7716 41.9981 45.8216 41.9981C46.4238 42.0155 47.0232 41.9097 47.5831 41.6872C48.143 41.4648 48.6515 41.1303 49.0775 40.7042C49.5036 40.2782 49.8381 39.7697 50.0605 39.2098C50.283 38.6499 50.3888 38.0505 50.3714 37.4483V24.3939C51.3814 24.1745 52.2833 23.61 52.922 22.7975C53.5608 21.985 53.8964 20.9753 53.8712 19.9421C53.8861 19.7403 53.8423 19.5386 53.7452 19.3611ZM49.3494 22.392C49.071 22.392 48.8039 22.5026 48.607 22.6995C48.4101 22.8964 48.2995 23.1635 48.2995 23.4419V37.4483C48.3145 37.7737 48.2614 38.0986 48.1435 38.4023C48.0256 38.7059 47.8455 38.9816 47.6149 39.2116C47.3842 39.4416 47.108 39.6209 46.804 39.7379C46.5 39.8549 46.1749 39.9071 45.8496 39.8912C45.4366 39.8912 44.0857 39.6672 44.0857 37.4413V19.9491C44.0969 19.8608 44.0969 19.7714 44.0857 19.6831C43.3958 17.491 42.3066 15.4453 40.8728 13.6493C40.6384 13.3573 40.4933 13.0039 40.4548 12.6314C40.4163 12.2589 40.4861 11.8832 40.6558 11.5494C40.799 11.2358 41.0283 10.9693 41.317 10.781C41.6058 10.5926 41.9421 10.4902 42.2868 10.4855H42.3498C44.3307 10.4855 48.9785 16.0852 51.7783 20.2291C51.7641 20.5317 51.6896 20.8284 51.5592 21.1018C51.4288 21.3753 51.2451 21.6199 51.0188 21.8214C50.7926 22.0229 50.5284 22.1771 50.2417 22.2751C49.955 22.3731 49.6517 22.4128 49.3494 22.392Z" fill="white"/>
</svg>
