<svg width="80" height="214" viewBox="0 0 80 214" fill="none" xmlns="http://www.w3.org/2000/svg">
<g clip-path="url(#clip0_199_1007)">
<path d="M59 6L66 10.5L74 31.5L75.5 54L74 65L66 61L59 53L55.5 7L59 6Z" fill="#D3B8B9"/>
<ellipse cx="38.5" cy="33.5" rx="25.5" ry="27.5" fill="#D3B8B9"/>
<path d="M13 75L37.5 71L64 75L71 105.5L72.5 123L64 145H13L17 133.5L5 123L7.5 93.5L13 75Z" fill="#D3B8B9"/>
<path d="M31.5 145H16.5L19 178L13 209.5L31.5 204L33.5 159L29 156L31.5 145Z" fill="#D3B8B9"/>
<path d="M45.9119 146.5H60.9119L58.9119 180.5L64.4119 211L45.9119 205.5V157.5V146.5Z" fill="#D3B8B9"/>
<path d="M66.4263 5.50616C60.7852 1.22182 54.8094 1.09066 51.037 1.62651C48.114 0.592075 44.9592 0 41.6522 0H36.2425C21.5974 0 9.68318 11.1099 9.68318 24.7647V29.0407C9.68318 31.2388 9.9941 33.3658 10.5236 35.4146C10.4864 35.4619 10.44 35.4978 10.4037 35.5462C9.07946 37.314 8.52551 39.6595 8.88471 41.9801C9.52954 46.1499 12.9257 49.2249 16.679 49.2249C16.9743 49.2249 17.2708 49.2064 17.5694 49.1674C17.8066 49.1364 18.0296 49.0593 18.2599 49.0046C20.6081 54.1522 24.1045 58.6521 28.3876 61.5597V66.0808C27.6296 65.8381 26.9297 65.5729 26.3341 65.2762C24.5684 64.4004 22.6469 64.2714 20.9212 64.912C13.9438 67.5003 8.49521 73.1637 5.97106 80.4496C5.40197 82.0928 5.01247 83.931 4.74631 86.2375L0.0150168 127.083C-0.0585547 127.712 0.140521 128.342 0.561393 128.815C0.739507 129.015 0.963467 129.158 1.19554 129.281L1.04069 130.575C0.771289 132.819 1.47563 135.075 2.97302 136.766C4.4715 138.459 6.62455 139.428 8.88147 139.428H12.3754L12.1078 147.536C12.0883 148.136 12.3123 148.722 12.7299 149.153C12.8225 149.249 12.9462 149.298 13.0527 149.375L13.136 198.469C8.00348 199.384 4.08633 203.861 4.08633 209.261V210.885C4.08633 212.602 5.48203 214 7.19689 214H32.8928C34.6066 214 36.0023 212.602 36.0023 210.885V205.396C36.0023 204.278 35.7202 203.232 35.2593 202.289C35.995 201.514 36.4683 200.475 36.5086 199.307L38.2332 149.829H39.6633L41.386 199.307C41.4263 200.475 41.8994 201.514 42.6354 202.289C42.1743 203.232 41.8923 204.278 41.8923 205.396V210.885C41.8923 212.602 43.288 214 45.004 214H70.6999C72.4137 214 73.8094 212.602 73.8094 210.885V209.261C73.8094 203.861 69.8927 199.384 64.7605 198.469L64.8394 149.378C64.9477 149.3 65.0729 149.25 65.1669 149.153C65.5845 148.722 65.8096 148.136 65.7879 147.536L65.5203 139.428H69.0143C71.2712 139.428 73.4242 138.459 74.9216 136.769C76.419 135.078 77.1244 132.821 76.8561 130.575L76.7014 129.28C76.9335 129.158 77.1576 129.015 77.3365 128.815C77.7563 128.342 77.9554 127.712 77.8818 127.083L73.1472 86.2332C72.8789 83.9224 72.4894 82.0797 71.9182 80.4366C69.3929 73.1572 63.9465 67.4993 56.9745 64.912C55.2456 64.2682 53.3241 64.3982 51.5605 65.2773C50.9721 65.5705 50.2704 65.8341 49.507 66.0762V61.5598C51.9833 59.879 54.2138 57.6905 56.0962 55.122C59.2767 61.7385 62.7355 65.6988 65.8658 68.0499C69.8647 71.0522 73.4588 71.5779 75.4864 71.5779C76.5099 71.5779 77.1353 71.4435 77.2067 71.4273C78.1371 71.2159 78.8274 70.4301 78.9204 69.4784C82.2009 35.8161 77.9965 14.2933 66.4263 5.50616ZM74.6922 67.1156C73.2554 66.9779 70.9574 66.3894 68.3067 64.331C65.2813 61.9844 61.9072 57.8465 58.8636 50.6353C59.1395 50.1024 59.3856 49.5525 59.6357 49.0042C59.8666 49.059 60.0905 49.1364 60.3285 49.1674C60.625 49.2064 60.9214 49.2249 61.2179 49.2249C64.97 49.2249 68.3651 46.1499 69.0121 41.9791C69.3713 39.6585 68.8174 37.314 67.4931 35.5462C67.4568 35.4978 67.4104 35.4619 67.3732 35.4146C67.9027 33.3658 68.2136 31.2388 68.2136 29.0407V24.7647C68.2136 17.7864 65.0891 11.4845 60.0909 6.97876C61.3219 7.47261 62.5732 8.14327 63.8037 9.08517C70.7151 14.3778 78.1415 28.7567 74.6922 67.1156ZM38.9473 60.5591C27.9441 60.5591 19.4087 46.5531 19.4087 34.5046C19.4087 32.9676 19.5537 31.4274 19.8523 29.8243L37.6252 21.5586C38.4496 21.1738 39.4407 21.1695 40.2738 21.5597L58.0456 29.8243C58.3421 31.422 58.487 32.9622 58.487 34.5046C58.487 46.5531 49.9506 60.5591 38.9473 60.5591ZM68.7459 86.7448L73.1927 125.119H65.048L64.0179 93.9072C63.9789 92.6802 62.9338 91.6635 61.7307 91.7632C60.5081 91.8022 59.5495 92.8298 59.5906 94.0546L60.239 113.699H17.6589L18.3073 94.0546C18.3473 92.8298 17.3887 91.8022 16.1661 91.7632C14.9403 91.6808 13.9189 92.6824 13.8778 93.9072L12.8477 125.119H4.70304L9.14762 86.7491C9.37699 84.7743 9.69724 83.2352 10.1581 81.9063C11.8165 77.1186 15.0014 73.2082 19.1056 70.7264L32.3536 93.714C32.3314 93.8017 32.2999 93.8862 32.2999 93.9809V101.152C32.2999 101.765 32.7954 102.262 33.4078 102.262H44.4868C45.0992 102.262 45.5947 101.765 45.5947 101.152V93.9809C45.5947 93.8866 45.5633 93.8027 45.5413 93.7153L58.7905 70.7275C62.8915 73.2085 66.0737 77.114 67.7333 81.8933C68.1942 83.2243 68.5144 84.7656 68.7459 86.7448ZM72.4548 131.104C72.5738 132.103 72.273 133.068 71.6066 133.822C70.9401 134.575 70.0183 134.989 69.0143 134.989H65.3738L65.1946 129.558H72.2702L72.4548 131.104ZM16.613 145.39L17.3638 122.641H32.0835V143.055C32.0835 143.669 32.5791 144.165 33.1914 144.165H39.9038C40.5161 144.165 41.0117 143.669 41.0117 143.055V122.641H43.1647V139.929C43.1647 140.543 43.6602 141.039 44.2726 141.039H50.9828C51.5951 141.039 52.0907 140.543 52.0907 139.929V122.641H60.5341L61.2849 145.39H16.613ZM8.51793 209.261C8.51793 206.122 10.7373 203.497 13.6863 202.864C14.0929 203.346 14.6779 203.668 15.3568 203.668H30.8985C31.302 204.138 31.5707 204.729 31.5707 205.396V209.56H8.51793V209.261ZM6.28807 133.82C5.6216 133.068 5.32082 132.103 5.43983 131.104L5.62498 129.558H12.7011L12.5219 134.989H8.88147C7.87635 134.989 6.95562 134.575 6.28807 133.82ZM32.0814 199.229H17.5683L17.4811 149.829H33.8008L32.0814 199.229ZM60.4109 149.829L60.3285 199.218L45.8133 199.151L44.0958 149.829H60.4109ZM69.3778 209.56H46.3239V205.396C46.3239 204.729 46.5927 204.138 46.9961 203.668H62.54C63.2188 203.668 63.8039 203.346 64.2103 202.865C67.159 203.498 69.3778 206.123 69.3778 209.261V209.56ZM38.9473 89.6171L27.9795 70.5851C31.0729 71.4454 34.871 71.9269 38.9473 71.9269C43.0249 71.9269 46.8233 71.4456 49.9168 70.5852L38.9473 89.6171ZM38.9473 67.4873C36.7912 67.4873 34.7179 67.3329 32.8193 67.0596V63.852C34.7648 64.5679 36.8073 64.9987 38.9473 64.9987C41.0874 64.9987 43.1298 64.568 45.0754 63.8521V67.0508C43.1616 67.3283 41.079 67.4873 38.9473 67.4873ZM14.1148 29.0407V24.7647C14.1148 13.5573 24.0404 4.43961 36.2425 4.43961H41.6522C53.8542 4.43961 63.782 13.5573 63.782 24.7647V29.0407C63.782 30.3539 63.6341 31.6335 63.4013 32.8867C63.206 32.8419 63.0171 32.7767 62.8169 32.7489C62.7171 31.1188 62.5267 29.4674 62.1526 27.7964C62.0033 27.1233 61.5489 26.5586 60.9236 26.2681L42.1412 17.533C40.1396 16.5998 37.7529 16.6019 35.7578 17.5319L16.9732 26.2681C16.3479 26.5596 15.8935 27.1243 15.7431 27.7974C15.3694 29.4727 15.179 31.1227 15.0791 32.7484C14.8789 32.7762 14.6905 32.8412 14.4953 32.886C14.2627 31.6331 14.1148 30.3537 14.1148 29.0407ZM13.9482 38.2115C14.1871 37.8917 14.5642 37.5133 15.1053 37.2954C15.3275 39.8006 15.8551 42.3179 16.6253 44.7653C15.0759 44.7302 13.565 43.2459 13.2644 41.2995C13.0869 40.1538 13.3358 39.0276 13.9482 38.2115ZM62.7904 37.2953C63.3317 37.5132 63.7089 37.8917 63.9487 38.2115C64.5589 39.0287 64.8099 40.1538 64.6324 41.2995C64.3315 43.2469 62.8376 44.7458 61.2696 44.7678C62.0403 42.3195 62.5682 39.8015 62.7904 37.2953ZM32.7652 49.6942C32.7652 48.7133 33.5593 47.9188 34.5374 47.9188C35.5154 47.9188 36.3096 48.7133 36.3096 49.6942C36.3983 49.7321 37.2941 50.3239 38.9473 50.3239C40.6027 50.3239 41.4985 49.7321 41.6219 49.5284C41.6219 48.5474 42.3987 47.8353 43.3768 47.8353C44.357 47.8353 45.1317 48.7133 45.1317 49.6942C45.1317 52.0777 42.4723 53.8748 38.9473 53.8748C35.4224 53.8748 32.7652 52.0777 32.7652 49.6942ZM26.6282 37.9203C26.6282 36.0704 27.7682 34.6758 29.2794 34.6758C30.7905 34.6758 31.9302 36.0704 31.9302 37.9203C31.9302 39.7702 30.7905 41.1652 29.2794 41.1652C27.7682 41.1652 26.6282 39.7702 26.6282 37.9203ZM45.9664 37.9203C45.9664 36.0704 47.1054 34.6758 48.6166 34.6758C50.1276 34.6758 51.2678 36.0704 51.2678 37.9203C51.2678 39.7702 50.1276 41.1652 48.6166 41.1652C47.1054 41.1652 45.9664 39.7702 45.9664 37.9203Z" fill="black"/>
</g>
<defs>
<clipPath id="clip0_199_1007">
<rect width="80" height="214" fill="white"/>
</clipPath>
</defs>
</svg>
