<svg width="69" height="71" viewBox="0 0 69 71" fill="none" xmlns="http://www.w3.org/2000/svg">
<g clip-path="url(#clip0_166_827)">
<rect y="12.0935" width="10" height="36" transform="rotate(-37.5433 0 12.0935)" fill="#DCBFC1"/>
<ellipse cx="34.5" cy="51" rx="15.5" ry="16" fill="#DCBFC1"/>
<rect x="60.5486" y="6" width="10" height="36" transform="rotate(36.7675 60.5486 6)" fill="#DCBFC1"/>
<rect x="59.7837" y="2.31812" width="10" height="48.3598" transform="rotate(92.7474 59.7837 2.31812)" fill="#DCBFC1"/>
<path d="M40.7498 63.5902C40.992 64.1293 40.7498 64.7582 40.2107 65.0004C38.4295 65.7973 36.5349 66.1996 34.5818 66.1996C26.9685 66.1996 20.7728 60.0043 20.7728 52.3906C20.7728 51.1523 20.9408 49.9179 21.2689 48.7226C21.4251 48.1562 22.0111 47.8203 22.5814 47.9765C23.1478 48.1328 23.4837 48.7187 23.3275 49.289C23.0501 50.3007 22.9095 51.3437 22.9095 52.3906C22.9095 58.8281 28.1478 64.0626 34.5815 64.0626C36.2338 64.0626 37.8354 63.7228 39.3393 63.047C39.8784 62.8049 40.5073 63.047 40.7495 63.5861L40.7498 63.5902ZM43.0857 50.3792C43.2302 50.8206 43.07 51.3011 42.695 51.5745L38.6833 54.4768L40.2224 59.1838C40.367 59.6252 40.2107 60.1057 39.8357 60.3791C39.6482 60.5159 39.4295 60.5823 39.2068 60.5823C38.9881 60.5823 38.7654 60.5158 38.5779 60.3791L34.5779 57.4611L30.5779 60.3791C30.2029 60.6526 29.6951 60.6526 29.324 60.3791C28.949 60.1057 28.7928 59.6252 28.9373 59.1838L30.4764 54.4768L26.4647 51.5745C26.0897 51.305 25.9334 50.8206 26.0741 50.3792C26.2186 49.9378 26.6248 49.641 27.0897 49.641H27.0936L32.0428 49.6488L33.5623 44.9379C33.7029 44.4965 34.113 44.1996 34.5779 44.1996C35.0427 44.1996 35.4529 44.4965 35.5935 44.9379L37.113 49.6488L42.0622 49.641H42.0661C42.527 49.641 42.9372 49.9378 43.0817 50.3792H43.0857ZM38.7693 51.7815L36.3435 51.7854H36.3396C35.8747 51.7854 35.4646 51.4886 35.324 51.0472L34.5779 48.7386L33.8318 51.0472C33.6912 51.4886 33.2732 51.7933 32.8162 51.7854L30.3904 51.7815L32.3552 53.2034C32.7302 53.4769 32.8864 53.9573 32.7419 54.3987L31.988 56.7034L33.945 55.2737C34.1325 55.137 34.3512 55.0706 34.5739 55.0706C34.7926 55.0706 35.0153 55.137 35.2028 55.2737L37.1598 56.7034L36.4059 54.3987C36.2614 53.9573 36.4176 53.473 36.7926 53.2034L38.7574 51.7815H38.7693ZM68.9643 12.3045L48.6093 40.6595C51.2734 43.8392 52.8788 47.929 52.8788 52.3895C52.8788 62.4795 44.6718 70.6865 34.5818 70.6865C24.4918 70.6865 16.2848 62.4795 16.2848 52.3895C16.2848 47.9286 17.8942 43.8348 20.5543 40.6595L0.199266 12.3045C-0.0624541 11.9373 -0.0663648 11.4491 0.187546 11.0779L7.50395 0.460935C7.51566 0.445309 7.52738 0.437496 7.5391 0.421871C7.57035 0.378902 7.60551 0.33984 7.64457 0.300781C7.66801 0.277344 7.69145 0.257812 7.71489 0.238281C7.73051 0.226562 7.74223 0.210939 7.76176 0.19922C7.7852 0.179689 7.81254 0.16797 7.83989 0.152345C7.86332 0.13672 7.89067 0.121094 7.9141 0.109375C7.96879 0.082031 8.02738 0.0625007 8.08598 0.0429697C8.10161 0.0390627 8.11723 0.0312507 8.13286 0.0273447C8.21098 0.0078127 8.28911 0 8.36724 0H8.37896H60.774H60.7896C60.8677 0 60.9458 0.0117197 61.024 0.0273447C61.0435 0.0312507 61.0591 0.0390627 61.0747 0.0429697C61.1333 0.0585947 61.188 0.0781257 61.2427 0.10547C61.2701 0.117189 61.2935 0.132812 61.3208 0.148438C61.3482 0.164062 61.3716 0.175781 61.399 0.191406C61.4146 0.203125 61.4302 0.218751 61.4458 0.23047C61.4693 0.250001 61.4927 0.269532 61.5162 0.29297C61.5552 0.332032 61.5904 0.371095 61.6216 0.41406C61.6333 0.429686 61.6451 0.437497 61.6568 0.453122L68.9732 11.0701C69.2271 11.4412 69.2232 11.9334 68.9615 12.2967L68.9643 12.3045ZM42.0933 35.7065L63.1323 6.35853L60.7612 2.91714L52.9331 13.8231L38.1321 34.4401C38.1672 34.4479 38.2024 34.4558 38.2336 34.4636C38.2688 34.4714 38.3 34.4792 38.3352 34.487C38.5852 34.5378 38.8352 34.5964 39.0813 34.6589C39.1164 34.6667 39.1555 34.6784 39.1907 34.6862C39.7571 34.8347 40.3157 35.0065 40.8626 35.2097H40.8665C41.2805 35.362 41.6907 35.53 42.0931 35.7097L42.0933 35.7065ZM35.7222 34.1323L49.9842 14.2653H19.1752L33.4372 34.1323C33.8161 34.1089 34.195 34.0933 34.5778 34.0933C34.9606 34.0933 35.3395 34.1089 35.7184 34.1323H35.7222ZM30.9292 34.4605C30.9643 34.4527 30.9995 34.4448 31.0307 34.437L16.2297 13.82L8.40163 2.91403L6.03052 6.35543L27.0695 35.7034C27.4719 35.5237 27.882 35.3558 28.2961 35.2034H28.3C28.8469 35.0042 29.4055 34.8284 29.9719 34.68C30.0071 34.6722 30.0462 34.6605 30.0813 34.6526C30.3274 34.5901 30.5774 34.5316 30.8274 34.4808C30.8626 34.4729 30.8938 34.4651 30.929 34.4573L30.9292 34.4605ZM54.3392 8.19847L14.8192 8.20237L17.6434 12.136H51.5144L54.3386 8.20237L54.3392 8.19847ZM58.6947 2.12816L10.4647 2.13207L13.2889 6.06567H55.8749L58.6991 2.13207L58.6947 2.12816ZM2.37067 11.6712L22.0427 39.0692C22.9997 38.1668 24.0466 37.3778 25.1599 36.7059L4.74187 8.22886L2.37067 11.6712ZM50.7417 52.3942C50.7417 45.7145 46.6675 39.9682 40.8745 37.5112C40.8627 37.5073 40.851 37.5034 40.8432 37.4994C40.6245 37.4057 40.4018 37.3198 40.1752 37.2377C40.1401 37.226 40.101 37.2104 40.0659 37.1987C39.8666 37.1283 39.6674 37.058 39.4643 36.9955C39.4096 36.976 39.351 36.9604 39.2963 36.9409C39.1127 36.8862 38.9252 36.8315 38.7377 36.7807C38.6674 36.7612 38.5971 36.7416 38.5268 36.726C38.351 36.683 38.1713 36.6401 37.9916 36.601C37.9135 36.5854 37.8354 36.5659 37.7534 36.5502C37.5776 36.5151 37.4018 36.4838 37.226 36.4565C37.144 36.4409 37.062 36.4291 36.976 36.4135C36.7963 36.3862 36.6166 36.3666 36.4331 36.3432C36.351 36.3354 36.2729 36.3237 36.1909 36.3159C35.6596 36.2651 35.1245 36.2338 34.5815 36.2338C34.0385 36.2338 33.5034 36.2612 32.9721 36.3159C32.89 36.3237 32.8119 36.3354 32.7299 36.3432C32.5463 36.3627 32.3666 36.3862 32.1869 36.4135C32.1049 36.4252 32.0228 36.4409 31.9369 36.4565C31.7611 36.4838 31.5814 36.5151 31.4096 36.5502C31.3314 36.5659 31.2494 36.5854 31.1713 36.601C30.9916 36.6401 30.8158 36.6791 30.6361 36.726C30.5658 36.7455 30.4955 36.7612 30.4252 36.7807C30.2377 36.8315 30.0502 36.8823 29.8666 36.9409C29.808 36.9565 29.7533 36.976 29.6947 36.9955C29.4916 37.058 29.2924 37.1284 29.0932 37.1987C29.0541 37.2104 29.0189 37.226 28.9799 37.2377C28.7572 37.3198 28.5346 37.4096 28.3158 37.4994C28.3041 37.5034 28.2924 37.5073 28.2807 37.5151C22.4877 39.976 18.4174 45.7182 18.4174 52.3981C18.4174 61.3083 25.6674 68.5581 34.5774 68.5581C43.4874 68.5581 50.7374 61.3081 50.7374 52.3981L50.7417 52.3942ZM66.7887 11.6712L64.4176 8.22976L43.9996 36.7068C45.1129 37.3786 46.1598 38.1677 47.1168 39.0701L66.7887 11.6712Z" fill="black"/>
</g>
<defs>
<clipPath id="clip0_166_827">
<rect width="69" height="71" fill="white"/>
</clipPath>
</defs>
</svg>
