<svg width="82" height="82" viewBox="0 0 82 82" fill="none" xmlns="http://www.w3.org/2000/svg">
<g clip-path="url(#clip0_166_806)">
<path d="M34.9796 5.81985L42.8729 5.47915L54.776 7.61602L64.0372 14.8717L71.1943 22.157L74.2148 30.9534L72.1092 44.4373L70.246 62.1864L54.3903 76.1003L50.0315 71.6002L45.5551 69.1584L35.2953 70.1519L40.9226 58.8124L38.2932 53.8038L29.9353 47.0106L18.6732 58.1659L14.2834 55.2273L12.0376 45.6248L5.80046 42.1108L8.03118 34.9498L11.7489 23.0155L23.9498 17.4716L34.9796 5.81985Z" fill="#DCBFC1"/>
<path d="M75.6022 59.8157C75.6887 58.6518 75.3335 57.5443 74.6023 56.6959L70.8306 52.3229C71.3456 51.6427 71.7993 51.0019 72.1668 50.424C74.332 47.0187 75.8804 43.6593 76.8865 40.3735C76.9695 40.1814 77.0212 39.9791 77.0543 39.7707C79.9653 29.554 77.2725 20.1082 69.1975 12.4447C69.078 12.3002 68.9431 12.1668 68.7909 12.0518C66.9678 10.3719 64.9102 8.77249 62.5643 7.28083C60.2184 5.78916 57.8982 4.6049 55.6042 3.66545C55.4087 3.55927 55.2042 3.48245 54.9908 3.43071C44.7284 -0.561739 35.1238 0.96793 27.1579 7.79963C26.8496 7.96749 26.5849 8.19665 26.3737 8.47379C23.8801 10.7535 21.5462 13.5435 19.4215 16.8849C19.0489 17.4709 18.6554 18.1625 18.2526 18.928L12.7994 17.3974C11.7219 17.0957 10.5693 17.2445 9.55101 17.8159C8.39777 18.4653 7.52005 19.6145 7.14265 20.963L1.30004 41.7919C0.916573 43.1477 1.06988 44.5859 1.71998 45.7424C2.08224 46.3898 2.58276 46.9165 3.17471 47.2929C3.51353 47.5084 3.88341 47.675 4.27501 47.7855L10.686 49.5836C11.0584 54.5045 12.3084 59.4628 15.4944 61.4887C16.8676 62.3619 19.1679 63.0646 22.3198 61.44C25.6833 59.7092 25.6198 55.4227 25.0501 51.3225C30.9159 51.0289 36.371 54.4976 38.5932 59.9341C34.6385 61.1575 30.7298 62.9181 30.5892 66.6982C30.4568 70.2429 32.067 72.0266 33.4412 72.9005C36.6331 74.9301 41.6693 73.9494 46.2929 72.1913L50.6994 77.3025C50.9663 77.6135 51.2757 77.8774 51.6145 78.0929C52.2085 78.4705 52.8958 78.6991 53.6357 78.7525C54.9578 78.8501 56.3262 78.3795 57.3894 77.4602L73.7719 63.3346C74.8338 62.4172 75.5033 61.1355 75.6022 59.8157ZM73.2686 32.1448C71.6755 29.9227 69.5571 27.4813 66.8763 25.4687L68.5569 19.0446C71.4125 22.6265 73.3171 26.9668 73.2686 32.1448ZM49.3186 6.83117L44.2278 11.0673C41.2877 9.50425 38.2031 8.62187 35.5278 8.12148C40.1738 5.89904 44.8882 5.77872 49.3186 6.83117ZM6.12217 43.1088L11.9457 22.3517L16.08 23.5111C13.8092 28.7441 11.6719 34.9576 11.1369 38.0308C10.9234 39.2511 10.656 41.5931 10.5762 44.3553L6.12217 43.1088ZM24.2815 46.3666C24.2357 45.9918 24.2022 45.6528 24.2063 45.4175C24.2617 41.481 29.6527 30.4454 30.9365 28.4264C31.6259 27.3421 32.2209 26.4064 36.831 29.3377C37.9212 30.031 39.0846 30.8379 40.3229 31.6967C43.2908 33.7574 46.7598 35.9632 49.8858 37.7774C51.1887 38.5345 52.413 39.2458 53.5032 39.9391C58.1132 42.8704 57.5182 43.8062 56.8288 44.8904C55.545 46.9094 47.838 56.4724 44.2966 58.1923C44.0843 58.2952 43.7637 58.4076 43.4052 58.5268C40.456 50.6925 32.6261 45.7137 24.2815 46.3666ZM36.1248 68.6801C35.9783 68.5869 35.5309 68.3024 35.578 66.9231C36.0141 65.8191 40.7187 64.5059 42.4896 64.0099C44.0969 63.5597 45.4858 63.1735 46.4798 62.6888C51.5826 60.2124 59.9947 49.2323 61.0498 47.573C65.0179 41.3327 58.6021 37.2531 56.1884 35.7183C55.0464 34.9921 53.764 34.2467 52.3994 33.4546C49.3599 31.687 46.0634 29.5908 43.1734 27.588C41.8762 26.6876 40.6582 25.8432 39.5162 25.117C37.1006 23.581 30.6868 19.5027 26.7187 25.743C25.6637 27.4023 19.2875 39.677 19.2093 45.3483C19.1929 46.4547 19.4314 47.8757 19.7055 49.5222C20.0091 51.3359 20.8154 56.1534 20.0316 56.9943C18.7706 57.6437 18.3231 57.3592 18.1786 57.2673C15.7171 55.7021 14.9015 45.5886 16.0673 38.8889C16.7675 34.8628 20.9539 23.7959 23.6432 19.5666C25.4789 16.6796 27.3869 14.3437 29.3358 12.4803C31.633 12.5233 38.0121 12.9521 43.1463 16.2168C44.0631 16.7998 45.2517 16.7243 46.0875 16.0284L54.8378 8.74661C56.6089 9.55092 58.2994 10.4929 59.883 11.4998C61.4535 12.4985 63.0123 13.6213 64.4835 14.873L61.5987 25.8915C61.323 26.9435 61.7588 28.0519 62.6766 28.6355C67.8258 31.9097 70.9486 37.5915 71.9408 39.612C71.0795 42.1572 69.7772 44.8656 67.949 47.7406C65.2597 51.97 57.0134 60.4553 53.6644 62.7971C48.0898 66.6934 38.584 70.2466 36.1248 68.6801ZM54.1508 73.6486L51.0669 70.0713C53.5207 68.8313 55.5169 67.6025 56.528 66.8949C59.0885 65.1041 63.8213 60.52 67.6004 56.2363L70.4763 59.5708L54.1508 73.6486Z" fill="black"/>
</g>
<defs>
<clipPath id="clip0_166_806">
<rect width="82" height="82" fill="white"/>
</clipPath>
</defs>
</svg>
