<svg width="78" height="82" viewBox="0 0 78 82" fill="none" xmlns="http://www.w3.org/2000/svg">
<g clip-path="url(#clip0_166_838)">
<path d="M19.6165 37.3206L31.1165 31.8206L41.1165 33.8206L52.1165 37.3206L58.1165 39.8206L60.6165 42.8206L60.6165 49.8206L56.1165 66.8206L53.6165 77.3206L45.6165 78.3206L35.6165 77.3206L28.6165 72.8206L28.6165 69.8206L37.1165 68.3206L33.6165 63.7928L25.0825 63.7928L19.6165 59.3206L13.1165 56.8206L13.1165 52.3206L15.1165 46.3206L19.6165 37.3206Z" fill="#D3B8B9"/>
<path d="M23.4757 64.9848C22.5217 64.4825 21.7659 63.7799 21.21 62.8736C17.5152 56.8448 24.927 44.0249 25.2443 43.4811C25.5216 43.0046 26.1504 42.8501 26.6112 43.1236C27.0877 43.4009 27.2495 44.0159 26.9687 44.4905C24.9733 47.9031 20.3619 57.6679 22.9131 61.8275C23.8541 63.3692 25.8176 64.0586 28.7443 63.8911C29.2954 63.859 29.767 64.2795 29.7992 64.8306C29.8313 65.3817 29.409 65.8568 28.8597 65.8855C26.6589 66.0158 24.8583 65.7127 23.4757 64.9848Z" fill="black"/>
<path d="M14.5606 59.9158C13.0397 59.1151 11.9631 57.9655 11.3357 56.4741C8.30211 49.2394 17.642 36.5644 18.0393 36.0277C18.0698 35.9864 18.1039 35.947 18.1413 35.9093C18.2716 35.7792 31.4643 23.2572 50.4249 37.5877C50.8669 37.922 50.9516 38.5493 50.6192 38.9878C50.2867 39.4264 49.6594 39.5111 49.219 39.1821C32.1972 26.3176 20.4605 36.4948 19.5908 37.2902C17.0334 40.7556 11.0397 50.5967 13.18 55.696C13.9669 57.5804 15.7905 58.695 18.7506 59.1013C19.2959 59.1809 19.6803 59.6835 19.604 60.2305C19.5279 60.7775 19.0219 61.1601 18.4749 61.0839C16.9503 60.8772 15.6424 60.4854 14.5606 59.9158Z" fill="black"/>
<path d="M34.1982 68.6922C33.1094 68.119 32.0582 67.2564 31.2957 65.9544C28.6576 61.44 30.7886 53.7284 37.6281 43.0354C37.9261 42.5699 38.5371 42.4324 39.0095 42.7341C39.475 43.0322 39.6088 43.6501 39.3108 44.1156C31.3458 56.5689 31.4873 62.3121 33.0155 64.9351C34.7896 67.9882 39.0777 67.809 39.118 67.8082C39.6707 67.7813 40.1389 68.2 40.1692 68.7545C40.1979 69.3038 39.7774 69.7755 39.2281 69.8042C39.0776 69.8132 36.5521 69.9315 34.1982 68.6922Z" fill="black"/>
<path d="M56.3676 74.1838L61.8392 51.1641C62.4682 49.4161 62.8459 48.2375 62.9076 48.0449C62.917 48.0101 62.9283 47.9719 62.9343 47.9353C63.5639 44.744 63.0456 42.0475 61.397 39.9213C58.2242 35.8273 52.0258 35.4333 51.7608 35.4173C51.2075 35.3865 50.7391 35.8065 50.7049 36.3579C50.674 36.9112 51.0922 37.383 51.6455 37.4138C51.7013 37.4167 57.1911 37.7643 59.8109 41.1478C61.08 42.7872 61.4738 44.9237 60.976 47.4958C60.7066 48.3428 60.3472 49.4029 59.9169 50.5891C59.9167 50.5978 59.9096 50.6029 59.906 50.6098L59.9021 50.6254C57.3835 57.5723 52.3802 69.096 47.6693 71.2855C46.7818 71.6967 45.9736 71.7391 45.1976 71.4188C45.1387 71.3966 45.0588 71.3722 44.9997 71.3587C44.9631 71.3527 44.0484 71.1448 43.432 69.8756C42.5475 68.0591 41.9249 63.2549 47.6876 51.5048C47.9322 51.0067 47.7208 50.4186 47.2317 50.1655C46.7371 49.9227 46.1352 50.1268 45.8925 50.6214C41.1592 60.2737 39.7456 67.0923 41.6935 70.872C42.2927 72.0396 43.087 72.6608 43.7057 72.9865C44.0548 73.1703 44.3482 73.2586 44.5168 73.2988C45.7958 73.8044 47.1391 73.7348 48.5119 73.0978C51.6863 71.6215 54.7056 67.044 57.1523 62.1958L54.4102 73.726C54.0916 75.0857 53.3242 76.0988 52.0648 76.8306C48.9977 78.6062 43.8465 78.278 39.8568 77.6297C38.8188 75.2998 37.3663 73.7404 35.5242 73.0133C33.3355 72.1479 31.1601 72.6491 29.756 73.1946C28.9882 72.3136 28.8823 71.6928 28.9032 71.3682C28.9907 70.112 30.9348 69.1445 31.609 68.9036C32.1283 68.7223 32.4024 68.1514 32.2176 67.6303C32.0329 67.1092 31.462 66.8351 30.9427 67.0164C30.7861 67.0708 27.1152 68.3917 26.9073 71.218C26.7382 73.5348 28.8673 75.8214 33.4194 78.2181C33.4747 78.2472 33.5371 78.2712 33.5979 78.29C34.1344 78.4532 46.8027 82.1874 53.0646 78.5623C54.8138 77.5541 55.9207 76.0808 56.3676 74.1838ZM34.273 76.4041C33.1342 75.8001 32.2391 75.2449 31.5281 74.7337C32.4975 74.5025 33.6628 74.4273 34.7996 74.8758C35.7978 75.2689 36.6535 76.0417 37.3621 77.1608C35.7513 76.816 34.5961 76.4947 34.273 76.4041Z" fill="black"/>
<path d="M62.442 29.7535C62.6428 28.1816 62.8366 26.6061 62.9867 25.0297C63.1665 23.4556 63.266 21.8746 63.4075 20.298L63.7112 15.5622C63.7271 15.3057 63.642 15.0314 63.4541 14.8265C63.0852 14.4203 62.4568 14.3897 62.0524 14.7639C60.9159 15.7989 59.7657 16.8179 58.6447 17.8655C57.5304 18.9254 56.3974 19.9623 55.3086 21.049C53.1091 23.1975 50.9522 25.3993 48.9268 27.7453C51.4985 26.0135 53.9386 24.1375 56.3329 22.2062C57.5445 21.2549 58.7082 20.2519 59.8907 19.2719C60.4706 18.7826 61.0404 18.2791 61.617 17.7793L61.5103 20.1953C61.484 21.7796 61.4125 23.3576 61.4212 24.9426C61.4036 26.5271 61.4264 28.1106 61.456 29.6978C61.5083 31.2837 61.5554 32.8712 61.6932 34.4625C62.0004 32.8981 62.2185 31.3266 62.442 29.7535Z" fill="black"/>
<path d="M42.4232 18.6169C42.0161 16.8662 41.5826 15.1239 41.1228 13.3896C40.9051 12.5202 40.6576 11.657 40.419 10.7941L39.6905 8.20325C39.1726 6.48705 38.6863 4.76096 38.1368 3.05457L38.127 3.02291C38.0399 2.76073 37.842 2.53292 37.5666 2.41881C37.0659 2.21261 36.4895 2.45213 36.2833 2.95277C35.6722 4.43219 35.0265 5.89333 34.4483 7.3856C33.8563 8.87059 33.2642 10.3557 32.7067 11.8589C32.132 13.3529 31.604 14.8673 31.0743 16.3763C30.5602 17.8979 30.0512 19.4179 29.6064 20.9672C30.4287 19.5813 31.1836 18.1644 31.9297 16.7473C32.662 15.3228 33.3978 13.9003 34.0886 12.454C34.8002 11.0186 35.4701 9.57018 36.1384 8.11642C36.4472 7.47116 36.7335 6.81841 37.0232 6.16753C37.3003 7.03302 37.581 7.90031 37.8528 8.76749L38.7078 11.319C38.9975 12.1691 39.2732 13.0206 39.5839 13.8641C40.1791 15.5593 40.8025 17.2427 41.4471 18.9197C42.1074 20.5918 42.766 22.2673 43.516 23.9115C43.2144 22.1281 42.8145 20.3724 42.4232 18.6169Z" fill="black"/>
<path d="M18.1552 20.0862C19.2874 20.9207 20.4429 21.7277 21.6073 22.5262C22.7861 23.3057 23.9579 24.0904 25.1924 24.7978C24.2485 23.7313 23.2436 22.7387 22.2441 21.7446C21.2285 20.764 20.2057 19.7973 19.1613 18.8545C18.1277 17.8997 17.0546 16.9948 15.9977 16.0675C14.9157 15.1712 13.8481 14.2559 12.7517 13.3785L12.7293 13.3623C12.5369 13.208 12.2887 13.1259 12.0226 13.1535C11.4798 13.2033 11.0819 13.6824 11.1351 14.227C11.2548 15.5172 11.343 16.8086 11.4908 18.096C11.6332 19.385 11.7669 20.6738 11.9514 21.9584C12.1131 23.2443 12.3203 24.5277 12.531 25.8129C12.761 27.095 12.991 28.3772 13.2997 29.6522C13.411 28.3423 13.4471 27.0413 13.4778 25.7419C13.4911 24.4422 13.5044 23.1425 13.4688 21.8435C13.4593 20.5451 13.3938 19.2524 13.3441 17.9549C13.324 17.4145 13.2915 16.8809 13.2574 16.342C13.7678 16.7476 14.2766 17.1479 14.7853 17.557C15.907 18.3948 17.0121 19.2636 18.1552 20.0862Z" fill="black"/>
<path d="M73.1061 48.271C71.3464 51.6134 66.3345 48.9746 68.0942 45.6322C69.854 42.2899 74.8659 44.9287 73.1061 48.271Z" fill="black"/>
<path d="M11.5252 66.9473C10.0876 69.6779 5.99169 67.5214 7.42933 64.7908C8.86698 62.0603 12.9629 64.2168 11.5252 66.9473Z" fill="black"/>
</g>
<defs>
<clipPath id="clip0_166_838">
<rect width="78" height="82" fill="white"/>
</clipPath>
</defs>
</svg>
