<svg width="92" height="70" viewBox="0 0 92 70" fill="none" xmlns="http://www.w3.org/2000/svg">
<g clip-path="url(#clip0_184_864)">
<mask id="mask0_184_864" style="mask-type:luminance" maskUnits="userSpaceOnUse" x="0" y="0" width="92" height="70">
<path d="M0 0H92V70H0V0Z" fill="white"/>
</mask>
<g mask="url(#mask0_184_864)">
<g style="mix-blend-mode:multiply">
<path d="M89.6824 2.78296C89.6536 3.06226 89.6278 3.4244 89.6101 3.85425C89.5677 4.88582 89.5519 6.35623 89.5554 8.12085C89.5624 11.6524 89.6482 16.3898 89.7644 21.2195C89.9677 29.669 90.2646 38.4189 90.3953 41.5066L90.4402 42.4656L90.4412 42.4792C90.5735 44.0525 90.6359 45.304 90.5642 46.3064C90.4925 47.3085 90.2891 48.0087 89.9324 48.5154C89.5833 49.0111 89.0459 49.3797 88.1833 49.6365C87.4188 49.864 86.4234 49.9959 85.1287 50.0544L84.5554 50.075L84.5515 50.0759L69.8669 50.6003C68.6959 50.6424 67.1912 50.4896 65.5076 50.2839C63.8393 50.0802 62.0046 49.8257 60.2273 49.6824C58.4507 49.5391 56.6927 49.5032 55.1648 49.7449C53.6429 49.9856 52.2812 50.5126 51.3748 51.5564C49.1371 54.0976 46.9979 56.4606 44.2195 58.74L43.655 59.1951C42.9658 59.7409 40.6465 61.9049 38.5017 64.0701C37.426 65.156 36.3826 66.2531 35.6003 67.1599C35.5112 67.2632 35.4252 67.3647 35.3425 67.4636C35.691 64.5922 36.5016 61.0774 37.3953 57.533C38.4956 53.1692 39.7206 48.7613 40.2996 45.5896L40.4031 45.0271L39.8308 45.0007L9.9519 43.6208L8.91675 3.81812L89.6824 2.78296Z" fill="#DCBFC1" stroke="#D3B8B9"/>
<path d="M8.40405 3.32515L9.46505 44.1001L39.8081 45.5001C38.6581 51.8001 34.9421 63.0001 34.6771 69.3871C34.7651 68.1621 42.6391 60.6371 43.9651 59.5871C47.0611 57.1371 49.3611 54.6001 51.7501 51.8871C54.9351 48.2121 65.0201 51.2751 69.8851 51.1001L84.5691 50.5751C90.9391 50.4001 91.4691 48.7371 90.9391 42.4371C90.7621 39.3751 89.5231 2.27515 90.3191 2.27515L8.40405 3.32515Z" fill="#DCBFC1" stroke="#D3B8B9" stroke-width="0.8" stroke-miterlimit="10"/>
</g>
<path d="M21.142 19.163C21.083 19.104 20.995 19.075 20.877 19.075V20.037C21.85 19.775 22.735 20.125 23.707 20.212C24.504 20.212 25.388 20.212 26.273 20.125C27.953 20.038 29.635 19.775 31.403 19.687C33.261 19.6 35.119 19.6 36.977 19.6C38.835 19.513 40.692 19.6 42.55 19.687C46 19.95 49.539 19.775 53.077 19.425C54.847 19.25 56.527 19.075 58.297 19.25C60.065 19.513 61.835 19.163 63.515 18.987C64.223 18.9 64.135 17.85 63.427 17.937C61.569 18.112 59.8 18.287 57.854 18.112C56.174 17.937 54.492 18.2 52.812 18.375C49.096 18.725 45.381 18.9 41.665 18.55C39.985 18.463 38.304 18.463 36.623 18.463C34.677 18.55 32.819 18.463 30.962 18.638C29.104 18.813 27.335 19.075 25.477 19.163C23.797 19.163 22.115 18.55 20.523 18.988C19.993 19.163 19.993 19.775 20.435 20.038C20.494 20.038 20.582 20.067 20.7 20.125C21.32 20.388 21.762 19.425 21.142 19.163ZM21.939 28.525L21.85 28.438C21.732 28.613 21.585 28.758 21.408 28.875C21.938 28.875 22.469 29.05 23 28.963C23.708 28.963 24.327 28.875 25.035 28.875C26.627 28.788 28.131 28.613 29.635 28.613C31.139 28.613 32.554 28.788 33.969 28.788C35.562 28.788 37.065 28.875 38.658 28.788C41.754 28.7 44.761 28.613 47.858 28.438C50.865 28.35 53.873 28.788 56.881 28.525C58.473 28.438 60.065 28.525 61.569 28.438C62.4563 28.3791 63.3414 28.2914 64.223 28.175C64.931 28.088 65.638 28.263 66.346 28.263C67.054 28.263 66.966 27.213 66.258 27.213C65.638 27.213 65.108 27.038 64.577 27.038C63.81 27.154 63.073 27.242 62.365 27.3C60.862 27.388 59.446 27.3 57.942 27.388C56.438 27.475 54.935 27.563 53.342 27.475C51.927 27.388 50.512 27.3 49.008 27.3C42.904 27.563 36.711 28 30.519 27.563C28.927 27.475 27.335 27.738 25.742 27.738C24.946 27.825 24.15 27.825 23.354 27.913C22.646 27.913 22.027 27.825 21.319 27.825C21.054 27.825 20.877 28 20.789 28.263C20.789 28.525 20.789 28.613 20.877 28.875C21.142 29.575 22.204 29.138 21.939 28.525Z" fill="#272726"/>
<path d="M22.735 18.9C22.735 18.842 22.705 18.783 22.646 18.725L22.2919 19.6C22.823 19.6 23.4419 19.775 23.9729 19.775C24.6809 19.862 25.389 19.687 26.096 19.687C27.423 19.687 28.75 19.95 30.076 19.862C32.908 19.775 35.739 19.687 38.569 19.512C39.985 19.337 41.3999 19.512 42.8149 19.425C44.2309 19.425 45.7349 19.337 47.2389 19.25C50.1579 19.162 53.0769 18.725 55.9959 18.55C57.4109 18.462 58.8259 18.725 60.2419 18.812C61.8349 18.812 63.338 18.462 64.842 18.637C65.55 18.725 65.7269 17.675 65.0189 17.587C63.7809 17.5 62.6309 17.675 61.3919 17.762C60.0649 17.762 58.827 17.587 57.5 17.412C56.085 17.325 54.58 17.587 53.254 17.762L48.6539 18.112C45.8239 18.375 42.904 18.375 39.984 18.375C38.569 18.375 37.1539 18.55 35.7389 18.55C34.2349 18.637 32.8189 18.637 31.4039 18.725C30.5189 18.812 29.7239 18.812 28.9269 18.812C28.1309 18.812 27.423 18.637 26.627 18.637C25.919 18.55 25.123 18.725 24.415 18.725C23.619 18.725 22.912 18.55 22.204 18.55C21.762 18.55 21.5839 19.075 21.7619 19.337C21.8199 19.396 21.85 19.454 21.85 19.512C22.292 20.125 23.177 19.512 22.735 18.9ZM21.2299 28.612C21.7619 29.487 23.53 29.137 24.415 29.137C25.212 29.05 26.008 29.137 26.804 29.137C27.6 29.225 28.4839 28.962 29.3689 28.875C31.1389 28.787 32.819 29.05 34.589 29.137C36.476 29.137 38.3329 29.108 40.1609 29.05C43.7879 28.875 47.327 28 51.042 28.087C52.812 28.087 54.581 28.175 56.438 28.087C58.267 27.912 60.124 27.737 62.011 27.562C63.0454 27.5012 64.078 27.4138 65.108 27.3C65.5774 27.2417 66.0499 27.2123 66.523 27.212C66.965 27.212 67.408 27.387 67.762 27.387C67.85 27.387 68.5579 27.475 67.5849 27.212C67.4079 27.125 66.9649 27.212 66.6999 27.212C66.2579 27.212 65.815 27.125 65.373 27.037C64.488 26.862 63.4269 26.862 62.5429 26.862C61.8349 26.862 61.9229 27.912 62.6309 27.912C63.6039 28 64.577 28 65.55 28.175C66.17 28.262 67.0539 28.437 67.6729 28.262C68.5579 28.087 69.708 26.95 68.469 26.425C67.142 25.9 65.285 26.162 63.958 26.337L57.942 26.862C55.996 27.037 54.05 27.125 52.104 27.037C50.158 26.95 48.2119 27.125 46.2649 27.3C42.196 27.65 38.215 28.262 34.146 28C32.111 27.912 29.989 27.65 27.954 28C26.981 28.175 25.9189 28 24.9459 28H23.354C23.177 28 22.2039 28.175 22.1149 28C21.7619 27.387 20.877 28 21.231 28.612H21.2299Z" fill="#272726"/>
<path d="M65.638 17.5872C65.285 17.6752 64.842 17.7622 64.488 17.8502C63.958 17.9372 63.338 17.9372 62.808 17.9372C61.658 18.1122 60.419 18.0252 59.269 18.1122C58.562 18.2002 58.65 19.2502 59.358 19.2502C60.508 19.1622 61.746 19.1622 62.896 19.0752C63.426 18.9872 63.869 18.9872 64.4 18.9872C64.842 18.9002 65.285 18.7252 65.727 18.7252C66.435 18.6372 66.347 17.5872 65.638 17.5872Z" fill="#272726"/>
<path d="M22.9121 20.038C22.8521 19.979 22.7641 19.95 22.6461 19.95V20.912C23.6191 20.65 24.5041 21 25.4761 21.087C26.2731 21.087 27.1581 21.087 28.0421 21C29.7231 20.913 31.4041 20.65 33.1731 20.562C35.0311 20.475 36.8881 20.475 38.7461 20.475C40.6041 20.388 42.4611 20.475 44.3191 20.562C47.7691 20.825 51.3081 20.65 54.8461 20.3C56.6161 20.125 58.2961 19.95 60.0661 20.125C61.8351 20.388 63.6041 20.038 65.2851 19.862C65.9921 19.775 65.9041 18.725 65.1961 18.812C63.3381 18.987 61.5691 19.162 59.6231 18.987C57.9431 18.812 56.2621 19.075 54.5811 19.25C50.8651 19.6 47.1501 19.775 43.4351 19.425C41.7541 19.338 40.0731 19.338 38.3921 19.338C36.4461 19.425 34.5891 19.338 32.7311 19.513C30.8731 19.688 29.1041 19.95 27.2461 20.038C25.5661 20.038 23.8851 19.425 22.2921 19.863C21.7621 20.038 21.7621 20.65 22.2041 20.913C22.2631 20.913 22.3511 20.942 22.4691 21C23.0891 21.263 23.5311 20.3 22.9111 20.038H22.9121ZM23.7081 29.4L23.6191 29.313C23.5011 29.488 23.3541 29.633 23.1771 29.75C23.7071 29.75 24.2381 29.925 24.7691 29.838C25.4771 29.838 26.0961 29.75 26.8041 29.75C28.3961 29.663 29.9001 29.488 31.4041 29.488C32.9081 29.488 34.3241 29.663 35.7381 29.663C37.3311 29.663 38.8351 29.75 40.4271 29.663C43.5231 29.575 46.5311 29.488 49.6271 29.313C52.6351 29.225 55.6421 29.663 58.6501 29.4C60.2421 29.313 61.8351 29.4 63.3381 29.313C64.2254 29.2543 65.1105 29.1666 65.9921 29.05C66.7001 28.963 67.4081 29.138 68.1151 29.138C68.8231 29.138 68.7351 28.088 68.0271 28.088C67.4071 28.088 66.8771 27.913 66.3471 27.913C65.5801 28.029 64.8421 28.117 64.1351 28.175C62.6311 28.263 61.2151 28.175 59.7111 28.263C58.2081 28.35 56.7041 28.438 55.1111 28.35C53.6961 28.263 52.2811 28.175 50.7771 28.175C44.6731 28.438 38.4811 28.875 32.2881 28.438C30.6961 28.35 29.1041 28.613 27.5121 28.613C26.7151 28.7 25.9191 28.7 25.1231 28.788C24.4151 28.788 23.7961 28.7 23.0881 28.7C22.8231 28.7 22.6461 28.875 22.5581 29.138C22.5581 29.4 22.5581 29.488 22.6461 29.75C22.9111 30.45 23.9731 30.013 23.7081 29.4Z" fill="#272726"/>
<path d="M24.504 19.775C24.504 19.717 24.474 19.658 24.415 19.6L24.061 20.475C24.592 20.475 25.211 20.65 25.742 20.65C26.45 20.737 27.158 20.562 27.865 20.562C29.192 20.562 30.519 20.825 31.846 20.737C34.676 20.65 37.508 20.562 40.339 20.387C41.754 20.212 43.169 20.387 44.585 20.3C46 20.3 47.504 20.212 49.008 20.125C51.927 20.037 54.846 19.6 57.765 19.425C59.181 19.337 60.596 19.6 62.011 19.687C63.604 19.687 65.108 19.337 66.611 19.512C67.319 19.6 67.496 18.55 66.788 18.462C65.55 18.375 64.4 18.55 63.162 18.637C61.835 18.637 60.596 18.462 59.269 18.287C57.854 18.2 56.35 18.462 55.023 18.637L50.423 18.987C47.593 19.25 44.673 19.25 41.753 19.25C40.339 19.25 38.923 19.425 37.508 19.425C36.004 19.512 34.588 19.512 33.173 19.6C32.288 19.687 31.493 19.687 30.696 19.687C29.9 19.687 29.192 19.512 28.396 19.512C27.689 19.425 26.892 19.6 26.185 19.6C25.389 19.6 24.681 19.425 23.973 19.425C23.531 19.425 23.353 19.95 23.531 20.212C23.59 20.271 23.619 20.329 23.619 20.387C24.061 21 24.946 20.387 24.504 19.775ZM23 29.487C23.53 30.362 25.3 30.012 26.185 30.012C26.981 29.925 27.777 30.012 28.573 30.012C29.369 30.1 30.253 29.837 31.139 29.75C32.908 29.662 34.589 29.925 36.358 30.012C38.245 30.012 40.103 29.983 41.931 29.925C45.558 29.75 49.096 28.875 52.811 28.962C54.581 28.962 56.35 29.05 58.208 28.962C60.0654 28.7843 61.9231 28.6092 63.781 28.437C64.8151 28.3762 65.8474 28.2888 66.877 28.175C67.3464 28.1167 67.819 28.0873 68.292 28.087C68.735 28.087 69.177 28.262 69.531 28.262C69.619 28.262 70.327 28.35 69.354 28.087C69.177 28 68.734 28.087 68.469 28.087C68.027 28.087 67.585 28 67.142 27.912C66.258 27.737 65.196 27.737 64.312 27.737C63.604 27.737 63.692 28.787 64.4 28.787C65.373 28.875 66.346 28.875 67.32 29.05C67.939 29.137 68.823 29.312 69.442 29.137C70.327 28.962 71.477 27.825 70.239 27.3C68.911 26.775 67.054 27.037 65.727 27.212L59.711 27.737C57.765 27.912 55.819 28 53.873 27.912C51.927 27.825 49.981 28 48.035 28.175C43.965 28.525 39.985 29.137 35.915 28.875C33.881 28.787 31.758 28.525 29.723 28.875C28.75 29.05 27.689 28.875 26.715 28.875H25.123C24.946 28.875 23.973 29.05 23.885 28.875C23.531 28.262 22.646 28.875 23 29.487Z" fill="#272726"/>
<path d="M67.4078 18.4622C67.0538 18.5502 66.6119 18.6372 66.2579 18.7252C65.7269 18.8122 65.1079 18.8122 64.5769 18.8122C63.4269 18.9872 62.1889 18.9002 61.0389 18.9872C60.3309 19.0752 60.4188 20.1252 61.1268 20.1252C62.2768 20.0372 63.5149 20.0372 64.6649 19.9502C65.1959 19.8622 65.6378 19.8622 66.1688 19.8622C66.6118 19.7752 67.0539 19.6002 67.4959 19.6002C68.2039 19.5122 68.1158 18.4622 67.4078 18.4622Z" fill="#272726"/>
<path d="M0.972954 4.20016C0.972954 9.45016 0.795954 14.7882 0.972954 20.1252C1.14995 22.6632 1.32695 25.2002 1.50295 27.6502C1.59295 30.3632 1.50295 32.9872 1.50295 35.7002C1.50295 36.9252 1.50295 38.1502 1.59295 39.3752C1.76895 40.6882 1.94595 41.9132 1.94595 43.2252C2.03495 44.6252 2.03495 45.9382 3.62595 46.2002C4.59995 46.4632 5.74995 46.3752 6.72295 46.3752C8.07884 46.317 9.43582 46.288 10.793 46.2882C13.358 46.2882 15.923 46.1132 18.488 46.4632C19.727 46.6382 20.965 46.8132 22.204 46.8132C23.619 46.8132 25.034 46.6382 26.361 46.7252C27.689 46.7252 28.839 47.1632 30.165 47.2502C30.8405 47.3378 31.5245 47.3378 32.2 47.2502C33.35 47.2502 33.35 45.5002 32.2 45.5002C31.05 45.5002 31.05 47.2502 32.2 47.2502V45.5002C31.6415 45.5584 31.0784 45.5584 30.52 45.5002C29.546 45.5002 28.661 45.1502 27.688 45.0632C25.388 44.8002 23.177 45.1502 20.965 44.9752C19.815 44.8882 18.665 44.7132 17.515 44.6252C16.365 44.5382 15.127 44.5382 13.888 44.5382H6.72295C6.10542 44.5976 5.48534 44.6267 4.86495 44.6252C4.68795 44.6252 3.98095 44.6252 3.80395 44.4502C3.62695 44.1882 3.71495 43.2252 3.71495 42.8752C3.62695 40.6002 3.27295 38.3252 3.27295 36.0502C3.27295 33.5132 3.36195 30.8882 3.27295 28.3502C3.18495 25.9882 3.00795 23.5382 2.83095 21.1752C2.47695 15.4872 2.74195 9.80016 2.74195 4.20016C2.74195 3.06316 0.972954 3.06316 0.972954 4.20016Z" fill="black"/>
<path d="M33.527 47.8632V47.5132H31.757C31.757 49.1752 31.935 50.7502 31.581 52.3252C31.227 53.9002 30.696 55.3882 30.431 56.9632C30.254 58.4502 30.077 59.9382 29.811 61.5132C29.458 62.9132 29.104 64.4882 29.369 65.9752C29.369 66.5002 30.077 67.2002 30.696 66.7632C33.704 64.4882 36.092 61.6002 38.481 58.7132C41.223 55.5632 44.231 52.5002 47.239 49.5252C48.035 48.6502 46.796 47.4252 45.911 48.2122C42.992 51.1872 40.161 54.1622 37.419 57.3122C35.031 60.0252 32.731 63.0002 29.812 65.1882C30.224 65.4792 30.667 65.7422 31.139 65.9752C30.873 64.4002 31.227 63.0002 31.581 61.5132C31.935 59.9382 32.023 58.3632 32.288 56.7882C32.554 55.3002 33.085 53.8132 33.35 52.3252C33.704 50.7502 33.527 49.1762 33.527 47.5132C33.527 46.3762 31.757 46.3762 31.757 47.5132V47.8622C31.757 49.0002 33.527 49.0012 33.527 47.8632Z" fill="black"/>
<path d="M46.6198 49.2631C49.8918 49.2631 53.1648 48.8251 56.4388 48.6501C59.7118 48.3881 63.0728 48.3001 66.3458 48.1251C69.5308 47.9501 72.6258 47.6881 75.8108 47.1631C79.0848 46.7251 82.4458 46.8131 85.8078 46.8131C86.9578 46.8131 86.9578 45.0631 85.8078 45.0631C82.5348 45.0631 79.2608 44.9751 75.9878 45.4131C72.7148 45.8501 69.5308 46.2001 66.3458 46.3751C63.0728 46.5501 59.7108 46.6381 56.4378 46.9001C53.1648 47.0751 49.8918 47.5131 46.6188 47.5131C45.4688 47.5131 45.4698 49.2631 46.6198 49.2631Z" fill="black"/>
<path d="M84.9229 44.45V44.8H86.6929C86.6929 41.3 87.2229 37.887 87.3109 34.387C87.3999 30.887 87.3109 27.3 87.2229 23.8C87.1349 16.625 87.2229 9.45003 87.2229 2.36203C87.2229 1.22503 85.4529 1.22503 85.4529 2.36203V3.67503C85.4529 4.81203 87.2229 4.81203 87.2229 3.67503V2.36203C87.2229 1.22503 85.4529 1.22503 85.4529 2.36203C85.4529 9.45003 85.3649 16.625 85.4529 23.8C85.5429 27.3 85.6309 30.887 85.5429 34.387C85.4529 37.887 84.9229 41.3 84.9229 44.8C84.9229 45.937 86.6929 45.937 86.6929 44.8V44.45C86.6929 43.312 84.9229 43.312 84.9229 44.45Z" fill="black"/>
<path d="M1.85788 3.58712C7.25388 4.02512 12.6499 3.67512 18.0459 3.32512C23.5309 2.88712 28.9259 2.53812 34.3229 2.62512H76.6959C78.1119 2.62512 79.5259 2.62512 80.9419 2.53812C82.0919 2.53812 83.3309 2.27512 84.3919 2.62512C84.2677 2.1307 84.15 1.63465 84.0389 1.13712C83.9354 1.29427 83.8168 1.44097 83.6849 1.57512C82.9769 2.45012 84.2149 3.67512 84.9229 2.80012L85.2769 2.45012C85.7189 1.83712 85.5419 1.13712 84.9229 0.962117C83.9499 0.612117 82.8879 0.700118 81.9149 0.788118C80.7649 0.875118 79.5269 0.788118 78.3769 0.788118H70.0599C64.5169 0.788118 58.9729 0.817118 53.4299 0.875118C42.3719 0.875118 31.2259 0.525117 20.1679 1.40012C14.0639 1.83812 7.95988 2.36312 1.85688 1.83812C0.706885 1.75012 0.706885 3.50012 1.85688 3.58812L1.85788 3.58712ZM3.09589 46.2871C7.87288 47.1621 12.6499 46.9871 17.5159 46.9001C22.5579 46.7251 27.5999 46.8121 32.6419 46.8121C33.7919 46.8121 33.7919 45.0621 32.6419 45.0621C27.6879 45.0621 22.7349 44.9751 17.7809 45.1501C13.0919 45.2371 8.31488 45.5001 3.62688 44.5371C2.47688 44.3621 2.03389 46.0251 3.09589 46.2871Z" fill="black"/>
<path d="M34.0579 46.9001V46.6371H32.2879C32.2879 49.8751 31.581 53.0251 30.608 56.0871C30.077 57.7501 29.7229 59.3251 29.2809 60.9871C28.9269 62.6501 28.2189 64.1371 27.8649 65.8001C27.5999 66.9381 29.3689 67.3751 29.5459 66.3251C29.8999 64.5751 30.6079 63.0001 31.0499 61.2501L32.3769 56.2631C33.4379 53.1131 34.1479 49.9631 34.0579 46.6371C34.0579 45.5001 32.2879 45.5001 32.2879 46.6371V46.9001C32.2879 48.0371 34.0579 48.0371 34.0579 46.9001ZM84.3919 1.22508C84.4809 4.81208 85.0119 8.40008 85.1889 11.9871C85.4539 15.6621 85.5419 19.3371 85.4539 23.1001V42.3501C85.4539 43.0501 85.5419 43.8381 85.3649 44.5371C85.8369 44.4211 86.3389 44.3041 86.8689 44.1871C86.7334 44.0563 86.5854 43.939 86.4269 43.8371C85.5419 43.1371 84.304 44.3621 85.188 45.0621C85.306 45.1791 85.4539 45.2961 85.6309 45.4121C86.0729 45.7621 86.8689 45.6751 87.0459 44.9751C87.3999 43.9251 87.2229 42.7881 87.2229 41.6501C87.1349 40.1631 87.2229 38.6751 87.2229 37.1881V28.4381C87.3109 22.5751 87.3999 16.8001 86.9579 10.9381C86.6919 7.70008 86.2499 4.46208 86.2499 1.22508C86.1619 0.087082 84.3919 0.087082 84.3919 1.22508ZM0.529949 3.15008C0.529949 16.3621 0.619949 29.4871 0.529949 42.6121C0.529949 43.5751 0.0879487 44.8881 0.884949 45.5881C1.94595 46.3751 3.09595 45.5001 4.06895 45.3251C5.21895 45.0621 4.77695 43.3121 3.62695 43.5751C3.27295 43.6621 2.91895 43.8381 2.56495 44.0131C2.47695 44.0131 2.29995 44.1001 2.21195 44.1001L2.12295 44.1881C1.94595 44.1291 1.91695 44.1581 2.03495 44.2751C2.38795 44.1001 2.03495 44.5371 2.21195 44.2751V43.8371C2.27075 42.6713 2.30009 41.5043 2.29995 40.3371V3.15008C2.29995 2.01308 0.529949 2.01308 0.529949 3.15008ZM45.5579 48.7371H66.1689C69.5309 48.7371 72.8919 48.9121 76.2539 48.8251C77.7579 48.7371 79.1739 48.2121 80.6769 48.2121C81.3849 48.3001 82.0039 48.3871 82.7109 48.3001C83.4189 48.1251 84.0389 47.7751 84.8349 47.7751C85.9849 47.7751 85.9849 46.0251 84.8349 46.0251C84.0389 46.0251 83.5079 46.2871 82.7999 46.4621C82.0919 46.6371 81.3849 46.5501 80.6769 46.4621C79.1729 46.3751 77.8469 46.9871 76.4309 47.0751C74.7499 47.1621 72.9809 46.9871 71.2999 46.9871H45.5579C44.4079 46.9871 44.4079 48.7371 45.5579 48.7371Z" fill="black"/>
<path d="M32.2879 65.7131C34.6769 63.0881 36.2689 59.8501 38.5689 57.1381C39.8079 55.8251 41.1349 54.6001 42.4609 53.2881C43.6999 51.8881 45.2919 50.8381 46.3539 49.3501C47.0619 48.3881 45.4689 47.5131 44.8499 48.3881C44.3199 49.1751 43.6109 49.7001 42.9039 50.3131C42.2122 50.9098 41.5621 51.553 40.9579 52.2381C39.7189 53.5501 38.3039 54.7751 37.1539 56.0881C34.9419 58.7131 33.3499 61.8631 31.0499 64.4881C30.3419 65.2751 31.5799 66.5881 32.2889 65.7131H32.2879ZM2.38789 4.02509C5.04189 4.11309 7.69589 3.41309 10.3499 3.15009C13.0485 2.80101 15.7668 2.62565 18.4879 2.62509C24.1499 2.53809 29.7229 2.62509 35.3849 2.62509C40.9871 2.56679 46.5897 2.56679 52.1919 2.62509C54.9349 2.62509 57.6769 2.45009 60.4189 2.62509C61.5689 2.71309 62.7189 2.88809 63.8689 3.06309C65.2849 3.15009 66.6999 3.06309 68.1149 3.06309C71.1229 3.06309 74.1309 3.15009 77.2269 3.06309C79.4389 2.97509 82.1809 2.36309 84.2149 3.50009C84.3919 2.91709 84.5399 2.36309 84.6579 1.83809H83.8619C82.7119 1.83809 82.7119 3.58809 83.8619 3.58809H84.6579C85.5419 3.67509 85.8959 2.36309 85.0999 1.92509C83.1539 0.963086 80.8539 1.05009 78.7299 1.22509C76.2539 1.40009 73.6889 1.31309 71.2109 1.31309C68.5579 1.31309 65.9039 1.48809 63.2499 1.22509C62.0109 1.05009 60.7729 0.875087 59.4459 0.788087C57.9419 0.788087 56.4379 0.875086 54.9349 0.875086C43.6117 0.816935 32.2883 0.787935 20.9649 0.788087C17.8689 0.788087 14.7729 0.875087 11.6769 1.22509C8.58089 1.48809 5.48489 2.36309 2.38789 2.27509C1.23789 2.27509 1.23789 4.02509 2.38789 4.02509Z" fill="black"/>
</g>
</g>
<defs>
<clipPath id="clip0_184_864">
<rect width="92" height="70" fill="white"/>
</clipPath>
</defs>
</svg>
