<svg width="100" height="100" viewBox="0 0 100 100" fill="none" xmlns="http://www.w3.org/2000/svg">
<path d="M86.998 72.7811C87.004 68.6544 86.6052 64.5351 86.436 60.4122C85.8679 50.9418 86.1902 44.2752 80.461 35.7599C79.0469 33.6993 77.2922 31.8617 75.5618 30.0241C73.0256 27.2798 70.4712 24.4333 67.103 22.5233C65.9588 21.8748 64.7602 21.2895 63.5092 20.8306C63.5696 20.6801 63.6341 20.5296 63.6905 20.3772C64.2405 18.928 64.5285 16.9882 63.1607 15.8511C62.1333 15.1097 60.6607 15.5148 59.446 15.433C55.6306 15.6374 51.8212 15.5575 48.0159 15.2602C44.3394 15.1933 40.5784 14.6731 36.9403 15.3234C33.9004 15.9161 33.3424 18.7255 34.819 20.9458C34.9258 21.1483 35.0366 21.3508 35.1454 21.5534C32.0531 22.2817 28.3002 23.98 26.3683 25.1338C23.9449 26.4957 22.0694 28.4727 20.0932 30.3177C15.9897 33.729 14.0337 37.7182 13.25 42.7145C12.4402 46.5271 12.3757 50.4067 12.1642 54.2732C11.7049 59.0874 12.2831 64.3308 12.9861 69.1579C13.2057 70.8524 13.4636 72.5432 13.6811 74.2378C13.7959 75.1965 13.8443 76.2314 14.4869 77.0397C15.3713 78.253 17.0876 78.2938 18.5179 78.2214C20.6613 78.305 22.8027 78.2771 24.9461 78.2808C25.9332 78.3068 26.9203 78.2976 27.9053 78.2715C27.7684 79.3102 27.5709 80.3507 27.7281 81.3763C28.1652 83.2065 30.4174 83.5483 32.1136 83.827C35.9572 84.377 39.8371 84.8322 43.725 84.9679C50.129 85.1945 56.4948 84.141 62.8928 84.3231C65.1953 84.416 67.4938 84.6371 69.8024 84.6353C70.6606 84.7319 71.5107 84.4328 72.0647 83.8159C73.1243 82.5747 73.2734 81.0047 73.2311 79.4458C75.7955 79.4402 78.3619 79.195 80.9284 79.3325C82.8139 79.4402 85.1991 79.7468 86.3634 78.0281C87.3384 76.4841 86.8187 74.4979 87 72.7755L86.998 72.7811ZM46.7931 18.6233C50.951 18.4969 55.0685 19.2494 59.2143 19.4111C55.8965 23.8573 52.4779 28.2386 49.4824 32.8818C49.3011 32.5993 49.0976 32.3281 48.8942 32.068C48.0985 31.0516 47.1839 30.1152 46.2653 29.1954C43.2738 26.2337 40.3185 23.1643 38.4068 19.4835C41.1505 18.889 43.9889 18.7923 46.7911 18.6233H46.7931ZM23.5823 73.7287C21.7048 73.8494 19.7709 73.9814 17.9196 73.606C17.6778 68.3497 16.9264 63.6154 15.8326 58.3721C14.4889 50.9678 14.7327 42.7033 19.7205 36.4325C22.6294 33.3221 25.7861 30.2304 29.8493 28.4244C31.9826 27.5084 34.1945 26.7317 36.4225 26.0349C36.8033 25.8956 37.2364 25.851 37.6635 25.8008C38.1933 26.5886 38.7553 27.3579 39.3677 28.0973C41.6259 30.9884 44.5328 33.3834 46.8515 36.2225C44.5973 38.6379 42.3391 41.0478 40.4475 43.7252C37.7642 47.2257 35.1413 50.7709 32.9214 54.5427C32.4057 55.3583 31.9484 56.1183 31.4488 56.9525C31.2171 52.9615 30.6632 48.9853 29.6197 45.0407C29.386 44.1043 29.0919 43.1827 28.8542 42.2481C28.7353 41.3507 28.1289 40.273 27.0028 40.273C24.6943 40.5108 25.0287 43.2198 25.4517 44.7434C25.8989 46.6535 26.3844 48.5542 26.739 50.481C27.4682 53.6378 27.7623 56.828 27.8812 60.0313C27.8187 60.0833 27.7583 60.1409 27.7019 60.2041C26.9021 61.0755 26.8981 62.3798 27.5206 63.3293C27.6314 63.5151 27.7804 63.6674 27.9517 63.7938C27.9577 64.9885 27.9557 66.1832 27.9537 67.3779C27.9577 69.4125 28.0041 71.4489 28.0222 73.4834C26.5355 73.4815 25.0569 73.6135 23.5782 73.7305L23.5823 73.7287ZM58.7188 79.8657C53.6141 79.8973 48.5275 79.3213 43.4208 79.3826C41.4265 79.3864 39.4322 79.4291 37.4439 79.5684C35.1212 79.7227 32.7784 80.1519 30.4496 79.8806C30.9331 74.7264 31.4206 69.5481 31.5495 64.3791C32.1619 64.4014 32.7763 64.4106 33.3887 64.4199C36.8557 64.4125 40.3246 64.4014 43.7915 64.3475C42.4861 66.696 41.2875 69.4719 40.9974 70.6313C40.6973 71.8 41.2915 73.5261 42.7943 73.5689C44.0776 73.5354 44.4825 72.3036 44.8733 71.382C45.8161 69.4775 46.7427 67.5581 47.8285 65.7187C49.9357 68.4946 52.5222 70.9082 54.7865 73.5689C57.0347 75.5068 58.7691 71.813 57.1717 70.2393C56.0093 68.8978 54.8147 67.5823 53.5859 66.2928C52.9533 65.5942 52.349 64.8733 51.7749 64.1319C55.7494 63.9703 59.718 63.7139 63.6764 63.3014C64.4379 63.2308 65.1953 63.1416 65.9588 63.1063C66.1884 63.0896 66.3899 63.0264 66.5631 62.9317C66.539 63.6061 66.5188 64.2806 66.5088 64.9551C66.3839 67.9706 67.1373 70.9175 67.7336 73.8624C68.0659 75.7186 68.1989 77.5971 68.3762 79.4718C65.153 79.5722 61.9419 79.8992 58.7127 79.8639L58.7188 79.8657ZM82.3163 62.352C81.857 66.5195 82.552 70.6703 82.6246 74.8379C79.3168 74.9921 76.0231 74.5406 72.7174 74.4737C72.1815 71.9319 71.2226 69.4738 70.2778 67.0342C69.5405 64.641 69.333 62.1587 69.1497 59.6875C69.0571 56.8057 68.9241 53.8998 69.4902 51.0496C69.8266 49.3978 70.2476 47.7627 70.7351 46.1425C71.2146 44.7732 71.9821 42.7107 70.1489 41.9025C68.2452 41.3915 67.941 43.6936 67.6207 44.9106C66.8492 48.4242 66.6659 52.0195 66.7565 55.5943C66.7827 57.0194 66.7424 58.4427 66.688 59.8659C66.4886 59.7303 66.2469 59.6429 65.9628 59.6244C62.1676 59.9068 58.3642 59.7266 54.5649 59.6597C47.752 59.9681 40.933 59.708 34.116 59.6411C35.1293 58.4315 36.1889 57.2572 37.2102 56.0532C40.5683 52.3149 43.8016 48.4762 46.2451 44.1563C49.0211 39.9479 52.065 35.8732 55.4412 32.0549C57.4658 29.7547 59.5951 27.4415 61.3033 24.909C61.4887 24.9759 61.672 25.0446 61.8452 25.1226C63.5817 25.8138 65.2296 26.6722 66.7646 27.6904C72.0929 31.6425 76.561 36.5978 80.0239 42.027C84.6451 49.2621 82.9348 54.5891 82.3184 62.3501L82.3163 62.352Z" fill="black"/>
<path d="M38.7275 57.1873C39.072 57.9911 45.7199 53.9823 46.7048 53.0677C47.8036 52.0474 50.3894 49.9836 50.5149 48.3528C50.5717 47.6144 50.8917 46.8573 51.0507 46.1263C51.1473 45.6818 51.1851 45.2283 51.265 44.7808C51.308 44.5401 51.6636 43.9891 51.4317 44.0665C50.5064 44.3749 49.3625 46.5793 48.8003 47.3288C47.7648 48.7095 46.7158 50.1437 46.0143 51.7223C45.7106 52.4054 43.9113 53.7917 44.2759 53.1391C44.9964 51.8498 46.4435 50.9246 47.3954 49.8053C48.8155 48.1356 50.2898 46.4695 51.3602 44.5427C52.2422 42.9551 52.6947 41.6009 53.9915 40.304C55.9941 38.3015 57.4869 35.9721 59.0875 33.6603C59.886 32.5068 60.7002 31.4384 61.3973 30.1836C61.7247 29.5944 61.9718 28.9959 62.6356 29.6597C63.5597 30.5838 65.2625 30.7903 66.0408 31.791C66.8759 32.8647 67.8789 34.0458 68.8388 35.0057C70.0752 36.2421 71.4156 37.0481 72.4941 38.4347C73.3524 39.5383 74.0603 40.8469 74.6253 42.09C74.7572 42.3801 75.8199 45.0745 76.1851 44.7094C76.5473 44.3472 76.2327 42.6613 76.2327 43.1735C76.2327 44.0659 77.3104 44.8646 77.6853 45.6143C78.1269 46.4975 77.9734 47.7341 78.6973 48.6028C79.1777 49.1792 78.6294 50.5105 78.8521 51.2341C79.0569 51.8998 79.0188 52.54 79.0188 53.2344C79.0188 55.1599 79.4474 57.0645 79.4474 58.9971C79.4474 61.2513 79.4474 63.5056 79.4474 65.7599C79.4474 67.4399 79.0188 69.0749 79.0188 70.6892C79.0188 70.9552 78.9614 71.2969 79.0664 71.5464C79.1904 71.841 79.8262 72.304 79.5188 72.3918C78.7829 72.602 77.3554 72.5454 76.6613 72.237C76.0329 71.9577 75.254 72.1132 74.6372 71.7607C74.3017 71.569 74.121 68.7977 74.0419 68.3317C73.4246 64.6962 73.6609 60.9152 73.6609 57.2349C73.6609 55.0159 73.7775 52.7592 73.6609 50.5435C73.6245 49.8525 73.2492 49.1317 73.018 48.4956C72.7374 47.7241 72.664 46.9575 72.375 46.2096C71.1247 42.9736 68.9649 40.0882 65.6598 38.6371C65.26 38.4616 65.2059 38.2235 64.8264 38.5895C63.8348 39.5456 62.812 40.5134 61.8974 41.5423C61.2278 42.2956 60.2689 43.5473 59.9924 44.5427C59.8763 44.9605 59.9328 45.1649 59.7304 45.519C58.9173 46.9421 58.174 48.1655 56.9919 49.3053C55.7561 50.497 54.4788 51.6068 53.3248 52.8891C52.7131 53.5687 52.3806 54.222 51.5864 54.6631C51.3596 54.7891 50.6752 55.058 50.5625 55.2585C50.3711 55.5988 53.0861 55.3842 53.3129 55.3537C55.4885 55.0608 57.9544 54.7652 60.159 55.0918C60.9362 55.2069 63.6284 56.0352 64.3263 55.4371C64.9684 54.8867 63.2843 50.011 63.1118 49.091C62.9144 48.0379 62.9451 47.0061 62.9451 45.9358C62.9451 45.4735 62.6355 46.2661 62.3855 46.4834C61.2292 47.4889 60.2916 48.4014 58.9684 49.21C57.6658 50.0061 56.1083 50.5359 54.9202 51.5079C54.5333 51.8246 54.1565 51.9207 53.7415 52.1628C53.3831 52.3719 53.1883 52.8636 52.8247 53.1153C52.2667 53.5016 50.1397 55.1464 51.8484 53.7225C53.6464 52.2242 55.6075 50.9048 57.4682 49.4839C59.1502 48.1994 60.739 46.7093 62.5165 45.5667C63.8342 44.7196 64.7334 43.9054 65.636 42.7448C66.4783 41.6618 63.8351 43.4603 63.2785 43.6854C61.9079 44.2399 60.4701 44.6867 59.1232 45.2928C58.5161 45.566 58.8779 45.4024 58.4445 45.1857" stroke="#C05F65" stroke-opacity="0.3" stroke-width="8" stroke-linecap="round"/>
<path d="M41.0849 37.4702C40.9796 36.5222 39.4132 35.5842 38.7751 34.9461C37.9988 34.1698 37.1434 33.5288 36.37 32.7553C35.8315 32.2168 35.2673 31.9549 34.9174 31.2551C34.7162 30.8527 33.8103 29.417 34.7626 30.0764C35.807 30.7994 36.9834 31.416 37.9654 32.2195C38.5931 32.733 39.0965 33.553 39.68 34.1364C40.2554 34.7119 40.8309 35.2874 41.4064 35.8629C41.6542 36.1107 41.8917 36.3835 42.1565 36.613C42.706 37.0892 41.3475 35.3997 40.8706 34.8508C38.7692 32.4323 36.9372 31.3771 34.1078 30.0168C32.5264 29.2566 30.5547 29.2273 29.2976 30.6241C28.5045 31.5052 28.0545 32.4446 27.5831 33.5054C27.3853 33.9503 27.1502 34.4243 26.7258 34.6365C26.2403 34.8793 25.8313 35.5557 25.4399 35.97C24.9855 36.4512 25.5392 36.362 25.9162 36.2796C27.3202 35.9725 28.6787 35.5057 30.1072 35.3271C31.3744 35.1687 31.6728 35.3489 32.6314 36.4225C33.8886 37.8305 34.5864 39.5568 35.727 40.9826C35.8238 41.1035 36.596 39.1986 36.3581 41.1017C36.2995 41.5701 35.8259 42.0679 35.5127 42.3995C34.5355 43.4342 34.6127 45.0587 34.1197 46.3405C33.9924 46.6714 33.5839 48.7309 33.5839 47.5907C33.5839 44.4172 33.4063 41.2479 32.8933 38.1132C32.6637 36.7101 31.7329 35.3271 30.1549 35.3271C29.3155 35.3271 28.4694 35.2948 27.6307 35.3271C26.9996 35.3514 26.5109 35.9465 25.9757 36.1843C24.4809 36.8487 23.6928 38.8068 22.8681 40.0896C21.3623 42.432 20.9532 45.5029 20.6178 48.186C20.2118 51.434 20.5107 54.889 20.5107 58.1635C20.5107 61.82 21.6628 65.3157 21.7966 68.9269C21.8156 69.4408 22.0421 70.5221 22.2728 69.5222C23.2405 65.3291 23.4335 60.9181 23.773 56.6395C23.9558 54.3359 24.292 51.9693 24.6303 49.6862C24.7681 48.7558 24.797 46.2831 24.797 48.6622C24.797 52.3024 24.7635 55.9062 25.1065 59.5328C25.2723 61.2856 25.2256 63.0489 25.2256 64.8073C25.2256 65.0039 25.2548 66.6213 25.1065 66.3671C22.4245 61.7694 21.9929 56.0559 19.6058 51.2817C18.5061 49.0823 17.573 48.1954 18.1651 45.5309C18.535 43.8665 19.7202 41.7116 20.8917 40.423C22.7758 38.3505 25.7679 37.5249 28.0593 35.97C31.0629 33.9319 34.1132 31.9768 37.2034 30.0883C39.1853 28.8771 39.8384 33.3725 40.2753 34.7318C40.5906 35.7127 40.6522 36.5527 41.3945 37.2559C42.0867 37.9117 43.4122 38.3577 42.5613 39.2086C40.9102 40.8597 38.2125 41.7792 36.8939 43.6973C35.9307 45.0982 35.2394 46.6725 34.6674 48.2812C34.209 49.5703 33.6839 49.9078 32.9409 50.9245C32.7458 51.1915 31.8694 52.3788 31.8694 51.9484C31.8694 49.4293 31.2099 46.9687 31.024 44.4593C30.9709 43.7425 31.1987 42.7848 31.0002 42.0899C30.8145 41.4401 30.3781 40.7119 30.1549 40.042" stroke="#C05F65" stroke-opacity="0.3" stroke-width="8" stroke-linecap="round"/>
<path d="M37.4416 66.8315C37.4416 68.4368 37.2273 70.083 37.2273 71.6417C37.2273 72.5879 37.013 71.8294 37.013 71.2845C37.013 70.1484 37.2731 68.7329 36.751 67.6888C36.3081 66.8029 36.0223 66.0106 35.9533 67.7364C35.8674 69.8844 35.9518 71.9885 35.7152 74.1183C35.7013 74.243 35.3516 75.2411 35.7747 74.8326C36.873 73.7722 37.8514 72.5187 38.8228 71.3441C39.6241 70.3751 40.2989 69.3437 41.0373 68.3318C41.226 68.0733 41.6456 67.684 41.716 67.3673C41.7685 67.1309 42.3155 65.8546 41.9422 66.1886C39.7422 68.157 38.2638 70.623 36.37 72.8324C35.2701 74.1156 34.6555 76.398 34.6555 78.0831C34.6555 79.3581 38.6587 79.0608 39.3705 79.0475C41.6825 79.0043 43.6127 77.7131 45.7999 77.1663C46.1365 77.0822 47.2237 77.3142 47.4668 77.071C48.3054 76.2324 47.7287 72.8771 47.7287 71.8084C47.7287 71.5267 47.6262 68.3556 47.193 68.3556C46.9609 68.3556 47.1087 69.5024 47.1334 69.6176C47.4142 70.9277 48.6107 72.1902 49.5742 73.0467C51.1814 74.4753 52.8653 75.9942 54.5868 77.2854C55.6091 78.0521 56.81 78.207 57.9682 78.6189C60.7559 79.61 63.719 79.1839 64.5525 76.0352C64.9591 74.4992 65.4095 72.829 65.2907 71.225C65.1636 69.5096 63.4751 68.5194 62.3141 67.4745C61.9677 67.1628 61.2612 65.5222 60.9687 65.9743C60.4453 66.7832 59.38 66.6934 58.6112 66.4029C57.6881 66.0542 56.7621 65.5457 55.7656 65.5457C54.5656 65.5457 57.7716 69.0196 58.0159 69.2843C58.858 70.1965 59.8894 70.9434 60.7543 71.8084C61.1403 72.1943 61.5223 74.023 62.0879 74.023C62.1539 74.023 63.6471 66.0038 62.7308 65.5457" stroke="#C05F65" stroke-opacity="0.3" stroke-width="8" stroke-linecap="round"/>
<path d="M39.5847 20.1108C43.5853 20.1108 47.5858 20.1108 51.5864 20.1108C52.0224 20.1108 53.977 19.8107 54.3248 20.1584C54.4369 20.2705 49.2911 21.4082 48.8003 21.8253C48.1286 22.3963 47.8694 23.2987 47.3001 23.9685C47.0295 24.2868 46.9701 24.7767 46.7643 25.1472C46.2989 25.9849 47.1434 25.6088 47.8001 25.4687C49.2987 25.149 49.5344 24.7812 49.1813 26.326C49.0226 27.0201 48.8003 27.9877 48.8003 28.6834" stroke="#C05F65" stroke-opacity="0.3" stroke-width="8" stroke-linecap="round"/>
</svg>
