<svg width="100" height="100" viewBox="0 0 100 100" fill="none" xmlns="http://www.w3.org/2000/svg">
<mask id="mask0_184_865" style="mask-type:luminance" maskUnits="userSpaceOnUse" x="10" y="13" width="80" height="75">
<path d="M10 13H90V87.203H10V13Z" fill="white"/>
</mask>
<g mask="url(#mask0_184_865)">
<g style="mix-blend-mode:multiply">
<path d="M58.2888 15.1116L58.7966 15.1223L58.8035 15.1233C65.1616 15.237 71.6524 17.7325 77.4802 23.2161V23.217C84.7782 30.1831 88.2405 40.0637 88.7625 49.76L88.8044 50.6985C89.1461 61.1257 84.5131 68.879 77.113 73.8313C69.6935 78.7966 59.4667 80.9589 48.6511 80.0959H48.6521C43.3655 79.636 38.1221 78.3756 33.8103 75.6555H33.8113C29.3144 72.6932 26.1794 68.1245 24.3259 63.2708L24.1511 62.8C20.0114 51.4164 19.9359 38.6596 28.9128 29.2288L28.9119 29.2278C36.9549 20.8443 47.6306 14.9669 58.2888 15.1116Z" fill="#D3B8B9" stroke="#CBB1B2"/>
<path d="M58.8119 14.623C47.7969 14.275 36.7819 20.304 28.5509 28.884C19.3909 38.507 19.5069 51.493 23.6809 62.971C25.5359 68.073 28.7829 72.942 33.5359 76.073C37.9419 78.855 43.2759 80.13 48.6089 80.594C70.4059 82.334 89.9999 71.9 89.3039 50.681C88.9569 40.594 85.4779 30.159 77.8259 22.855C71.9129 17.29 65.3039 14.739 58.8119 14.623Z" fill="#D3B8B9" stroke="#CBB1B2" stroke-width="0.8" stroke-miterlimit="10"/>
</g>
<path d="M41.3041 19.029C47.7971 17.289 54.9851 17.638 61.1301 20.304C64.2105 21.5528 67.0095 23.4059 69.3621 25.754C71.6821 28.304 73.0721 31.203 74.4641 34.217C77.1301 40.014 79.9131 46.391 79.7971 52.768C79.7971 55.783 78.9861 58.681 77.0151 61C74.5801 63.667 70.9851 65.638 67.3911 64.826C63.3331 64.015 60.0871 60.652 58.1161 57.174C56.3761 54.275 54.1741 49.29 57.6521 46.855C58.8121 45.928 57.6521 43.957 56.4921 44.884C53.0151 47.319 53.1301 51.377 54.5221 54.971C56.0291 58.797 58.4641 62.275 61.8261 64.711C65.0731 67.145 69.3621 68.072 73.1881 66.449C76.6671 64.942 79.5651 62.159 80.9571 58.681C83.7391 51.957 81.0731 44.072 78.4061 37.811C77.0141 34.333 75.7391 30.739 73.6521 27.725C71.6485 24.5606 68.9022 21.9334 65.6521 20.072C58.3481 15.551 48.9561 14.623 40.7251 16.826C39.3331 17.174 39.9121 19.376 41.3041 19.029ZM15.1011 48.478C17.7681 39.087 21.9421 29.812 29.7111 23.667C30.8701 22.739 29.2461 21.116 28.0871 22.044C20.0871 28.42 15.6811 38.16 13.0151 47.783C12.5511 49.29 14.7541 49.87 15.1011 48.478ZM19.7401 73.754C25.5361 80.478 34.1161 84.072 42.5801 86.044C50.2321 87.783 58.3481 86.275 64.7251 81.754C68.3191 79.319 71.3331 75.957 73.1881 72.014C72.4829 71.8567 71.7863 71.6631 71.1011 71.434C71.1011 71.899 70.9861 72.362 71.1011 72.826C71.1011 72.942 70.9861 73.174 70.9861 73.174C71.1011 73.406 72.8411 72.942 72.7251 73.174C72.7251 73.058 72.7251 72.594 73.0731 72.246C72.3977 72.0228 71.739 71.7517 71.1021 71.435C70.6381 75.725 67.1591 79.203 63.3331 80.595C61.5941 81.174 59.9711 81.985 58.2321 82.565C56.5371 83.1816 54.791 83.6474 53.0141 83.957C45.9421 85.464 38.1741 85.347 31.6811 81.87C27.978 79.9062 24.9489 76.8771 22.9851 73.174C22.2901 71.898 20.3191 73.058 21.0151 74.334C25.0731 81.754 32.2611 85.927 40.4931 86.855C44.5511 87.435 48.7251 87.087 52.7831 86.391C54.7421 85.9977 56.6775 85.4946 58.5801 84.884C60.4351 84.304 62.2901 83.377 64.1451 82.681C68.8991 80.942 72.8411 76.652 73.3051 71.435C73.4201 70.507 72.0291 69.927 71.4491 70.623C70.5221 71.551 69.8261 73.522 70.9861 74.565C71.5661 75.145 72.4931 75.029 72.9561 74.333C73.4201 73.522 73.4211 72.363 73.3051 71.435C73.3051 70.391 71.7971 69.812 71.2171 70.855C68.0871 77.464 61.9421 82.101 54.8701 83.725C47.3331 85.58 39.2171 83.493 32.2601 80.246C28.2031 78.276 24.3771 75.609 21.3621 72.13C20.4351 71.087 18.8131 72.71 19.7401 73.754Z" fill="black"/>
<path d="M28.5499 65.2901C32.0289 71.0871 39.6809 71.7831 45.5939 69.5801C52.8979 67.0301 56.6089 60.1881 57.6519 52.8841C58.2319 49.4061 58.5799 45.0001 56.2609 42.1021C55.6809 41.5221 54.5209 41.8701 54.2899 42.6821C53.5939 45.5801 53.7099 48.7101 54.0579 51.7251C54.4059 54.5071 55.1019 57.6381 56.6079 60.0731C58.1159 62.5071 60.5509 64.4781 62.9859 65.8701C65.3039 67.1451 67.8559 67.8401 70.4059 67.2611C79.2169 65.4061 79.2169 53.1161 78.4059 46.2761C77.8259 41.9861 76.7829 38.0441 74.9269 34.1021C72.0289 27.9571 67.9709 22.3921 61.4779 19.6091C55.3329 17.0591 48.1449 16.3621 41.7679 18.2171C35.2749 20.0731 29.5939 24.0151 24.7249 28.6521C20.0869 33.1741 15.4489 38.3921 13.1299 44.5361C10.6959 50.7971 10.9269 57.9861 13.5939 64.1301C14.4059 65.7541 15.2169 67.2611 16.2609 68.7681C17.0729 69.9281 19.0439 68.8841 18.2309 67.6081C14.5209 62.1591 12.8989 56.1311 14.0579 49.6381C15.2179 43.4931 18.8119 38.5081 22.7539 33.9861C26.8119 29.3481 31.5649 25.2901 37.1299 22.5071C42.6959 19.6091 48.7249 18.7971 54.8699 19.9571C57.8839 20.6521 60.8989 21.5801 63.5649 23.2031C66.2319 24.9431 68.3189 27.2611 70.0579 29.9281C72.4929 33.7541 74.4639 38.0441 75.5079 42.5651C76.3179 46.2751 76.6669 50.2181 76.4349 54.1601C76.2029 57.5221 75.3909 61.3481 72.7249 63.6671C69.1299 66.7971 64.3769 64.4781 61.2459 61.9271C59.2759 60.1881 57.9999 58.2171 57.3039 55.7831C56.3769 53.0001 56.0289 49.9861 56.0289 47.0871C56.0289 45.8121 56.1449 44.5371 56.4929 43.2611L54.6379 43.725C56.2609 45.812 55.9129 49.4051 55.5649 51.8411C55.2169 54.9711 54.4049 57.9861 52.7829 60.6521C49.7679 65.9861 44.0869 68.8841 37.9419 68.4201C34.9279 68.1891 32.1449 66.7971 30.4059 64.1301C29.7099 62.8551 27.7389 64.0151 28.5509 65.2901H28.5499Z" fill="black"/>
<path d="M53.1299 41.7539C44.2029 39.6669 33.4199 43.7239 29.0139 51.9569C27.7276 54.3026 27.0503 56.9336 27.0439 59.6089C27.0439 61.1159 29.3619 61.1159 29.3619 59.6089C29.3619 48.3619 42.3479 41.5219 52.5509 43.9559C53.9419 44.3039 54.5199 42.1009 53.1299 41.7539Z" fill="black"/>
<path d="M57.42 42.5648C55.913 42.3328 54.522 41.7538 53.014 41.2898C51.391 40.8258 49.768 40.4778 48.144 40.0138C46.986 39.5508 45.942 39.0868 44.667 39.2028C43.275 39.3188 41.768 39.7828 40.609 40.3628C38.289 41.5218 35.971 43.2608 34.116 45.1158C33.188 46.0428 32.416 47.0858 31.797 48.2458C31.449 48.8258 31.217 49.4058 30.87 49.8688C30.406 50.5648 29.942 51.1448 29.594 51.8398C28.667 54.1598 28.087 56.5938 27.971 59.0288C27.855 60.1888 27.971 61.3478 28.435 62.3908C28.899 63.6668 29.826 64.5938 30.87 65.6378C31.797 66.5648 32.84 67.8408 34 68.6518C34.928 69.2318 35.971 69.6958 37.13 69.9268C39.45 70.3908 42.116 70.6228 44.55 70.1588C47.333 69.4638 50 67.1448 52.087 65.1738C53.014 64.2458 53.827 63.2028 54.637 62.0438C55.333 61.2318 56.145 60.0718 56.029 58.9128C55.913 57.5218 53.594 57.5218 53.826 58.9128C53.826 59.7248 53.13 60.4198 52.666 60.9998C52.0388 61.8675 51.3411 62.6819 50.58 63.4348C48.957 65.0578 46.87 66.9128 44.667 67.7248C42.812 68.4198 40.493 68.1878 38.522 67.8408C37.594 67.7248 36.667 67.4928 35.739 67.0288C34.696 66.4488 33.884 65.5218 33.073 64.5938C32.261 63.7828 31.102 62.9708 30.638 61.9278C30.174 60.9998 30.174 59.8408 30.29 58.7968C30.406 56.7098 30.87 54.3908 31.797 52.5368C32.377 51.4928 33.072 50.6808 33.537 49.7538C34.116 48.5938 34.812 47.5508 35.739 46.7388C37.362 45.1158 39.217 43.7248 41.189 42.5648C42.348 41.9848 43.739 41.4048 45.014 41.4048C46.29 41.4048 47.681 42.2168 48.956 42.5648C50.348 43.0288 51.856 43.2608 53.246 43.7248C54.638 44.1878 56.029 44.6518 57.42 44.8838C58.928 44.9998 58.928 42.7968 57.42 42.5648ZM77.942 61.5798C78.87 59.7248 80.145 57.9858 80.492 55.8988C80.725 54.6228 80.609 53.2318 80.609 51.9568C80.609 50.6808 80.377 49.4058 80.145 48.0138C79.797 46.6238 77.595 47.2028 77.942 48.7098C78.174 49.7538 78.29 50.7968 78.29 51.9568C78.29 53.1158 78.406 54.2748 78.29 55.4348C78.058 57.2898 76.783 58.7968 75.971 60.4198C75.275 61.8118 77.246 62.9708 77.942 61.5798ZM15.45 59.7248C14.986 58.6808 14.522 57.7538 13.71 56.9418C13.13 56.4778 11.971 56.5938 11.855 57.4058C11.391 59.6088 10.927 62.3908 12.435 64.2458C12.899 64.9418 14.29 65.0578 14.522 64.0148C14.87 61.8118 14.406 59.7248 13.246 57.9848C12.666 57.1738 11.739 57.1738 11.276 57.9848C10.348 59.3768 10.812 61.1158 11.391 62.6228C12.087 64.2458 12.667 65.8698 13.594 67.3768C14.522 68.7678 15.681 70.1588 16.841 71.4348C17.884 72.5948 19.159 73.9848 20.783 74.4488C22.173 74.7968 22.753 72.5938 21.363 72.2458C20.203 71.8988 19.275 70.7388 18.463 69.8118C17.536 68.7678 16.493 67.6088 15.681 66.3338C14.87 65.1738 14.29 63.7828 13.826 62.3908C13.478 61.5798 12.666 59.9568 13.246 59.0288H11.276C12.087 60.4198 12.551 61.8118 12.319 63.3188L14.406 63.0868C13.246 61.6958 13.594 59.7248 13.942 58.1018L12.087 58.5648C12.783 59.1448 13.13 60.0728 13.478 60.8848C14.174 62.1598 16.146 60.9998 15.45 59.7248Z" fill="black"/>
<path d="M15.3329 57.2901C14.5219 56.2461 13.7099 55.3191 12.8989 54.3911C12.5509 54.0441 11.9709 53.9281 11.6229 54.1601C11.1589 54.2751 10.9279 54.6231 10.9279 55.2031C10.8119 56.1301 10.9279 57.1741 11.1589 58.2171C11.3909 59.4541 11.6999 60.691 12.0869 61.927C12.8989 64.014 14.0578 66.7971 16.2608 67.6091C17.6518 68.0731 18.2308 65.869 16.8408 65.406C17.0728 65.522 16.7248 65.29 16.8408 65.406L16.6088 65.1741C16.3768 65.0581 16.7249 65.2901 16.4929 65.1741L16.2608 64.9421C15.9128 64.5941 15.7968 64.478 15.5648 63.899C14.9848 62.971 14.5219 62.0441 14.1739 61.0001C13.7938 59.869 13.5219 58.7045 13.3619 57.5221C13.2459 56.9421 13.0139 56.0141 13.1299 55.2021L11.2749 55.899C11.9708 56.826 12.7829 57.6381 13.3619 58.4491C13.7099 59.0291 14.4058 59.261 14.9848 58.913C15.4488 58.565 15.6809 57.8701 15.3329 57.2901Z" fill="black"/>
<path d="M14.4058 64.826C15.9128 69.928 17.5358 76.768 22.7538 79.319C23.4488 79.667 24.4928 79.319 24.4928 78.391C24.3768 76.536 22.9848 74.797 21.9418 73.406C20.8978 72.13 19.3918 70.276 17.7678 69.927C16.7248 69.696 15.9128 70.739 16.4928 71.551C18.8118 75.493 22.1728 78.739 25.9998 81.058C27.0438 81.753 28.3188 80.246 27.3908 79.318C24.8408 76.884 22.2898 74.681 19.8548 72.246C18.8118 71.203 17.6518 70.159 17.0728 68.884C16.4928 67.841 16.0288 66.681 14.8698 66.101C13.8258 65.754 12.7828 66.681 13.2458 67.725C14.8642 70.848 16.8493 73.767 19.1588 76.42C21.4788 78.97 24.2608 81.29 27.5068 82.45C28.3188 82.797 29.2468 81.87 28.8978 81.058C27.8548 77.58 24.7248 75.493 22.6378 72.826C22.2898 72.246 21.5938 72.014 21.0148 72.362C20.5508 72.594 20.3188 73.406 20.6668 73.87C21.7098 75.26 22.8698 76.42 24.0288 77.696C25.0728 78.855 26.2318 80.13 26.8118 81.638L28.2018 80.246C25.1878 79.203 22.6378 76.884 20.5508 74.566C18.4638 72.13 16.6088 69.464 15.2168 66.566C14.7539 67.1059 14.25 67.6093 13.7098 68.072C14.6378 68.536 14.8698 69.812 15.3328 70.623C16.1448 71.898 17.3038 72.942 18.4628 73.985C20.7828 76.42 23.3328 78.623 25.7678 80.942C26.2318 80.324 26.6958 79.744 27.1588 79.202C23.5676 77.002 20.5482 73.983 18.3478 70.392C17.9669 71.0024 17.5407 71.5833 17.0728 72.13C17.4198 72.13 17.9998 72.594 18.4628 72.942C19.0632 73.5409 19.6435 74.1595 20.2028 74.797C20.7538 75.4303 21.2213 76.1317 21.5938 76.884C21.7488 77.116 21.9038 77.386 22.0578 77.696C22.0578 77.85 22.0968 78.005 22.1738 78.159C22.2898 78.391 22.1738 78.275 22.1738 78.391C22.7799 78.0893 23.3614 77.7406 23.9128 77.348C21.5938 76.188 20.2028 73.87 19.1588 71.551C17.9998 69.231 17.3038 66.681 16.6088 64.246C16.2608 62.739 14.0578 63.435 14.4058 64.826ZM32.4928 20.536C31.4488 21.58 30.6378 22.855 29.9418 24.13C29.4778 25.058 30.5218 26.333 31.5648 25.754C32.9558 24.71 34.5798 23.898 35.2748 22.159C35.6228 21.348 34.5798 20.536 33.8848 20.769C29.8258 22.275 27.3908 25.522 24.0288 27.957C24.5698 28.42 25.0728 28.923 25.5358 29.464C25.919 28.9259 26.3891 28.4555 26.9268 28.072L25.3038 26.449C23.3338 28.42 20.7828 29.579 19.5068 32.014C18.9268 33.058 19.9708 34.101 21.0148 33.522C22.1738 32.942 23.3328 31.899 24.3768 30.971C25.5368 30.044 26.9268 29 27.8548 27.725C29.1298 26.101 27.3908 24.942 25.7678 25.522C24.0288 26.217 22.6378 27.725 21.2458 28.884C20.4348 29.696 19.6228 30.507 18.9268 31.434C18.1158 32.594 17.5368 33.986 17.0728 35.377C16.6088 36.42 17.8838 37.116 18.6958 36.652C20.2028 35.956 20.8978 34.333 21.9418 33.174C23.2168 31.551 24.9558 30.507 26.3478 29.116C27.3908 28.072 25.8838 26.566 24.7248 27.493C22.6378 29.232 20.2028 30.623 18.4638 32.826C16.7238 35.145 16.0288 37.928 14.7538 40.478C15.4488 40.71 16.1438 40.981 16.8408 41.29C18.5798 36.304 22.6378 32.478 25.7678 28.304C26.5798 27.261 24.8408 26.101 24.0288 26.913C19.5068 30.739 15.5648 35.493 14.2888 41.406C13.9418 42.797 16.1448 43.376 16.4928 41.986C17.3038 38.971 18.9268 36.304 19.9708 33.406C20.3188 32.478 19.0438 31.551 18.3478 32.13C13.0148 35.725 13.2458 42.565 11.2748 48.014C11.9708 48.246 12.7048 48.44 13.4778 48.594C13.9418 45.58 14.9858 42.797 16.4928 40.13C17.0728 39.203 15.9128 37.812 14.9858 38.507C14.4058 39.087 13.3618 39.551 13.1298 40.362C12.8978 41.174 13.3618 41.87 14.1738 41.985C15.4488 42.101 16.4928 40.71 16.7238 39.551C16.8408 38.391 15.4488 38.159 14.7538 38.739C11.3908 41.406 12.2028 46.391 12.3188 50.101C12.4348 51.493 14.6378 51.493 14.6378 50.101C14.4058 46.971 13.5938 42.565 16.3768 40.362C15.7281 40.072 15.0708 39.8016 14.4058 39.551C14.4058 39.319 14.2898 39.551 14.1738 39.667C13.8258 40.247 13.5938 38.507 14.9858 40.014C15.1398 40.324 15.2558 40.594 15.3328 40.826C15.3328 41.29 14.9848 41.29 15.4488 41.058C15.6808 40.942 15.9128 40.594 16.1448 40.478C15.5848 39.9966 15.0434 39.4939 14.5218 38.971C13.0138 41.754 11.8548 44.767 11.2748 48.014C11.0428 49.521 12.8978 49.984 13.4778 48.594C15.1008 43.955 14.8698 37.115 19.3908 34.101C18.8689 33.6523 18.3274 33.2269 17.7678 32.826C16.7248 35.725 15.1008 38.391 14.2898 41.406C14.9858 41.638 15.7198 41.831 16.4928 41.986C17.6528 36.42 21.3628 32.13 25.5358 28.536C24.9714 28.0535 24.3915 27.5896 23.7968 27.145C20.4348 31.551 16.4928 35.493 14.6368 40.71C14.1738 41.87 16.1448 42.681 16.7248 41.522C17.8848 39.087 18.5798 36.42 20.3188 34.217C21.9418 32.13 24.2608 30.739 26.3478 29.116L24.7248 27.493C23.3328 28.768 21.8258 29.812 20.5508 31.203C19.6228 32.363 18.9278 34.101 17.5358 34.797C18.0768 35.184 18.6178 35.609 19.1588 36.072C19.6228 34.797 20.2028 33.522 21.0148 32.362C21.5948 31.667 22.2898 31.087 22.9848 30.507C23.6808 29.812 24.3768 29.116 25.0728 28.537C25.5358 28.304 25.8838 28.072 26.2318 27.841C26.9268 27.493 26.8118 27.841 26.4638 27.029C26.1158 26.217 26.3478 26.101 25.9998 26.449C25.7678 26.759 25.5358 27.029 25.3038 27.261C24.6274 27.8633 23.9313 28.4433 23.2168 29C22.1738 29.927 21.1298 30.971 19.8548 31.667C20.3958 32.13 20.8978 32.633 21.3618 33.174C22.6378 30.971 25.1868 29.812 26.9268 28.072C27.9698 27.029 26.3478 25.522 25.3038 26.449C24.6088 27.029 24.1438 27.609 23.5648 28.304C22.9848 29.232 24.2608 30.507 25.1878 29.927C28.3178 27.609 30.7538 24.362 34.4638 22.971L33.0718 21.58C32.6088 22.507 31.2168 23.203 30.4058 23.783C30.9458 24.246 31.4488 24.749 31.9128 25.29C32.6088 24.13 33.1878 22.971 34.1158 22.044C35.1588 21.116 33.6518 19.493 32.4928 20.536Z" fill="black"/>
<path d="M29.478 24.1299C30.522 24.1299 31.449 24.0139 32.377 23.5499C33.42 22.9699 34.696 22.5069 35.739 21.8109C36.783 21.2309 37.362 20.9999 38.406 20.8839C39.217 20.7679 40.145 20.6519 40.725 20.0719C41.305 19.4919 41.072 18.4489 40.261 18.2169C38.058 17.5219 35.739 18.2169 33.768 19.1449C32.841 19.7249 31.798 20.3049 30.87 20.9999C30.406 21.3479 29.362 22.9699 28.55 22.8549C28.937 23.0869 29.285 23.2799 29.594 23.4349C29.594 23.4349 29.594 24.3619 29.478 24.2459C29.594 24.2459 29.71 24.1299 29.71 24.1299C29.826 24.0139 30.058 23.8979 30.174 23.7819C30.638 23.4729 31.14 23.1639 31.681 22.8549C32.7149 22.222 33.8012 21.679 34.928 21.2319C36.087 20.6519 37.362 20.6519 38.87 20.3039C39.913 20.0719 41.536 20.0719 42.116 19.0289C42.2204 18.8835 42.2888 18.7154 42.3156 18.5384C42.3424 18.3614 42.3269 18.1806 42.2703 18.0108C42.2137 17.841 42.1176 17.687 41.99 17.5615C41.8623 17.436 41.7067 17.3426 41.536 17.2889C40.261 16.9419 38.986 17.2889 37.826 17.7529C36.551 18.3329 35.276 18.7969 34 19.4929C32.609 20.1879 31.333 20.8829 30.058 21.8119C28.551 22.8549 26.928 23.4349 25.304 24.3619C25.768 24.9029 26.232 25.4829 26.696 26.1019C28.1727 24.846 29.8105 23.793 31.566 22.9709L30.174 21.1159C26.927 24.2459 22.985 26.5659 20.203 30.2759C17.653 33.5219 15.101 36.9999 13.826 40.9419C13.478 41.9849 13.014 42.9119 12.899 43.9559C12.667 44.9999 12.667 46.0429 12.783 47.0859V54.5069C12.783 56.5939 12.551 58.7969 13.015 60.8839C13.595 63.2029 14.985 64.9419 16.261 66.7969C16.841 67.8409 17.536 68.7679 18.231 69.6949C18.927 70.6229 19.623 71.5509 20.203 72.5949C21.13 74.4489 21.594 76.4199 23.217 77.9269C24.377 78.8549 25.884 77.3469 24.841 76.3039C23.449 75.1439 23.101 73.4059 22.406 71.8979C21.594 70.1589 20.203 68.7679 19.159 67.1449C18 65.5219 16.609 63.7829 15.797 61.8119C14.87 59.9559 14.985 57.7539 14.985 55.6669V49.0569C14.985 46.9709 14.754 44.8839 15.449 42.9129C16.145 40.9419 16.841 39.0869 18 37.3479C19.16 35.6079 20.203 33.9849 21.362 32.3619C24.261 28.4199 28.319 25.9849 31.797 22.7389C32.841 21.8109 31.565 20.4199 30.406 20.9989C28.5045 21.9571 26.7158 23.1243 25.073 24.4789C24.029 25.2889 25.42 26.7969 26.463 26.2169C27.855 25.5219 29.246 25.0569 30.522 24.2469C31.682 23.4349 32.841 22.6229 34.116 21.9269C35.2918 21.3381 36.4908 20.7967 37.71 20.3039C38.638 19.8409 39.913 19.2609 40.84 19.4929C40.6125 18.9644 40.4188 18.4219 40.26 17.8689C40.493 17.6379 40.493 17.5989 40.26 17.7529C40.0621 17.7613 39.8668 17.8004 39.681 17.8689C39.4186 17.9507 39.1448 17.9898 38.87 17.9849C38.174 18.1399 37.478 18.2549 36.783 18.3329C35.623 18.5649 34.696 18.7969 33.653 19.2609C31.797 20.0719 29.826 20.9999 28.319 22.3909C27.623 22.8549 27.159 23.6669 27.623 24.4779C28.319 25.8689 30.058 24.9419 30.87 24.1299C31.45 23.6669 31.797 23.0869 32.493 22.6229C33.188 22.1589 33.923 21.6949 34.696 21.2319C36.087 20.4199 37.942 19.8399 39.566 20.4199C39.4196 19.7612 39.2646 19.1045 39.101 18.4499C39.217 18.3329 39.101 18.4499 38.986 18.4499C38.87 18.4499 38.638 18.5649 38.406 18.5649C38.0626 18.6376 37.7129 18.6764 37.362 18.6809C36.435 18.7969 35.739 19.1449 34.928 19.6089C34.116 20.1889 33.073 20.5359 32.145 21.1159C31.217 21.5799 30.638 21.8109 29.478 21.8109C28.087 21.8109 28.087 24.1309 29.478 24.1309V24.1299Z" fill="black"/>
<path d="M27.9709 55.5499C27.9709 58.2179 26.3479 62.1599 29.2459 63.8989C30.2899 64.4789 31.3329 63.3189 30.7539 62.3909C30.5219 61.8109 30.2899 61.0009 30.0579 60.1879C29.8259 59.3769 29.3619 58.5649 28.7829 57.8699C28.0869 57.2899 27.0429 57.5219 26.8119 58.4499C25.8839 61.4639 28.0869 65.2899 30.9849 66.5649C31.4489 66.7969 31.9129 66.7969 32.2609 66.3339C32.6089 65.9859 32.7249 65.4059 32.4929 64.9419C32.2609 64.4779 31.7969 64.1309 31.5649 63.5509C31.3329 62.9709 31.3329 62.2749 31.1019 61.5799C30.8699 60.9999 30.2899 60.6519 29.7099 60.7679C29.1299 60.9999 28.6669 61.5799 28.8989 62.1599C29.1299 62.8549 29.1299 63.6669 29.4789 64.3619C29.7099 65.0579 30.1739 65.5219 30.5219 66.1019C31.0622 65.6386 31.566 65.1344 32.0289 64.5939C30.9849 64.1309 30.1739 63.3189 29.5939 62.2759C29.2459 61.6959 29.0139 61.2319 28.8989 60.5359C28.7829 60.0729 28.8989 59.4929 29.0149 59.0289L27.1589 59.4929C27.6229 59.9569 27.7389 60.5359 27.9709 61.2319C28.2029 62.0439 28.4349 62.7389 28.8989 63.5509C29.3619 63.0099 29.8649 62.4689 30.4059 61.9279C29.9419 61.6959 29.9419 61.5799 29.8259 61.1159V59.7249C29.8259 58.3329 30.1739 56.9419 30.2899 55.5509C30.2899 54.0439 27.9709 54.0429 27.9709 55.5499ZM43.1599 39.8979L42.8119 40.2459C42.3479 40.9419 42.4639 41.9859 43.3919 42.2169C44.6669 42.5649 46.0579 42.4489 47.4489 42.3329C48.8409 42.2169 50.4639 41.8699 51.6229 42.6809C52.8989 43.4929 53.2459 44.4209 53.7099 45.8109C53.9419 46.5069 54.2899 47.0869 54.5219 47.6669C54.7539 48.4779 54.6379 49.4059 54.6379 50.3329C54.6379 51.7249 56.8409 51.7249 56.9569 50.3329C57.0719 47.4349 55.9129 44.4199 53.8269 42.4489C52.7439 41.4439 51.5069 40.7869 50.1159 40.4789C49.3039 40.3619 48.3759 40.2459 47.5659 40.1299C46.6379 40.0139 45.5939 40.2459 44.7829 40.0139L45.4779 41.6379C45.7099 41.1739 46.6379 41.4059 47.1009 41.5219C48.0289 41.8699 48.6089 42.2169 49.6519 42.2169C51.1589 42.3329 52.0869 43.9569 53.3619 44.6519C54.4059 45.1159 55.7969 43.7249 54.7539 42.9129C53.9419 42.2169 53.1299 41.8699 52.3189 41.4059L49.8839 40.0139C47.9129 39.0869 46.1739 39.5509 44.0869 39.6669C42.6959 39.6669 42.6959 41.8699 44.0869 41.8699C46.6369 41.8699 49.4199 41.2899 51.9709 41.9849C53.2459 42.4489 56.3769 44.1879 55.9129 45.9279C56.5418 45.7699 57.1611 45.5763 57.7679 45.3479C56.7249 44.4199 56.3769 42.9129 55.3329 41.8699C54.5219 40.9419 52.7829 42.1009 53.5939 43.2599C55.2169 45.6959 55.1009 48.4779 54.8699 51.2599C54.6379 52.7679 54.6379 54.2749 54.2899 55.6669C54.1739 56.3619 54.0579 57.8699 53.4779 58.2169C54.0969 58.5269 54.6759 58.8739 55.2179 59.2609C55.2179 58.5649 55.5649 57.8689 55.7979 57.1739C56.0289 56.3619 56.1449 55.4339 56.2609 54.6239C56.4929 52.8839 56.4929 51.2609 56.4929 49.5219C56.4929 48.5939 55.2169 48.0139 54.5219 48.7099C53.9419 49.5219 53.8259 50.4499 53.5939 51.3769C53.4442 52.6584 53.2507 53.9345 53.0139 55.2029C52.6669 56.9419 51.9709 58.4489 51.3909 60.0729C50.8109 61.4629 50.9279 62.9709 49.8839 64.2459C48.9559 65.4059 47.7969 66.1009 46.4059 66.3329C44.8979 66.6809 43.2759 67.0289 41.7679 67.3769C39.5649 67.8409 36.6669 68.1879 34.8119 66.7969C33.5359 65.9849 32.3769 67.9569 33.6519 68.7679C35.7389 70.2749 38.7539 70.1589 41.1879 69.6959C42.9279 69.4639 44.5509 68.9999 46.2899 68.6519C47.7969 68.4199 49.0719 67.9559 50.2319 67.0289C51.3919 66.1009 52.3189 65.0579 52.7819 63.6669C53.1299 62.8549 53.1299 61.9269 53.3619 61.1159L54.4059 58.6809C54.9859 56.9419 55.3329 55.0869 55.5659 53.3479L55.7969 51.7249C55.9129 51.3769 55.9129 50.5649 56.1449 50.3329C55.5413 50.03 54.9221 49.7593 54.2899 49.5219C54.1739 51.2609 54.1739 52.9999 53.9419 54.8549C53.8259 55.6669 53.7099 56.3619 53.4779 57.1739C53.2459 57.8699 53.0139 58.4489 53.0139 59.2609C53.0139 60.0719 53.9419 60.6519 54.6379 60.1879C55.7979 59.4929 56.1449 58.2179 56.3769 56.9419C56.7249 55.3189 56.8409 53.6959 56.9569 51.9559C57.4199 48.4779 57.5369 45.1159 55.5649 42.1009L53.7099 43.4929C54.7539 44.5359 55.1009 45.9269 56.1449 46.9709C56.8409 47.6669 57.8849 47.3189 58.1149 46.5069C58.9279 43.8409 56.1449 41.5219 54.0579 40.4779C51.0439 38.8549 47.3329 39.5509 44.0869 39.6669V41.8699C45.8269 41.7539 47.4489 41.2899 49.0719 42.2169C49.7679 42.4489 50.3479 42.9129 51.0429 43.2609C51.7389 43.6089 52.5509 43.9559 53.1299 44.4209C53.5939 43.8789 54.0579 43.2989 54.5219 42.6809C53.5939 42.2169 53.0139 41.4059 52.2019 40.8259C51.7389 40.4779 51.3919 40.2459 50.8119 40.1299C50.2319 39.8979 49.4199 40.0139 48.8409 39.7819C46.9859 39.0869 44.6669 38.5069 43.5069 40.4779C43.0439 41.1739 43.5069 41.9849 44.2029 42.2179C44.8979 42.3329 45.4779 42.3329 46.1729 42.3329C46.8699 42.2169 47.6809 42.3329 48.3769 42.4489C49.6519 42.6809 50.9269 43.0289 51.9709 43.8409C53.8259 45.3479 54.7539 47.8979 54.6379 50.3329H56.9569C56.9569 49.4059 56.9569 48.3629 56.8409 47.4349C56.6089 46.6229 56.0289 45.8119 55.7969 44.8839C55.3329 43.4929 54.8699 42.2169 53.5939 41.2899C53.0139 40.8259 52.3189 40.3619 51.6239 40.1299C50.8119 39.8979 49.9999 40.0139 49.0719 40.0139C47.4489 40.1299 45.5939 40.4779 43.9709 40.0139L44.4349 41.8689C44.5119 41.7919 44.5889 41.6759 44.6669 41.5219C45.5939 40.3619 43.9709 38.8549 43.1589 39.8989L43.1599 39.8979Z" fill="black"/>
<path d="M55.102 45.8119C55.102 50.1019 55.102 54.6229 56.609 58.6819C57.304 60.4199 57.769 62.2749 59.275 63.3189C60.783 64.5939 62.29 65.7539 64.145 66.5649C66.927 67.9569 70.638 68.5359 73.42 66.9129C74.927 65.9859 76.55 65.0579 77.014 63.2029C77.478 61.3479 77.826 59.7249 78.986 58.1009C80.261 56.4779 79.681 54.2759 79.681 52.3039C79.681 51.1449 79.797 49.9859 79.681 48.8259C79.565 47.6659 78.87 46.6229 78.87 45.3479C78.985 43.9569 76.667 43.9569 76.667 45.3479C76.551 46.1599 76.783 46.9709 77.014 47.6669C77.362 48.5939 77.478 49.4059 77.478 50.4489C77.478 52.0729 77.594 53.8119 77.594 55.4349C77.594 56.3619 77.246 56.7099 76.783 57.4049C76.319 57.9849 76.087 58.7969 75.739 59.4929C75.417 60.2469 75.1457 61.0217 74.927 61.8119C74.812 62.7389 74.696 63.4349 73.884 64.0149C72.841 64.8259 71.565 65.5219 70.174 65.5219C68.783 65.6379 67.275 65.4059 66 64.9419C64.493 64.3619 62.986 63.4349 61.71 62.3919C61.13 62.0439 60.435 61.5799 60.087 61.1159C59.507 60.4199 59.275 59.2609 58.927 58.4489C57.304 54.5069 57.304 50.1019 57.304 45.8119C57.304 44.3039 55.102 44.3039 55.102 45.8119ZM14.754 38.2749C13.71 39.5509 13.13 40.9419 12.667 42.5649C12.087 44.3049 11.507 46.0439 11.044 47.8989C9.99996 51.8409 9.88396 55.7829 10.696 59.7249C11.044 61.5799 11.507 63.4349 12.319 65.1739C13.014 66.7969 14.058 68.1879 14.869 69.6959C16.261 72.2459 17.073 75.1449 19.044 77.2319C20.551 78.9709 24.956 81.5219 26.927 79.2019C27.855 78.0429 26.347 76.5359 25.304 77.5799C24.724 78.3909 22.406 76.9999 21.71 76.5359C20.435 75.8409 19.74 74.4489 19.044 73.1739C18.348 71.7829 17.768 70.2749 16.956 68.8839C16.145 67.2609 15.101 65.7539 14.29 64.0139C12.55 60.1879 11.971 55.3189 12.667 51.1439C13.015 49.0579 13.594 46.9709 14.29 44.8839C14.87 43.2609 15.217 41.2899 16.377 39.8979C17.304 38.7389 15.681 37.1159 14.754 38.2749ZM31.797 82.9129C33.537 82.9129 34.927 83.8409 36.551 84.3039C38.406 84.8839 40.261 84.6519 42.116 84.8839C43.159 84.9999 44.087 85.2319 45.13 85.3479C46.058 85.4639 46.985 85.4639 47.913 85.5799C49.884 86.0429 51.739 86.1599 53.71 86.0429C55.4908 85.8105 57.2406 85.3829 58.928 84.7679C59.855 84.5359 60.667 84.0729 61.478 83.8409C62.29 83.4929 63.218 83.3769 63.913 83.0289C65.653 82.4489 66.812 81.1739 67.855 79.7829C68.435 78.9709 68.898 78.2749 69.595 77.4629C70.174 76.7679 70.638 76.1879 70.87 75.2609C71.217 74.4489 70.058 73.4059 69.246 73.9859C67.043 75.6089 65.188 77.4639 62.986 79.0869C60.783 80.5939 58.232 80.8269 55.797 81.5219C54.637 81.7539 53.71 82.3329 52.551 82.9129C51.507 83.3769 50.464 83.1449 49.421 83.1449C48.145 83.1449 46.986 83.3769 45.711 83.7249C44.319 84.0729 42.696 83.8409 41.304 83.8409C39.797 83.8409 39.797 86.0439 41.304 86.0439C42.696 86.0439 44.203 86.2749 45.594 86.0439C46.986 85.8119 48.261 85.3479 49.652 85.4639C50.812 85.4639 51.971 85.5799 53.014 85.1159C54.174 84.6519 55.217 83.9559 56.493 83.6089C58.927 82.9129 61.363 82.6809 63.565 81.4059C66 79.7829 67.971 77.5799 70.405 75.9559C69.8207 75.5376 69.2413 75.1126 68.667 74.6809C68.435 75.4929 67.739 76.0729 67.275 76.6519C66.812 77.3479 66.232 78.1589 65.768 78.8549C65.188 79.5509 64.608 80.2459 63.798 80.5949C63.101 81.0579 62.29 81.1739 61.594 81.4049C59.971 81.8699 58.464 82.6809 56.841 83.1449C55.141 83.6089 53.44 83.8409 51.739 83.8409C50 83.8409 48.493 83.2609 46.754 83.1449C44.899 83.1449 43.159 82.6809 41.304 82.5649C39.449 82.4489 37.826 82.4489 36.087 81.7539C34.696 81.1739 33.42 80.7099 31.797 80.5939C30.29 80.5939 30.29 82.9129 31.797 82.9129Z" fill="black"/>
</g>
</svg>
