<svg width="100" height="100" viewBox="0 0 100 100" fill="none" xmlns="http://www.w3.org/2000/svg">
<mask id="mask0_128_140" style="mask-type:luminance" maskUnits="userSpaceOnUse" x="25" y="10" width="51" height="80">
<path d="M25 10H76V90H25V10Z" fill="white"/>
</mask>
<g mask="url(#mask0_128_140)">
<g style="mix-blend-mode:multiply">
<path d="M55.9001 88.3809C53.8001 85.9999 51.7001 83.0479 50.0001 80.2859C47.3001 75.6189 44.7001 70.8569 42.4001 65.9049C38.0001 56.7619 34.4001 47.0479 33.3001 36.9519C32.1001 26.4759 39.7001 18.3809 49.1001 14.0949C54.3001 11.8089 60.5001 11.1429 65.7001 13.2379C77.4001 17.9999 76.1001 34.3809 73.9001 44.0949C70.7001 57.9049 64.5001 76.8569 55.9001 88.3809Z" fill="#DCBFC1"/>
<path d="M55.9001 88.3809C53.8001 85.9999 51.7001 83.0479 50.0001 80.2859C47.3001 75.6189 44.7001 70.8569 42.4001 65.9049C38.0001 56.7619 34.4001 47.0479 33.3001 36.9519C32.1001 26.4759 39.7001 18.3809 49.1001 14.0949C54.3001 11.8089 60.5001 11.1429 65.7001 13.2379C77.4001 17.9999 76.1001 34.3809 73.9001 44.0949C70.7001 57.9049 64.5001 76.8569 55.9001 88.3809Z" fill="#DCBFC1" stroke="#EDCBCE" stroke-width="0.8" stroke-miterlimit="10"/>
</g>
<path d="M50 37.6191C45 37.6191 41 34.1901 41 29.9991C41 25.8091 45 22.3811 50 22.3811C55 22.3811 59 25.8091 59 30.0001C59 34.1901 55 37.6191 50 37.6191Z" fill="#DD9EA2" stroke="#E7CFD1" stroke-width="0.8" stroke-miterlimit="10"/>
<path d="M51.9 87.143C43.4 77.619 36.1 66.857 31.5 55.143C29.4 49.619 27.7 43.905 27.6 38.095C27.6 32.476 29.1 26.857 32.5 22.285C38.3 14.476 50.8 10.095 60.1 14.476C71.8 20 72.1 34.857 69.5 45.333C66.2 58.381 58.4 69.714 52.8 81.81L50.8 86.19C51.467 86.381 52.1 86.54 52.7 86.667C57 73.429 66.5 62.38 71.3 49.238C73.6 42.858 74.8 35.905 73.3 29.238C72.1 24 68.9 19.238 64.6 15.81C60.2 12.286 54.6 10.095 48.8 10.19C43.3 10.286 37.9 12.286 34.1 16.095C25.8 24.285 27.1 36.476 29.4 46.762C30.8 53.238 33.2 59.524 36.1 65.619C37.583 68.6332 39.1843 71.5878 40.9 74.476C41.8 75.905 42.7 77.333 43.7 78.571C44.2 79.238 44.5 79.905 44.8 80.761C45 81.524 45.2 82.381 45.5 83.143C46.1 84.571 47.3 85.619 48.2 86.857C48.667 86.477 49.167 86.095 49.7 85.714C49.5513 85.5689 49.4173 85.4094 49.3 85.238C48.5 84.286 47.1 85.619 47.9 86.571C48.033 86.761 48.167 86.921 48.3 87.048C49 87.905 50.5 86.858 49.9 85.905C49 84.667 47.7 83.619 47.2 82.19C46.6 80.667 46.5 79.143 45.5 77.905C43.6 75.429 42 72.571 40.5 69.905C37.4 64.19 34.8 58.285 32.9 52.19C31 46.19 29.8 40 29.6 33.714C29.5 29.143 30.4 24.476 33 20.476C35.6 16.476 39.8 13.619 44.7 12.571C50.3 11.333 56 12.571 60.8 15.429C65.3 18.19 68.9 22.476 70.7 27.333C72.8 33.333 72.2 39.905 70.4 45.905C66.5 58.667 57.7 69.333 52.5 81.619C51.9 83.143 51.333 84.666 50.8 86.19C50.4 87.332 52.3 87.809 52.7 86.667C58.1 73.714 66.6 61.905 70.7 48.381C74 37.333 74.6 22.191 63.8 14.476C54.9 8.18998 41.6 10.952 34 17.81C29.6 21.715 27 27.24 26.1 32.858C25.1 38.763 26 44.668 27.8 50.382C31.6 62.953 38.7 74.477 47.3 84.668C48.3809 85.9544 49.481 87.2245 50.6 88.478C51.4 89.334 52.8 88 51.9 87.143Z" fill="black"/>
<path d="M26.9999 39.905C27.8999 42.095 28.4999 44.285 28.8999 46.571C28.9999 47.714 29.0999 48.857 29.2999 50C29.3999 51.048 29.7999 52 29.9999 53.048C29.9999 53.619 30.3999 54 30.8999 54C31.3999 54 31.9999 53.619 31.8999 53.048C31.7999 51.905 31.2999 50.858 31.1999 49.714C30.9999 48.571 30.9999 47.429 30.7999 46.286C30.3999 44 29.8999 41.619 28.8999 39.429C28.6999 38.952 28.2999 38.667 27.6999 38.762C27.2999 38.857 26.7999 39.429 26.9999 39.905ZM53.0999 20.381C51.3999 20.286 49.7999 20.095 48.1999 20.476C46.6999 20.857 45.0999 21.714 43.7999 22.666C41.5999 24.19 40.3999 26.762 39.8999 29.238C38.8999 34.571 41.3999 39.905 47.0999 41.619C52.4999 43.239 57.7999 39.524 59.8999 34.857C60.9999 32.571 61.4999 29.905 60.6999 27.524C59.7999 24.762 57.6999 22.571 54.8999 21.524C49.0999 19.334 41.7999 22.095 39.4999 27.714C38.4999 30 38.6999 32.762 40.1999 34.857C41.6999 37.143 44.2999 38.667 46.9999 39.333C52.7999 40.762 59.3999 38.191 61.6999 32.762C63.9999 27.238 59.2999 22.095 53.7999 20.762C48.0999 19.429 41.3999 22.095 38.9999 27.429C38.3999 28.857 38.2999 30.476 38.2999 31.905C38.2999 33.238 38.3999 35.524 39.9999 35.905C40.8999 36.19 41.6999 35.715 42.2999 35.238C43.2999 34.476 41.8999 33.143 40.8999 33.905C40.7999 34 40.4999 34.19 40.4999 34.095C40.3999 34.285 40.5999 34 40.5999 34.191V34.095C40.4999 33.619 40.2999 33.143 40.2999 32.571C40.1999 31.333 40.2999 30 40.5999 28.761C40.9999 27.143 42.4999 25.524 43.8999 24.476C45.7999 23.048 48.2999 22.286 50.7999 22.286C55.2999 22.286 60.7999 25.429 60.3999 30.286C59.8999 34.952 54.6999 38 50.0999 37.905C45.7999 37.715 40.4999 34.952 40.7999 30.285C41.0999 25.429 46.4999 22.381 51.1999 22.667C56.4999 22.952 60.0999 27.429 58.7999 32.286C57.7999 36 54.4999 39.905 50.1999 40.096C45.3999 40.286 41.7999 36.476 41.5999 32.191C41.4999 30.191 41.9999 28.095 42.9999 26.381C43.5999 25.333 44.2999 24.571 45.2999 23.905C46.3999 23.238 47.6999 22.476 48.9999 22.19C50.2999 21.905 51.6999 22.19 53.0999 22.286C54.2999 22.381 54.2999 20.476 53.0999 20.381ZM39.2999 72.572C39.2999 73.238 39.5999 73.714 39.9999 74.286C40.3999 74.762 40.6999 75.333 41.0999 75.905C41.8999 77.238 42.8999 78.571 43.7999 80C44.6999 81.238 45.3999 82.572 46.1999 83.905C46.8999 84.952 47.4999 86.191 48.5999 86.952C49.2999 87.429 50.0999 86.572 49.9999 85.905C49.7999 84.857 49.1999 83.905 48.6999 82.952C48.1999 82 47.5999 81.142 46.8999 80.286C46.1999 79.333 45.4999 78.571 44.7999 77.524C44.5999 77.143 44.2999 76.762 43.9999 76.286C43.6999 75.905 43.2999 75.524 43.1999 75.048C42.5999 75.365 42.0329 75.683 41.4999 76C43.5999 77.714 44.5999 80.286 45.8999 82.476C46.7999 83.81 47.5999 85.048 48.3999 86.381C48.9999 87.333 49.2999 88.286 50.2999 88.953C50.6999 89.143 51.3999 89.048 51.5999 88.571C52.4999 86.953 50.8999 85.714 49.7999 84.667C49.3999 84.191 49.0999 83.81 48.6999 83.333C48.2999 82.953 47.8999 82.667 47.5999 82.191C47.1999 81.238 47.0999 80.381 46.2999 79.619C45.6999 79.143 44.5999 79.429 44.5999 80.286C44.6999 80.952 45.0999 81.524 45.4999 82.096C45.9999 82.857 46.2999 83.714 46.6999 84.476C47.1999 85.333 47.4999 86.286 48.0999 87.048C48.6999 87.81 49.2999 88.476 49.6999 89.238C50.2999 88.921 50.8669 88.603 51.3999 88.286C51.1995 88.0315 50.9638 87.8069 50.6999 87.619C49.7999 86.762 48.3999 88.095 49.3999 88.857C49.5329 88.984 49.6329 89.111 49.6999 89.238C50.4999 90.286 51.9999 89.428 51.3999 88.286C51.0999 87.619 50.4999 86.952 49.9999 86.286C49.3999 85.619 49.0999 84.857 48.6999 84L47.4999 81.714C47.2999 81.334 46.5999 80.667 46.5999 80.286C46.0669 80.476 45.4999 80.698 44.8999 80.952C45.4999 81.429 45.4999 82.286 45.7999 82.952C46.1999 83.714 46.8999 84.286 47.4999 84.952C47.9999 85.429 48.3999 86 48.8999 86.476C49.0999 86.666 49.9999 87.429 49.8999 87.619C50.3598 87.4933 50.8275 87.3978 51.2999 87.333C50.8999 87.048 50.5999 86.476 50.3999 86C50.1468 85.5165 49.88 85.0403 49.5999 84.572C48.7999 83.333 47.9999 82.095 47.2999 80.857C45.9999 78.667 44.8999 76.381 42.8999 74.667C42.1999 74 40.9999 74.571 41.2999 75.524C41.5999 76.476 42.2999 77.238 42.7999 78C43.4999 78.953 44.0999 79.905 44.7999 80.762C45.5999 81.619 46.1999 82.476 46.6999 83.429C47.1999 84.381 47.8999 85.333 48.0999 86.381C48.5669 86.001 49.0669 85.651 49.5999 85.333C49.0999 85.048 48.8999 84.476 48.5999 84C48.2999 83.524 47.9999 83.048 47.6999 82.476C46.9999 81.333 46.2999 80.191 45.4999 79.048C44.6999 77.841 43.8999 76.603 43.0999 75.333C42.6999 74.857 42.4999 74.286 42.0999 73.81C41.8999 73.429 41.2999 73.048 41.2999 72.571C41.1999 71.429 39.1999 71.43 39.2999 72.572Z" fill="black"/>
<path d="M40.4999 33.1429C39.9999 33.0479 39.4999 33.0479 39.0999 33.3329C38.4999 33.6189 38.4999 34.3809 38.8999 34.7619C39.1669 35.0789 39.4669 35.3649 39.7999 35.6189C39.9329 35.6829 40.0669 35.7779 40.1999 35.9049L40.3999 36.0949C40.3999 36.0319 40.3999 36.0319 40.3999 36.0949C40.5329 36.1589 40.6329 36.2219 40.6999 36.2849C41.2999 36.7619 41.6999 37.3329 42.2999 37.8099C42.4868 37.9931 42.7381 38.0958 42.9999 38.0958C43.2616 38.0958 43.513 37.9931 43.6999 37.8099C44.0999 37.4289 43.9999 36.9519 43.6999 36.4759C43.2999 36.0959 42.8999 35.7139 42.3999 35.4289L41.9999 35.0479C41.9999 34.9839 41.9669 34.9519 41.8999 34.9519C41.7999 34.8569 41.9999 35.0479 41.9999 34.9519L41.7999 34.7619C41.1999 33.9049 40.5999 33.1419 39.4999 32.9519C39.0999 32.9519 38.5999 33.3329 38.4999 33.7139C38.2999 34.4759 38.3999 35.3339 38.8999 35.9999C39.0999 36.4759 39.5999 36.8569 39.9999 37.2379C40.6999 38.0949 41.6999 39.1429 42.8999 38.9519C43.1999 38.8569 43.4999 38.5719 43.5999 38.2859C43.9999 36.7619 42.8999 35.1429 41.1999 34.8569C40.6999 34.8569 40.1999 35.0469 39.9999 35.5239C39.6999 36.5709 40.6999 37.6189 41.2999 38.2859C42.0999 39.0479 43.0999 39.9049 44.1999 40.0959C44.8999 40.1909 45.6999 39.9999 46.0999 39.3329C46.3999 38.8569 46.1999 38.2859 45.7999 37.9999C45.2999 37.8099 44.6999 37.9049 44.3999 38.3809C44.2999 38.5709 44.5999 38.1909 44.4999 38.2859C44.6999 38.1899 44.2999 38.4759 44.4999 38.2859C44.3999 38.3809 44.7999 38.1899 44.5999 38.2859C44.4999 38.2859 44.5999 38.1899 44.6999 38.2859C44.6999 38.1899 44.5999 38.2859 44.5999 38.2859H44.6999C44.5755 38.2242 44.4388 38.1914 44.2999 38.1899C44.0999 38.0949 44.4999 38.2859 44.3999 38.1899C44.3329 38.1899 44.2669 38.1589 44.1999 38.0949L43.7999 37.9049L43.4999 37.6189C43.6999 37.9049 43.4999 37.7139 43.4999 37.6189C43.4329 37.6189 43.3669 37.5869 43.2999 37.5239L42.6999 36.9519C42.58 36.8423 42.4787 36.714 42.3999 36.5719C42.3329 36.5719 42.2999 36.5399 42.2999 36.4759L42.3999 36.5719C42.2999 36.5719 42.2999 36.4759 42.1999 36.4759L41.9999 36.0959V35.9999C41.9329 35.9999 41.8999 35.9679 41.8999 35.9049C41.8999 35.8409 41.9329 35.8729 41.9999 35.9999L41.8999 35.8099C41.9999 35.9999 41.8999 36.0949 41.8999 35.9049V35.9999C41.4999 36.2539 41.0999 36.4759 40.6999 36.6669C40.8244 36.7282 40.9611 36.7607 41.0999 36.7619L41.1999 36.8569C41.2669 36.8569 41.3329 36.8889 41.3999 36.9519C41.2999 36.9519 41.2999 36.8569 41.3999 36.9519C41.3999 37.0159 41.4329 37.0479 41.4999 37.0479C41.5999 37.2379 41.4999 37.1429 41.4999 37.0479C41.5669 37.1749 41.6329 37.2699 41.6999 37.3329C41.6999 37.4289 41.5999 37.1429 41.6999 37.3329V37.7139C41.8999 37.5239 42.1329 37.3339 42.3999 37.1429C42.4669 37.0789 42.5329 37.0479 42.5999 37.0479C42.5329 37.0479 42.5329 37.0479 42.5999 37.0479C42.7999 37.1429 42.6999 37.1429 42.5999 37.0479C42.4999 37.0479 42.6999 37.1429 42.6999 37.1429L42.5999 37.0479C42.5329 37.0479 42.4669 37.0159 42.3999 36.9519C42.5999 37.0479 42.2999 36.8569 42.3999 36.9519C42.3999 36.8889 42.3669 36.8569 42.2999 36.8569C41.9524 36.5881 41.6488 36.2669 41.3999 35.9049L40.9999 35.5239C40.9329 35.5239 40.8669 35.4919 40.7999 35.4289C40.7999 35.3649 40.7669 35.3329 40.6999 35.3329C40.6999 35.3329 40.5999 35.1429 40.5999 35.2379L40.4999 35.1429V34.8569C40.4329 34.7939 40.3999 34.7299 40.3999 34.6669C40.3999 34.7619 40.3999 34.5709 40.3999 34.6669V34.1899C40.128 34.4479 39.8258 34.6718 39.4999 34.8569H39.3999C39.2669 34.7939 39.2329 34.7939 39.2999 34.8569H39.3999C39.4669 34.9209 39.4329 34.9209 39.2999 34.8569C39.3999 34.8569 39.6999 35.2379 39.6999 35.2379C39.7669 35.2379 39.7999 35.2699 39.7999 35.3329C39.7329 35.2699 39.7329 35.2699 39.7999 35.3329C39.8669 35.3969 39.8999 35.4599 39.8999 35.5229L40.2999 35.9049C40.4999 36.2849 40.7999 36.5709 41.0999 36.7619C41.4999 37.1419 41.8999 37.4289 42.2999 37.8089L43.6999 36.4759C43.0999 35.9999 42.6999 35.4289 42.0999 34.9519L41.4999 34.5719C41.5999 34.5719 41.3999 34.4759 41.3999 34.4759C41.3101 34.3977 41.209 34.3336 41.0999 34.2859C40.8329 34.0319 40.5669 33.7459 40.2999 33.4289L40.0999 34.9519C39.8999 35.0479 40.0999 34.9519 39.9999 34.9519C40.1999 34.9519 39.8999 34.9519 39.9999 34.9519C40.4999 35.0479 41.0999 34.8569 41.1999 34.2859C41.2999 33.8089 41.0999 33.2379 40.4999 33.1429Z" fill="black"/>
</g>
</svg>
