<svg width="50" height="54" viewBox="0 0 50 54" fill="none" xmlns="http://www.w3.org/2000/svg">
<g clip-path="url(#clip0_146_532)">
<path d="M20.7284 21.9785C26.4337 22.0622 31.9281 24.5314 35.8573 28.7617L38.6337 27.4727C39.0748 27.2711 39.5392 27.271 39.9804 27.4727L49.328 31.8096L49.327 31.8086C49.9036 32.0751 50.2624 32.641 50.2626 33.2852V37.998C50.2626 43.7956 48.6443 48.2043 45.455 51.1064C42.9667 53.3733 40.3082 53.9433 39.5546 54.0615C39.4673 54.0731 39.3844 54.0801 39.3016 54.0801C39.219 54.0801 39.1359 54.0731 39.0487 54.0615C38.2946 53.9431 35.6363 53.373 33.1483 51.1064C32.5371 50.5548 31.99 49.9494 31.496 49.2842C27.3028 50.6076 23.2042 51.0829 20.7157 51.083C15.6375 51.083 7.75592 49.421 2.4618 45.7725C0.639752 44.5161 -0.254641 42.451 0.0623869 40.249C0.785898 35.2865 3.2565 30.7063 7.01551 27.3545C10.8114 23.9609 15.6764 22.055 20.7108 21.9785H20.7284ZM39.3134 28.4209C39.2423 28.421 39.1713 28.4399 39.0956 28.4746L29.7479 32.8115C29.5596 32.9019 29.4472 33.073 29.4472 33.2861V37.999C29.4472 43.4719 30.9405 47.6072 33.8886 50.2891C36.1516 52.3471 38.5457 52.864 39.2284 52.9707C39.2858 52.9823 39.3278 52.9823 39.3876 52.9707C40.0683 52.8639 42.4623 52.347 44.7274 50.2891C47.6754 47.6069 49.1688 43.4694 49.1688 37.999H49.1757L49.1806 33.2861C49.1805 33.073 49.0726 32.8996 48.8798 32.8115L39.5321 28.4746C39.454 28.4398 39.3846 28.4209 39.3134 28.4209ZM39.079 29.751C39.226 29.6861 39.3919 29.6861 39.5389 29.751L47.7743 33.5742C47.9694 33.6624 48.093 33.8566 48.0907 34.0674V38.1328C48.0907 43.1584 46.7373 46.9323 44.0673 49.3662C42.7552 50.5645 40.968 51.4784 39.4032 51.752C39.3733 51.7589 39.3383 51.7588 39.3085 51.7588C39.2787 51.7588 39.2444 51.7589 39.2147 51.752C37.65 51.4785 35.8627 50.5645 34.5507 49.3662C31.8807 46.9368 30.5272 43.1584 30.5272 38.1377V34.0723C30.5272 33.8592 30.6508 33.6624 30.8436 33.5742L39.079 29.751ZM31.6229 34.4268V38.1426C31.6229 42.8363 32.8593 46.3361 35.288 48.5498C36.43 49.5883 37.9649 50.3885 39.3114 50.6504C40.6578 50.3907 42.1929 49.5882 43.3348 48.5498C45.7634 46.3364 46.9999 42.8363 46.9999 38.1426L46.9989 34.4268L39.3114 30.8545L31.6229 34.4268ZM20.7225 23.0801C10.9821 23.2357 2.56304 30.6835 1.15223 40.4141C0.892668 42.1872 1.61643 43.849 3.0868 44.8643C8.53445 48.6148 16.6164 49.9805 20.7225 49.9805V49.9795C23.0637 49.9795 26.8923 49.5417 30.8651 48.334C29.1993 45.6405 28.3583 42.1799 28.3583 38.0029V33.29C28.3584 32.6504 28.7172 32.08 29.2938 31.8135L34.8104 29.25C31.104 25.4002 26.0097 23.1635 20.7225 23.0801ZM43.0311 36.4971C43.8193 35.9153 44.9368 36.0868 45.5136 36.8818C46.0899 37.6769 45.9196 38.803 45.1317 39.3848L37.6249 44.9199C37.3147 45.1448 36.949 45.2637 36.5722 45.2637C36.4596 45.2637 36.3426 45.2517 36.2255 45.2285C35.7383 45.1335 35.3269 44.8436 35.0673 44.4102L33.0087 41.0283C32.7628 40.6181 32.6842 40.1384 32.7968 39.6748C32.9071 39.2043 33.1899 38.8148 33.5966 38.5645C34.0033 38.3164 34.4788 38.238 34.9384 38.3516C35.4048 38.4628 35.7908 38.7479 36.0389 39.1582L37.078 40.8867L43.0311 36.4971ZM44.6395 37.5303C44.4144 37.2223 43.9919 37.1573 43.6864 37.3818L37.2518 42.1221C37.1278 42.2101 36.9692 42.2479 36.8222 42.2178C36.6753 42.1876 36.5464 42.0926 36.4638 41.9629L35.1063 39.7256C35.0076 39.5726 34.8604 39.4587 34.6835 39.417C34.5065 39.3753 34.3199 39.4059 34.1659 39.501C34.0144 39.6006 33.9016 39.7494 33.8602 39.9277C33.819 40.1061 33.8491 40.2892 33.9432 40.4443L36.0018 43.8262C36.1029 43.993 36.2549 44.1068 36.4432 44.1416C36.6315 44.1833 36.8268 44.1415 36.9852 44.0234L44.4931 38.4922C44.7983 38.265 44.8623 37.8338 44.6395 37.5303ZM20.7225 0C26.2622 0.000111957 30.7682 4.54303 30.7684 10.1338C30.7684 15.7223 26.2647 20.2684 20.7225 20.2686C15.1803 20.2686 10.6766 15.7224 10.6766 10.1338C10.6769 4.54539 15.1804 0 20.7225 0ZM20.7225 1.10059C15.7821 1.10059 11.7704 5.14817 11.7704 10.1318C11.7704 15.111 15.7867 19.1631 20.7225 19.1631C25.6583 19.163 29.6747 15.1108 29.6747 10.1318C29.6747 5.15269 25.6581 1.1007 20.7225 1.10059Z" fill="white"/>
</g>
<defs>
<clipPath id="clip0_146_532">
<rect width="50" height="54" fill="white"/>
</clipPath>
</defs>
</svg>
