<svg width="239" height="320" viewBox="0 0 239 320" fill="none" xmlns="http://www.w3.org/2000/svg">
<g clip-path="url(#clip0_191_935)">
<path d="M194.5 50.5001L194.5 20.5001L226.5 39.5001L226.5 70.0002L178 171L171.555 233.186L145.5 315.5L127 315.5L110 312L127 254L110 191L194.5 50.5001Z" fill="#D3B8B9"/>
<path d="M83 102.5L125 86.5L157.511 98.8481L125 169.469L74.9999 189.5L49.9999 189.5L49.9999 169.469L59 131.5L83 102.5Z" fill="#D3B8B9"/>
<ellipse cx="59.5" cy="58" rx="47.5" ry="49" fill="#D3B8B9"/>
<path d="M91.9482 60.2585C90.0732 59.7928 88.1732 60.9396 87.7082 62.8175C85.6882 71.0203 79.4882 71.5912 73.3482 71.6062C68.9132 71.9017 69.1582 78.6072 73.5732 78.6122C78.6382 78.4169 90.5532 79.123 94.5032 64.5001C94.9682 62.6222 93.8232 60.7192 91.9482 60.2535V60.2585Z" fill="black"/>
<path d="M9.41333 87.1406C10.5433 92.1284 14.4733 96.4902 19.1283 98.238C15.4283 94.9879 12.1533 91.2571 9.41333 87.1406Z" fill="black"/>
<path d="M238.648 39.6013C239.643 37.9637 239.003 35.6501 237.303 34.7637C237.203 34.7086 227.318 29.2852 217.253 23.8817C196.388 12.6842 195.208 12.5039 194.253 12.3587C189.878 11.6927 187.798 17.2213 185.888 23.436C184.623 27.5524 186.343 32.1196 188.068 36.0858L191.338 44.6542L144.573 128.66C143.633 130.353 144.238 132.486 145.928 133.428C147.618 134.369 149.748 133.763 150.688 132.071L196.793 49.2413C202.128 51.3246 214.608 56.8432 226.288 66.7787C226.023 67.6801 173.228 184.748 173.218 185.659L157.333 289.677C153.193 289.657 128.178 289.662 123.468 289.677L117.088 203.137C118.383 202.356 118.423 202.225 119.168 201.609L142.493 150.84C143.303 149.082 142.533 146.999 140.778 146.188C139.023 145.382 136.943 146.148 136.133 147.906L133.688 153.224C131.438 142.542 121.068 139.542 113.028 146.033L112.883 145.251C106.213 147.981 98.7834 150.91 92.7284 153.023L95.3884 140.384H106.778L115.518 88.683C119.228 87.1656 124.778 85.533 129.428 86.805C146.263 91.4022 144.953 91.6676 157.358 96.1897C161.698 97.7021 164.063 91.267 159.763 89.6044C156.178 88.2923 153.673 87.3208 151.663 86.5396C146.143 84.3963 143.623 83.4197 131.273 80.0395C122.353 77.6006 112.218 82.288 108.908 84.0257L104.773 83.5049C126.003 47.8742 97.7834 -1.11735 55.9734 0.0194278C25.1134 0.0194278 0.00338763 25.1687 0.00338763 56.077C-0.366612 88.9884 29.6284 115.9 62.3884 111.764L61.0434 115.78C56.7784 118.084 51.9484 123.032 49.1284 137.264C46.4834 152.067 43.4234 166.274 43.0434 181.493C41.6234 203.107 57.4184 199.321 72.7184 196.757L67.0334 220.239C66.0284 223.564 67.4884 227.144 70.5484 228.807C73.9534 230.805 77.6734 232.988 81.4184 230.319C81.3834 230.49 74.0634 258.498 74.0384 258.649C73.1084 262.595 76.4484 266.686 80.4784 266.581C80.8334 266.636 88.0234 265.524 88.5934 265.444C91.7684 264.968 94.2884 262.545 94.8884 259.39L107.263 203.572C108.323 204.118 109.318 204.404 110.168 204.539L116.608 291.896L104.758 304.355C102.148 307.099 101.458 310.965 102.943 314.446C104.433 317.926 107.708 320.09 111.488 320.09H150.303C152.208 320.09 153.763 318.567 153.803 316.659L154.238 296.693H160.328C162.058 296.693 163.528 295.431 163.788 293.718L180.053 187.197L197.503 148.211C204.948 149.353 212.628 143.874 215.588 137.084C218.328 130.684 217.808 121.069 211.498 116.942L233.718 67.2895C235.408 63.3684 229.383 60.7343 227.143 58.4758L227.528 58.7011L238.628 39.6063L238.648 39.6013ZM115.993 152.693C122.848 146.163 127.673 150.94 127.223 159.143C126.853 163.87 123.463 168.367 119.173 170.29C116.923 163.615 115.723 159.779 114.448 153.529C115.008 153.394 115.543 153.119 115.998 152.698L115.993 152.693ZM92.2534 126.126L68.2684 116.291L68.8834 114.458L92.7484 123.673L92.2584 126.121L92.2534 126.126ZM94.1434 116.702L74.3234 109.05C84.1134 105.639 92.6784 99.585 99.1484 91.7377L94.1434 116.707V116.702ZM106.478 90.7913L108.043 90.9866L100.878 133.378H97.9434L106.483 90.7863L106.478 90.7913ZM55.9884 105.129C46.9784 105.129 38.5334 102.675 31.2734 98.4082C39.1434 96.355 35.7484 89.1988 31.0884 91.3571C28.6684 92.7693 25.9634 93.18 23.4834 92.7293C19.1334 92.0783 15.4684 88.067 15.4734 83.6C15.3734 79.8842 17.3784 76.1133 20.9984 74C24.6634 71.8517 21.4084 66.2429 17.7284 68.3762C14.7484 70.1139 12.4634 72.5778 10.9734 75.3822C-3.14661 44.1834 21.5784 6.26418 55.9934 7.03539C120.563 8.73304 120.558 103.441 55.9934 105.129H55.9884ZM77.5184 224.49C77.5184 224.53 77.4234 224.575 77.3934 224.54L73.8984 222.642C73.7634 222.567 73.7034 222.412 73.7484 222.267C73.7984 222.172 80.2484 195.43 80.2834 195.315L86.7834 194.058L77.5184 224.49ZM88.0534 257.932C88.0284 258.208 87.8684 258.473 87.5734 258.513L81.0634 259.485L99.1634 190.051L103.533 188.098L88.0534 257.932ZM106.813 178.959C96.5434 183.646 85.6584 187.172 74.5384 189.285V189.3C70.8634 190.046 67.2834 190.482 63.5834 191.078C59.2784 191.789 54.3984 192.59 51.6134 190.567C50.0234 189.41 50.0434 185.94 50.0584 183.151C50.1484 168.077 53.3984 153.374 56.0034 138.631C57.3034 132.081 59.2834 125.115 64.0784 122.15L89.8534 132.717L85.0384 155.608C80.1534 157.16 75.3534 158.532 70.3184 159.814C68.4434 160.29 67.3134 162.198 67.7884 164.076C68.2634 165.954 70.1734 167.085 72.0434 166.61C83.8784 163.595 94.4284 160.14 107.588 154.947C109.128 162.498 110.663 167.015 113.588 175.644C111.363 176.811 109.103 177.917 106.813 178.964V178.959ZM113.538 197.102C112.123 198.094 110.008 197.598 108.938 196.061L111.498 184.513C114.168 183.251 116.798 181.909 119.388 180.491C120.668 179.79 121.338 178.398 121.183 177.026C121.868 176.756 122.538 176.445 123.193 176.095L113.543 197.102H113.538ZM146.893 313.079H111.503C110.138 313.079 109.573 312.102 109.393 311.686C109.213 311.271 108.898 310.184 109.843 309.193L121.728 296.693H147.253L146.898 313.079H146.893ZM209.768 135.466C207.873 139.157 204.183 141.736 200.118 142.402L209.033 122.486C211.998 125.891 211.638 131.61 209.773 135.466H209.768ZM221.828 54.5947C211.253 47.3934 201.623 43.5174 197.878 42.1553L194.578 33.5068C193.798 31.6789 191.958 27.5925 192.578 25.4992C193.453 22.6498 194.138 20.9521 194.603 19.9706C200.028 22.5546 215.833 31.0028 230.788 39.1856L221.828 54.5947Z" fill="black"/>
<path d="M30.9583 37.3328C32.3283 40.4727 32.4734 46.8377 37.3284 45.8161C42.2484 44.1234 38.7183 38.7701 37.8983 35.4148C36.4783 30.9078 29.7934 32.7507 30.9534 37.3328H30.9583Z" fill="black"/>
<path d="M53.6584 26.7862C52.6684 26.1251 51.6784 25.4641 50.6884 24.8031C46.5734 22.4844 43.0784 28.4838 47.0534 31.0278C48.0434 31.6888 49.0334 32.3499 50.0284 33.0109C54.1434 35.3295 57.6384 29.3301 53.6634 26.7862H53.6584Z" fill="black"/>
<path d="M62.7034 15.5336C61.7034 15.2331 60.7034 14.9277 59.7034 14.6272C55.1184 13.4704 53.2934 20.1708 57.7884 21.5831C58.7884 21.8835 59.7884 22.189 60.7884 22.4895C65.3734 23.6463 67.1984 16.9458 62.7034 15.5336Z" fill="black"/>
<path d="M25.7335 78.2467C25.7335 78.2467 22.3185 79.9593 22.3185 79.9543C19.0235 81.4667 20.3385 86.7299 23.8885 86.5947C25.0635 86.7249 27.8035 84.9371 28.8685 84.5115C32.9535 82.4432 29.8385 76.2085 25.7385 78.2417L25.7335 78.2467Z" fill="black"/>
<path d="M51.9235 64.7506C53.3885 72.5128 64.7985 70.6499 63.7285 62.8226C62.2535 55.0555 50.8435 56.9334 51.9235 64.7506Z" fill="black"/>
<path d="M90.6284 44.6242C89.1534 36.857 77.7434 38.735 78.8234 46.5522C80.2884 54.3143 91.6984 52.4514 90.6284 44.6242Z" fill="black"/>
</g>
<defs>
<clipPath id="clip0_191_935">
<rect width="239" height="320" fill="white"/>
</clipPath>
</defs>
</svg>
