<svg width="56" height="41" viewBox="0 0 56 41" fill="none" xmlns="http://www.w3.org/2000/svg">
<g clip-path="url(#clip0_151_602)">
<path d="M14.7273 10.5249C12.3342 7.07082 9.78827 3.98542 6.60116 3.98542C5.0086 3.98542 2.89915 5.15067 0.152037 7.54762C-0.0328518 7.70892 -0.0517407 7.98914 0.109815 8.17373C0.27126 8.3581 0.552038 8.37707 0.736927 8.21577C3.90349 5.45285 5.67382 4.87289 6.60116 4.87289C9.86649 4.87289 12.5888 8.91965 15.2215 12.8331C16.6955 15.024 18.0876 17.0935 19.5694 18.4636C22.1092 20.8123 25.1408 21.6694 27.5765 22.3581C29.2 22.8171 30.602 23.2135 31.4948 23.9195C32.4155 24.6475 33.2881 25.9498 34.2982 27.4577C35.8062 29.7086 37.5154 32.26 40.0654 33.9376C42.88 35.7894 46.0678 36.3737 48.629 36.8432C49.8958 37.0754 50.99 37.2759 51.6742 37.5809C53.6441 38.4589 55.1674 40.7746 55.1825 40.7977C55.2676 40.9288 55.4103 41.0001 55.5559 41C55.6387 41 55.7224 40.9769 55.7972 40.9286C56.0032 40.7953 56.062 40.5205 55.9284 40.3149C55.861 40.2108 54.25 37.757 52.0366 36.7705C51.2552 36.4221 50.1125 36.2128 48.7894 35.9703C46.4731 35.5456 43.6281 35.0238 41.0935 33.5316V29.4381C41.9324 28.6768 42.2483 27.4834 41.8785 26.3986L40.6629 22.8316C40.6111 22.6796 40.5462 22.5333 40.4703 22.3933C41.0447 21.8936 41.378 21.1749 41.378 20.396C41.378 18.9319 40.1849 17.7406 38.7183 17.7406C37.6279 17.7406 36.6816 18.3906 36.2732 19.352L35.1323 18.647C36.7629 16.6211 37.661 14.0722 37.661 11.468C37.6612 5.14457 32.5083 0 26.1746 0C20.1592 0 15.2094 4.64093 14.7273 10.5249ZM32.0467 23.2238C31.5227 22.8095 30.8825 22.4978 30.1551 22.2276C31.0347 21.9019 31.8722 21.4682 32.647 20.94L36.6496 23.8518C36.9212 24.0495 37.1061 24.3397 37.1702 24.6692L37.5219 26.48C37.6182 26.9761 37.4283 27.4751 37.0263 27.7822L36.0844 28.502C35.7209 27.9837 35.3734 27.4662 35.0371 26.9643C33.9852 25.3944 33.077 24.0384 32.0467 23.2238ZM38.4853 31.4693L40.2049 30.1378V32.954C39.5846 32.5104 39.0142 32.0089 38.4853 31.4693ZM41.0372 26.6846C41.3091 27.4821 41.0437 28.3649 40.377 28.8813L37.8795 30.8153C37.4266 30.3019 37.0037 29.766 36.6032 29.2232L37.5665 28.487C38.2382 27.9737 38.5554 27.1398 38.3944 26.3109L38.0427 24.5001C37.9359 23.9497 37.627 23.4648 37.1731 23.1345L33.3937 20.3852C33.7985 20.0588 34.1817 19.7045 34.5402 19.3248L38.99 22.0742C39.3789 22.3145 39.6742 22.685 39.8215 23.1173L41.0372 26.6846ZM38.7186 18.6282C39.695 18.6282 40.4894 19.4212 40.4894 20.3961C40.4894 20.8946 40.2845 21.3565 39.9286 21.6872C39.785 21.5497 39.6284 21.4251 39.4576 21.3196L37.0421 19.8271C37.2809 19.1183 37.9455 18.6282 38.7186 18.6282ZM36.7723 11.4683C36.7723 16.387 33.4494 20.598 28.6786 21.7502C28.3994 21.6686 28.1128 21.5873 27.8187 21.5042C25.3523 20.8069 22.5567 20.0165 20.1733 17.8126C18.7677 16.5128 17.4035 14.4851 15.9594 12.3383C15.8342 12.1522 15.7087 11.9658 15.5831 11.7795C15.5801 11.6753 15.5769 11.5706 15.5769 11.4683C15.5771 5.63401 20.3312 0.887472 26.1746 0.887472C32.0181 0.887472 36.7723 5.63401 36.7723 11.4683ZM42.7786 20.806C42.7274 20.9455 42.7493 21.1012 42.8371 21.221C43.1396 21.634 44.6953 23.7112 45.6175 24.0495C45.8522 24.1355 46.0925 24.1764 46.3292 24.1764C47.1728 24.1764 47.9672 23.6576 48.2748 22.8222C48.6684 21.7524 48.117 20.5623 47.0455 20.1691C46.1231 19.8308 43.5906 20.4083 43.0923 20.5276C42.9476 20.5622 42.83 20.6667 42.7786 20.806ZM46.739 21.0023C47.3504 21.2265 47.6652 21.9057 47.4404 22.5161C47.2159 23.1265 46.5356 23.4411 45.9242 23.2164C45.5201 23.0682 44.6503 22.1028 43.9713 21.2434C45.046 21.0275 46.3353 20.854 46.739 21.0023ZM44.2189 14.6813C43.7349 14.6919 43.2836 14.89 42.9486 15.2392C42.3627 15.8503 41.9524 18.0137 41.8762 18.4411C41.8501 18.5873 41.8989 18.7369 42.0063 18.8396C42.09 18.9195 42.2004 18.9627 42.3137 18.9627C42.346 18.9627 42.3785 18.9593 42.4107 18.952C42.8351 18.8572 44.982 18.3538 45.5681 17.7428C45.903 17.3936 46.0815 16.9351 46.071 16.4516C46.0604 15.9682 45.8619 15.5178 45.5122 15.1835C45.1623 14.8493 44.7044 14.6729 44.2189 14.6813ZM44.926 17.1292C44.7133 17.3509 43.8045 17.6749 42.8873 17.9208C43.0935 16.9953 43.3782 16.0748 43.5907 15.8531C43.7614 15.6751 43.9914 15.574 44.2382 15.5687C44.4823 15.5642 44.719 15.6542 44.8974 15.8249C45.2655 16.1765 45.2783 16.7617 44.926 17.1292Z" fill="white"/>
</g>
<defs>
<clipPath id="clip0_151_602">
<rect width="56" height="41" fill="white"/>
</clipPath>
</defs>
</svg>
