<svg width="46" height="56" viewBox="0 0 46 56" fill="none" xmlns="http://www.w3.org/2000/svg">
<g clip-path="url(#clip0_151_591)">
<path fill-rule="evenodd" clip-rule="evenodd" d="M24.6904 35.9767C16.3864 35.9767 9.65576 29.2483 9.65576 20.9751C9.65576 12.7036 16.3842 5.94043 24.6904 5.94043C32.9619 5.94043 39.692 12.7013 39.692 20.9751C39.692 29.2466 32.9636 35.9767 24.6904 35.9767ZM24.6904 7.25551C17.1087 7.25551 10.9692 13.4258 10.9692 20.9768C10.9692 28.526 17.1064 34.6655 24.6904 34.6655C32.2397 34.6655 38.3792 28.5283 38.3792 20.9768C38.3792 13.4275 32.2419 7.25551 24.6904 7.25551Z" fill="white"/>
<path fill-rule="evenodd" clip-rule="evenodd" d="M17.3054 29.3449C16.2219 29.3449 15.3355 28.4585 15.3355 27.4079V25.1425C15.3355 24.9127 15.4668 24.7157 15.6638 24.5844C15.8608 24.453 16.0906 24.453 16.3205 24.5844C16.9114 24.9127 17.6665 24.9127 18.2903 24.5844C18.4873 24.453 18.7171 24.453 18.9141 24.5844C19.1111 24.7157 19.2425 24.9127 19.2425 25.1425V27.4079C19.2425 28.4585 18.356 29.3449 17.3054 29.3449ZM16.6487 26.0618V27.4078C16.6487 27.7361 16.9442 28.0316 17.3054 28.0316C17.6337 28.0316 17.9292 27.7362 17.9292 27.4078V26.0618C17.5024 26.1603 17.0756 26.1603 16.6487 26.0618ZM18.5858 21.0057C18.4873 21.0057 18.3888 20.9729 18.2903 20.9072C17.6665 20.5789 16.9114 20.5789 16.3204 20.9072C16.0906 21.0386 15.8608 21.0057 15.6638 20.9072C15.4668 20.7759 15.3354 20.5789 15.3354 20.3491V14.5402C15.3354 13.4567 16.2219 12.5703 17.3053 12.5703C18.3559 12.5703 19.2424 13.4567 19.2424 14.5402V20.3491C19.2424 20.5789 19.111 20.7759 18.9141 20.9072C18.8156 20.9729 18.7171 21.0057 18.5858 21.0057ZM17.3053 13.8834C16.9442 13.8834 16.6487 14.1789 16.6487 14.5401V19.3992C17.0755 19.3335 17.5023 19.3335 17.9291 19.3992V14.5401C17.9291 14.1789 17.6336 13.8834 17.3053 13.8834Z" fill="white"/>
<path fill-rule="evenodd" clip-rule="evenodd" d="M24.6906 29.345C23.6072 29.345 22.7207 28.4586 22.7207 27.408V20.581C22.7207 20.3512 22.8521 20.1213 23.0491 20.0229C23.2461 19.8915 23.4759 19.8915 23.6729 19.99C24.2967 20.3183 25.0518 20.3183 25.6756 19.99C25.8726 19.8915 26.1024 19.8915 26.2994 20.0229C26.4964 20.1213 26.6277 20.3512 26.6277 20.581V27.408C26.6277 28.4586 25.7412 29.345 24.6906 29.345ZM24.034 21.5005V27.408C24.034 27.7363 24.3295 28.0318 24.6906 28.0318C25.0189 28.0318 25.3144 27.7363 25.3144 27.408V21.5005C24.8876 21.5661 24.4608 21.5661 24.034 21.5005ZM23.3773 16.4116C23.246 16.4116 23.1475 16.3788 23.049 16.3131C22.852 16.2146 22.7207 15.9848 22.7207 15.755V14.5402C22.7207 13.4567 23.6071 12.5703 24.6906 12.5703C25.7412 12.5703 26.6276 13.4567 26.6276 14.5402V15.755C26.6276 15.9848 26.4963 16.2146 26.2993 16.3131C26.1023 16.4444 25.8725 16.4444 25.6755 16.3459C25.0517 16.0176 24.2966 16.0176 23.7056 16.3459C23.6071 16.3788 23.4758 16.4116 23.3773 16.4116ZM24.6906 14.77C24.8876 14.77 25.1174 14.8029 25.3144 14.8357V14.5402C25.3144 14.1791 25.019 13.8836 24.6906 13.8836C24.3295 13.8836 24.034 14.179 24.034 14.5402V14.8357C24.231 14.8029 24.4608 14.77 24.6906 14.77Z" fill="white"/>
<path fill-rule="evenodd" clip-rule="evenodd" d="M32.0773 29.3452C30.9939 29.3452 30.1075 28.4588 30.1075 27.4082V23.3699C30.1075 23.1401 30.2388 22.9431 30.4358 22.8118C30.6328 22.6805 30.8626 22.6805 31.0596 22.779C31.3879 22.9431 31.7162 23.0416 32.0774 23.0416C32.4057 23.0416 32.734 22.9431 33.0623 22.779C33.2593 22.6805 33.4891 22.6805 33.6861 22.8118C33.8831 22.9431 34.0144 23.1401 34.0144 23.3699V27.4082C34.0144 28.4588 33.128 29.3452 32.0773 29.3452ZM31.4207 24.2892V27.4082C31.4207 27.7365 31.7162 28.032 32.0773 28.032C32.4057 28.032 32.7012 27.7365 32.7012 27.4082V24.2892C32.5042 24.322 32.2743 24.3549 32.0773 24.3549C31.8475 24.3549 31.6177 24.322 31.4207 24.2892ZM33.3577 19.2003C33.2593 19.2003 33.1608 19.2003 33.0623 19.1346C32.4385 18.8063 31.6834 18.8063 31.0595 19.1346C30.8626 19.2331 30.6327 19.2331 30.4357 19.1346C30.2387 19.0033 30.1074 18.7735 30.1074 18.5437V14.5382C30.1074 13.4548 30.9939 12.5684 32.0773 12.5684C33.1279 12.5684 34.0143 13.4548 34.0143 14.5382V18.5437C34.0143 18.7735 33.883 19.0033 33.686 19.1346C33.5875 19.1675 33.4891 19.2003 33.3577 19.2003ZM32.0773 17.5587C32.2743 17.5587 32.5041 17.5916 32.7011 17.6244V14.5382C32.7011 14.1771 32.4056 13.8816 32.0773 13.8816C31.7161 13.8816 31.4206 14.1771 31.4206 14.5382V17.6244C31.6176 17.5916 31.8475 17.5587 32.0773 17.5587Z" fill="white"/>
<path fill-rule="evenodd" clip-rule="evenodd" d="M32.0771 24.3577C31.1578 24.3577 30.3042 23.9965 29.6476 23.3727C28.3343 22.0594 28.3343 19.8926 29.6476 18.5793C30.3042 17.9227 31.1578 17.5615 32.0771 17.5615C32.9635 17.5615 33.8172 17.9227 34.4738 18.5793C35.7871 19.8926 35.7871 22.0594 34.4738 23.3727C33.8171 23.9965 32.9635 24.3577 32.0771 24.3577ZM32.0771 18.8748C31.5189 18.8748 30.9936 19.1046 30.5997 19.4986C29.7789 20.3193 29.7789 21.6326 30.5997 22.4534C30.9936 22.8145 31.5189 23.0444 32.0771 23.0444C32.6024 23.0444 33.1277 22.8145 33.5217 22.4534C34.3424 21.6326 34.3424 20.3193 33.5217 19.4986C33.1277 19.1046 32.6024 18.8748 32.0771 18.8748Z" fill="white"/>
<path fill-rule="evenodd" clip-rule="evenodd" d="M24.6904 21.5666C23.7711 21.5666 22.9174 21.2055 22.2608 20.5489C20.9476 19.2356 20.9476 17.1016 22.2608 15.7554C22.9175 15.1316 23.7711 14.7705 24.6904 14.7705C25.5768 14.7705 26.4305 15.1317 27.087 15.7554C28.4003 17.1015 28.4003 19.2356 27.087 20.5489C26.4304 21.2055 25.5768 21.5666 24.6904 21.5666ZM24.6904 16.0837C24.1322 16.0837 23.6069 16.3136 23.213 16.7076C22.3922 17.4955 22.3922 18.8088 23.213 19.6295C23.6069 20.0235 24.1322 20.2533 24.6904 20.2533C25.2157 20.2533 25.741 20.0235 26.1349 19.6295C26.9557 18.8088 26.9557 17.4955 26.1349 16.7076C25.741 16.3136 25.2157 16.0837 24.6904 16.0837Z" fill="white"/>
<path fill-rule="evenodd" clip-rule="evenodd" d="M17.3052 26.1305C16.3859 26.1305 15.5322 25.7693 14.9085 25.1455C13.5624 23.8323 13.5624 21.6654 14.9085 20.3521C15.5323 19.6955 16.3859 19.3672 17.3052 19.3672C18.1916 19.3672 19.0453 19.6955 19.7018 20.3521C21.0151 21.6654 21.0151 23.8323 19.7018 25.1455C19.0452 25.7694 18.1916 26.1305 17.3052 26.1305ZM17.3052 20.6804C16.747 20.6804 16.2217 20.8774 15.8277 21.2714C15.007 22.0922 15.007 23.4055 15.8277 24.2262C16.2217 24.6202 16.747 24.8172 17.3052 24.8172C17.8633 24.8172 18.3558 24.6202 18.7497 24.2262C19.5705 23.4055 19.5705 22.0922 18.7497 21.2714C18.3558 20.8774 17.8633 20.6804 17.3052 20.6804Z" fill="white"/>
<path fill-rule="evenodd" clip-rule="evenodd" d="M18.8155 56C18.6514 56 18.5201 55.9672 18.3887 55.8358C18.2574 55.7373 18.1589 55.5404 18.1589 55.3434V46.3171H16.3204C15.6965 46.3171 15.0727 46.3171 14.4818 46.3499C13.9237 46.3499 13.3327 46.3827 12.8074 46.3827C9.09743 46.3827 5.45537 45.7261 5.45537 38.0457V33.2522C5.42253 33.2194 5.35687 33.2194 5.32404 33.2194C3.41983 32.8254 0.858913 32.3001 0.169489 30.7899C-0.0274996 30.3303 -0.158829 29.6079 0.399312 28.6887L4.79876 21.238C3.78099 15.5277 4.93009 10.5369 8.08194 6.72839C11.5949 2.52595 17.6007 0 24.1341 0C30.7309 0 36.7723 2.46235 40.6789 6.76089C44.1918 10.5694 45.7678 15.6891 45.2096 21.5328C44.8485 25.768 43.7322 28.1295 42.4517 30.8549C41.7294 32.3651 41.0072 33.9411 40.3177 36.0094C39.4969 38.439 39.1357 40.4417 39.2342 42.0156V53.2092C39.2342 53.5375 38.9716 53.8002 38.6433 53.833L18.8828 55.9999H18.8172L18.8155 56ZM16.3203 45.0036H18.8155C19.1767 45.0036 19.4722 45.2991 19.4722 45.6603V54.621L37.9192 52.6183V42.0488C37.8207 40.3744 38.2147 38.1747 39.0683 35.5832C39.7907 33.4492 40.5129 31.8733 41.2681 30.2974C42.4828 27.6708 43.5335 25.4054 43.9274 21.4022C44.4199 15.9521 42.9753 11.1936 39.725 7.64788C36.1135 3.67528 30.2717 1.3134 24.1322 1.3134C17.9619 1.3134 12.348 3.6773 9.09758 7.58232C6.14276 11.1281 5.12499 15.8538 6.10993 21.238C6.14276 21.4022 6.10993 21.5663 6.04426 21.6977L1.54636 29.345C1.21804 29.9031 1.31654 30.1657 1.3822 30.2314C1.77618 31.1507 4.23857 31.676 5.58464 31.9387C5.81447 31.9715 6.04428 32.0372 6.24129 32.07C6.53677 32.1357 6.76659 32.3983 6.76659 32.7266V38.0454C6.76659 44.5765 9.26178 45.0691 12.8052 45.0691C13.3305 45.0691 13.8887 45.0362 14.4468 45.0362C15.0706 45.0034 15.6944 45.0034 16.3182 45.0034L16.3203 45.0036Z" fill="white"/>
<path fill-rule="evenodd" clip-rule="evenodd" d="M18.8155 46.3172C18.4872 46.3172 18.2245 46.0873 18.1589 45.759C18.126 45.3979 18.3559 45.0695 18.717 45.0039C18.7827 45.0039 23.6746 44.2816 28.6628 42.7713C28.9911 42.6728 29.3851 42.837 29.4836 43.1981C29.582 43.5593 29.3851 43.9204 29.0567 44.0189C23.935 45.562 18.9798 46.3171 18.9137 46.3171L18.8155 46.3172Z" fill="white"/>
</g>
<defs>
<clipPath id="clip0_151_591">
<rect width="46" height="56" fill="white"/>
</clipPath>
</defs>
</svg>
