<svg width="216" height="327" viewBox="0 0 216 327" fill="none" xmlns="http://www.w3.org/2000/svg">
<g clip-path="url(#clip0_192_984)">
<path d="M118.886 199.394L165 190L168.875 227.135L184.249 292.708L184.585 319.051L161.176 321.238L154.905 270.039L145.611 238.844L118.886 199.394Z" fill="#D3B8B9"/>
<path d="M132 80L153.5 14L132 32L132 54L101.5 62.9999L88.3319 62.9999L72.7845 101L59.9998 126L68 135.5L88.332 177.04L68 235L27.314 300.257L27.314 319L50.6782 316.936L72.7844 265.335L132 189.5L153.5 185L136 121.5L132 80Z" fill="#D3B8B9"/>
<path d="M184.712 307.453C186.003 300.947 188.635 285.074 188.143 265.66C187.385 235.835 179.37 210.671 164.9 192.257C165.069 192.191 165.241 192.141 165.403 192.047C167.063 191.072 167.614 188.938 166.641 187.284L140.299 142.569L143.275 141.296C145.044 140.54 145.864 138.495 145.105 136.728C144.815 136.052 144.301 135.569 143.719 135.206C143.737 135.1 143.794 135.011 143.802 134.902C145.493 112.714 138.559 92.5395 136.521 87.1719C138.423 82.5042 145.129 66.0719 150.474 53.2645C156.867 37.9449 158.211 29.2141 158.265 28.8506C158.355 28.2423 158.225 27.6493 158.002 27.0873C159.42 25.6802 160.789 23.8587 161.344 21.635C163.12 14.5518 160.446 9.77199 153.4 7.42623C147.161 5.35118 142.602 9.78728 140.215 13.8308C139.63 14.0832 139.106 14.4845 138.726 15.0308L133.368 22.7227C133.188 21.5456 131.007 9.04754 118.786 6.08774C117.35 5.73953 115.962 5.34205 114.608 4.95647C106.143 2.54277 96.5522 -0.195367 89.0367 14.4907C82.9135 26.4524 87.7143 37.0487 91.8044 41.9323V52.7004C91.4714 52.5643 91.2177 52.4645 91.1392 52.4356C89.7324 51.9226 88.1436 52.3626 87.2046 53.538C85.677 55.4625 72.2144 72.5691 69.8873 80.865C69.5437 82.0897 67.3781 85.548 65.2858 88.8943C55.6269 104.324 37.6479 133.048 59.5803 148.491C59.9154 148.727 60.2896 148.902 60.686 149.008L82.6905 154.897L76.7257 194.506C76.5794 195.478 76.8516 196.466 77.4742 197.224C77.5531 197.32 77.6718 197.366 77.7596 197.453C76.403 202.278 70.1131 222.841 56.1695 243.728C39.8695 268.144 20.8817 305.03 20.6929 305.401C20.6727 305.44 20.6804 305.486 20.6617 305.526C20.6372 305.579 20.5908 305.612 20.5687 305.666C19.9257 307.235 16.8416 315.314 19.4188 320.403C20.4037 322.349 22.0606 323.664 24.2057 324.197C24.4285 324.255 40.2982 328.111 51.5425 328.107C56.093 328.107 59.8848 327.479 61.5774 325.709C62.8481 324.381 63.2632 322.58 62.7205 320.77C61.4791 316.638 59.216 313.86 57.3563 312.129C64.5379 300.378 93.8164 252.749 102.955 242.284C109.714 234.538 116.085 221.057 120.104 211.512C127.394 220.458 144.919 243.261 147.031 258.254C149.79 277.843 148.514 314.046 148.501 314.41C148.463 315.453 148.895 316.458 149.678 317.148C149.806 317.26 149.966 317.313 150.106 317.404C149.911 319.011 150.025 320.943 151.09 322.652C151.944 324.021 153.686 325.689 157.152 325.872L158.551 325.947C170.755 326.63 179.774 326.918 186.466 326.918C204.685 326.918 205.637 324.788 206.57 322.709C207.322 321.031 206.91 319.173 205.471 317.736C200.944 313.214 190.142 309.246 184.712 307.453ZM132.666 144.011L133.107 144.086L156.739 184.2L135.8 192.809C133.04 179.806 130.292 160.895 132.666 144.011ZM151.195 14.027C155.251 15.3757 155.339 16.9401 154.584 19.95C154.193 21.5184 152.083 23.1652 150.874 23.8975C148.559 23.1098 146.193 21.8237 145.646 19.8515L145.467 18.8707C145.848 17.9866 148.148 13.0029 151.195 14.027ZM125.651 38.5564C126.063 39.2783 126.148 39.7029 126.165 39.8796C125.246 40.469 124.651 41.4678 124.569 42.5685C124.444 44.3129 123.579 48.2656 121.712 49.3442C120.803 49.8622 119.429 49.6839 117.598 48.7972C117.357 48.6783 117.098 48.5883 116.833 48.5305C115.72 48.2825 114.019 48.4507 112.583 49.6567C110.702 51.2415 109.882 53.9915 110.076 58.0682L110.392 64.6723C110.397 64.7715 110.451 64.86 110.465 64.9579C106.194 61.0791 102.102 58.238 98.7721 56.2623V42.7551L103.146 40.5709C104.389 39.9492 105.143 38.643 105.066 37.257C104.956 35.3002 105.318 31.8198 106.442 30.5696C106.652 30.3369 106.818 30.2571 107.126 30.2401C108.405 30.1704 110.494 30.3301 112.699 30.4966C116.143 30.7579 120.123 31.0528 123.679 30.6942C123.522 32.5463 123.772 35.2741 125.651 38.5564ZM71.1937 92.5819C74.0771 87.9736 75.9824 84.9297 76.5965 82.742C78.0526 77.5527 86.3795 66.0176 91.0151 59.9791C97.0404 62.9007 113.516 72.53 122.637 93.8627C123.392 95.6326 125.451 96.4343 127.21 95.6971C128.979 94.9413 129.802 92.8979 129.047 91.1313C126.432 85.0177 123.272 79.8274 119.921 75.3641C121.172 74.3774 121.669 72.671 120.949 71.1762L117.319 63.6345L117.037 57.7352C117.003 57.0269 117.013 56.4698 117.047 56.04C120.773 57.1645 123.494 56.356 125.219 55.3538C129.547 52.8433 130.921 47.3279 131.347 44.5762C131.922 43.9562 132.497 43.1035 132.84 41.9757C133.48 39.8592 133.099 37.5474 131.7 35.1031C131.657 35.0271 131.647 34.9726 131.606 34.8983C132.673 34.8679 133.713 34.4118 134.371 33.4691L140.431 24.7689C142.982 28.4633 147.453 30.2503 150.675 31.0928C149.78 34.7685 147.858 41.4406 144.044 50.5875C137.736 65.6965 129.54 85.8402 129.54 85.8402C129.196 86.6878 129.2 87.6407 129.554 88.4866C129.642 88.7057 138.658 110.703 136.855 134.376C136.802 135.073 137.012 135.704 137.325 136.274L134.861 137.328L124.239 135.516C123.954 132.194 121.972 129.431 118.752 128.003C113.922 125.856 105.795 126.995 101.004 127.967C100.691 127.215 100.136 126.567 99.3658 126.182C98.9924 125.996 94.3324 123.678 88.7581 121.223L99.1991 92.0961C99.8472 90.2871 98.9048 88.2964 97.0931 87.6492C95.2831 86.9969 93.2877 87.9431 92.6396 89.7521L82.3243 118.529C78.8462 117.159 75.4869 116.005 72.9799 115.504C71.0764 115.122 69.2579 116.349 68.8802 118.232C68.5026 120.116 69.7257 121.949 71.6122 122.326C76.8516 123.372 87.7983 128.324 93.7913 131.203L89.5555 149.532L63.1118 142.454C48.5673 131.607 59.6381 111.044 71.1937 92.5819ZM99.9888 135.329C105.041 134.087 112.907 133.024 115.921 134.359C116.904 134.795 117.35 135.454 117.323 136.431C117.285 137.875 116.095 139.866 113.573 140.824C109.476 142.383 102.304 142.101 98.5086 141.736L99.9888 135.329ZM91.2379 157.185C91.5339 157.264 91.8367 157.303 92.1395 157.303C92.7655 157.303 93.3864 157.135 93.9342 156.806C94.7439 156.32 95.3223 155.527 95.5349 154.606L96.9298 148.569C98.3358 148.729 101.148 148.995 104.42 148.994C108.222 148.994 112.617 148.634 116.057 147.326C118.758 146.298 120.96 144.469 122.415 142.263L125.795 142.84C123.22 160.799 126.009 180.436 128.883 193.987L84.1885 191.741L89.4632 156.71L91.2379 157.185ZM25.6363 317.264C25.095 316.197 25.4167 313.557 26.1116 311.018L51.4532 316.244C52.2259 316.77 54.1235 318.265 55.4091 321.075C50.117 321.819 34.4107 319.56 25.6363 317.264ZM97.7021 237.712C87.9326 248.902 57.7686 298.076 51.0679 309.059L29.0113 304.511C34.3919 294.282 49.0606 266.917 61.9669 247.587C77.2233 224.736 83.5563 202.761 84.6361 198.731L117.052 200.361C114.548 206.985 106.228 227.945 97.7021 237.712ZM123.064 204.166C123.775 202.314 124.216 201.1 124.35 200.727L130.078 201.015C130.135 201.019 130.193 201.019 130.255 201.019C130.337 201.019 130.407 200.979 130.488 200.973C131.91 206.717 133.08 210.402 133.231 210.874C133.708 212.348 135.075 213.286 136.549 213.286C136.902 213.286 137.26 213.231 137.617 213.119C139.447 212.528 140.454 210.568 139.866 208.74C139.829 208.629 138.743 205.202 137.379 199.685L155.698 192.153C190.676 230.608 180.258 294.102 177.732 306.77L155.587 310.415C155.849 300.111 156.234 273.634 153.931 257.283C151.237 238.145 127.91 209.867 123.064 204.166ZM158.942 319.003L157.52 318.921C157.258 318.911 157.091 318.884 157.003 318.881C156.96 318.502 157.095 317.797 157.292 317.186L180.399 313.382C184.914 314.763 191.495 317.185 196.132 319.665C190.868 320.07 180.271 320.195 158.942 319.003Z" fill="black"/>
<path d="M48.2596 181.101C49.7192 181.101 51.0783 180.18 51.5649 178.723C52.1739 176.899 51.1872 174.928 49.3619 174.323C6.47527 160.047 6.92776 126.508 6.97029 125.027C7.03493 123.109 5.53286 121.502 3.6123 121.433C1.63221 121.341 0.075698 122.87 0.0059526 124.786C-0.00765609 125.202 -0.291741 135.123 5.4444 147.02C10.6906 157.898 22.185 172.611 47.1573 180.921C47.523 181.043 47.8956 181.101 48.2596 181.101Z" fill="black"/>
<path d="M189.882 1.20432C188.623 -0.249682 186.429 -0.407651 184.973 0.842515C183.517 2.09608 183.353 4.29066 184.605 5.74806C185.014 6.22027 225.027 53.7521 201.361 116.344C200.681 118.141 201.589 120.147 203.389 120.826C203.794 120.979 204.212 121.052 204.62 121.052C206.029 121.052 207.352 120.193 207.88 118.8C233.046 52.2454 190.318 1.7071 189.882 1.20432Z" fill="black"/>
</g>
<defs>
<clipPath id="clip0_192_984">
<rect width="216" height="327" fill="white"/>
</clipPath>
</defs>
</svg>
