<svg width="283" height="269" viewBox="0 0 283 269" fill="none" xmlns="http://www.w3.org/2000/svg">
<g clip-path="url(#clip0_166_752)">
<path d="M69.9131 93.0692C69.734 91.9801 68.6981 91.2398 67.6234 91.4249L60.03 92.6717C58.9436 92.849 58.2076 93.8757 58.3867 94.9629C58.5464 95.9409 59.3914 96.6345 60.3493 96.6345C60.4583 96.6345 60.5674 96.6267 60.6764 96.6072L68.2698 95.3603C69.3562 95.183 70.0922 94.1563 69.9131 93.0692Z" fill="black"/>
<path d="M75.3024 100.733C75.4115 100.733 75.5205 100.725 75.6295 100.706L83.219 99.4589C84.3055 99.2816 85.0414 98.2549 84.8623 97.1678C84.6832 96.0787 83.6357 95.3384 82.5726 95.5235L74.9831 96.7704C73.8967 96.9477 73.1607 97.9744 73.3398 99.0615C73.4995 100.04 74.3445 100.733 75.3024 100.733Z" fill="black"/>
<path d="M90.2047 96.712C90.5785 96.712 90.9523 96.6088 91.2872 96.3925L97.7474 92.2136C98.6703 91.6154 98.9351 90.3803 98.3393 89.4548C97.7357 88.5236 96.5013 88.2684 95.5823 88.8626L89.1221 93.0416C88.1992 93.6397 87.9344 94.8749 88.5302 95.8003C88.9118 96.3906 89.5544 96.712 90.2047 96.712Z" fill="black"/>
<path d="M79.426 110.087C80.5125 109.908 81.2485 108.883 81.0693 107.794C80.8941 106.705 79.8427 105.977 78.7796 106.148L71.1863 107.393C70.0998 107.572 69.3638 108.597 69.543 109.686C69.7026 110.664 70.5476 111.358 71.5056 111.358C71.6146 111.358 71.7236 111.35 71.8327 111.332L79.426 110.087Z" fill="black"/>
<path d="M156.723 91.3135L146.041 91.5901C144.939 91.6194 144.071 92.535 144.098 93.6377C144.126 94.721 145.013 95.5801 146.092 95.5801C146.108 95.5801 146.127 95.5801 146.143 95.5801L156.824 95.3035C157.926 95.2743 158.794 94.3586 158.767 93.2578C158.74 92.159 157.934 91.3213 156.723 91.3135Z" fill="black"/>
<path d="M216.516 73.9624L206.734 78.2622C205.726 78.7064 205.27 79.8831 205.71 80.8923C206.041 81.6404 206.769 82.0846 207.536 82.0846C207.805 82.0846 208.078 82.0301 208.339 81.9171L218.12 77.6173C219.129 77.1731 219.585 75.9964 219.145 74.9872C218.701 73.978 217.525 73.5318 216.516 73.9624Z" fill="black"/>
<path d="M178.086 90.7627L167.404 91.0393C166.302 91.0686 165.434 91.9842 165.461 93.085C165.488 94.1702 166.376 95.0293 167.455 95.0293C167.47 95.0293 167.49 95.0293 167.505 95.0293L178.187 94.7527C179.289 94.7235 180.157 93.8078 180.13 92.7051C180.103 91.6082 179.273 90.7744 178.086 90.7627Z" fill="black"/>
<path d="M196.952 82.5663L187.17 86.8681C186.162 87.3103 185.706 88.487 186.146 89.4962C186.477 90.2444 187.205 90.6886 187.972 90.6886C188.241 90.6886 188.514 90.634 188.775 90.5191L198.556 86.2173C199.565 85.7751 200.025 84.5984 199.581 83.5892C199.133 82.58 197.965 82.1241 196.952 82.5663Z" fill="black"/>
<path d="M231.773 67.2545L226.298 69.6606C225.289 70.1048 224.834 71.2816 225.274 72.2907C225.605 73.0389 226.333 73.4831 227.1 73.4831C227.369 73.4831 227.641 73.4285 227.902 73.3155L233.377 70.9094C234.386 70.4652 234.841 69.2885 234.401 68.2793C233.957 67.2701 232.781 66.8259 231.773 67.2545Z" fill="black"/>
<path d="M278.05 55.4806C267.984 46.2104 249.139 57.2436 244.612 60.1304L240.943 51.2276C240.717 50.6763 240.258 50.2574 239.689 50.0821C239.125 49.9009 238.51 49.9905 238.007 50.3198L219.799 62.2605L179.889 78.203L129.101 80.8728L127.954 74.7079C127.627 73.7649 119.983 51.966 105.462 39.6979C106.821 37.6153 107.354 36.3937 107.413 36.2632C107.666 35.669 107.615 34.989 107.28 34.4377C102.991 27.4177 95.4791 26.2816 90.8452 26.7516C90.8136 26.6245 90.7761 26.5013 90.7418 26.3761C90.8518 26.3739 90.981 26.3525 91.0888 26.3525C91.1044 26.3525 91.1239 26.3525 91.1395 26.3525C91.1667 26.3505 91.194 26.3486 91.2173 26.3525C92.3193 26.3525 93.2111 25.4602 93.2111 24.3575C93.2111 24.1159 93.1721 23.886 93.0904 23.6717L92.3038 11.8166C92.3038 11.8179 92.3038 11.8154 92.3038 11.8166C92.3035 11.813 92.304 11.8067 92.3038 11.803C92.2738 11.3987 92.0901 11.0537 91.8533 10.7534C91.8216 10.712 91.8287 10.6516 91.7937 10.6126C91.4987 10.2831 85.3945 3.7536 74.9312 1.67677C74.7798 1.62271 74.6311 1.58666 74.4712 1.5701C72.6381 1.23476 70.7135 1 68.6241 1C63.9396 1 59.1304 2.00334 54.333 3.98276C54.1499 4.05874 53.9825 4.1581 53.8306 4.28279C53.3906 4.64321 43.0441 13.3733 46.8486 34.1493C46.8798 34.313 46.9304 34.4747 47.0005 34.6267C47.1005 34.8415 47.9238 36.592 49.3213 38.963L46.9576 42.8443C40.8401 42.3261 15.4782 41.2195 9.25162 58.2335C9.04524 58.7966 9.10365 59.4219 9.41128 59.9382C9.48161 60.058 10.1563 61.1318 11.8618 62.8491L0.213547 85.9628C-0.136917 86.6603 -0.0512481 87.4981 0.435508 88.1079L23.3052 116.687C23.3223 116.708 23.3493 116.715 23.367 116.735C23.3855 116.757 23.3906 116.785 23.4104 116.805C23.7725 117.195 32.3939 126.286 40.9725 126.286C41.027 126.286 41.0854 126.284 41.1399 126.284C44.407 126.239 47.2185 124.91 49.5394 122.292C50.7543 120.831 52.3314 117.129 49.59 113.564C49.4771 113.419 49.3486 113.291 49.2045 113.184L42.0782 107.838C42.2816 107.602 42.4442 107.334 42.5184 107.025C42.6508 106.491 42.5535 105.926 42.2575 105.465L28.4025 84.0906L33.8671 76.774C34.506 77.0645 35.1146 77.3528 35.7856 77.6458C36.2291 78.634 37.1286 80.5574 38.3703 83.0037C38.4122 83.0958 38.4501 83.1856 38.5044 83.2692C44.2644 94.5602 57.8111 117.495 75.6942 125.002C62.8066 127.074 41.7528 131.905 34.2514 142.031C33.9165 142.483 33.788 143.056 33.897 143.605C34.0061 144.155 34.3409 144.638 34.8199 144.926C38.3479 147.062 43.5192 151.196 43.9631 153.701C44.0838 154.383 44.5472 154.952 45.1897 155.209C45.4273 155.303 45.6765 155.349 45.9257 155.349C46.3463 155.349 46.7629 155.217 47.1134 154.956C51.1338 151.977 58.0248 147.083 65.3769 142.251L58.2893 172.003L55.6258 189.463C55.5323 190.059 55.7192 190.667 56.1281 191.111L100.575 239.568C100.941 239.966 101.451 240.199 101.992 240.215C102.008 240.215 102.027 240.215 102.043 240.215C102.565 240.215 103.067 240.008 103.441 239.642L104.056 239.038L108.23 243.352L109.449 251.632C109.453 251.674 109.698 255.711 107.175 256.845C106.163 257.492 101.116 260.894 101.081 264.654C101.073 265.737 101.451 267.288 103.55 268.659C103.593 268.679 105.489 269.571 108.347 269.571C112.026 269.571 117.296 268.033 122.287 261.353C122.319 261.305 122.362 261.267 122.39 261.217C122.648 260.868 122.908 260.57 123.164 260.192C123.978 259.308 126.688 256.872 129.398 256.187C129.558 256.148 129.714 256.085 129.862 256.007C130.267 255.789 133.865 253.751 134.745 250.213C135.181 248.472 134.862 246.664 133.822 244.976C133.44 243.854 132.011 240.799 127.342 238.688C124.83 236.549 119.057 230.712 117.767 225.572L126.236 217.253C127 216.505 127.035 215.281 126.314 214.486L93.507 178.401L98.3123 168.068L111.062 149.318C111.449 152.331 112.273 155.367 113.842 157.956C114.005 158.225 114.227 158.451 114.492 158.615C114.733 158.767 118.628 161.151 123.46 161.151C125.991 161.151 128.779 160.497 131.439 158.525C131.657 158.365 131.836 158.163 131.972 157.929C132.775 156.557 133.366 153.584 130.851 150.997L132.085 148.948C132.455 148.679 132.79 148.293 133.004 147.759C133.561 146.36 133.448 144.124 128.581 138.174L129.357 130.341L135.863 130.735C135.901 130.737 135.944 130.739 135.983 130.739C136.552 130.739 137.097 130.496 137.479 130.065C137.884 129.605 138.055 128.984 137.942 128.38L137.33 125.09L186.431 112.198L252.329 84.0263C253.334 83.5957 253.805 82.4404 253.389 81.4312L251.621 77.1407L258.727 75.3547L270.608 77.7705L275.406 80.4513C275.705 80.6188 276.04 80.7045 276.379 80.7045C276.574 80.7045 276.768 80.6753 276.959 80.6188C279.572 79.8239 281.461 78.1465 282.423 75.7677C285.293 68.6488 279.152 57.2535 278.439 55.9774C278.338 55.7924 278.205 55.6229 278.05 55.4806ZM103.269 35.6105C101.974 37.9435 97.7576 44.5079 87.8193 53.0955L84.2061 52.3092C86.8151 48.7892 88.4686 43.8243 90.1309 38.6615C91.018 35.9103 91.405 33.2317 91.3707 30.7319C94.0349 30.5054 99.6715 30.6949 103.269 35.6105ZM39.8885 77.0095C42.5182 75.5061 47.5245 72.0733 51.4679 66.3774C51.5835 66.3952 51.8069 66.4239 52.1834 66.4239C54.2984 66.4239 60.6798 65.5319 72.54 57.0887C72.5946 57.096 72.6337 57.1018 72.6895 57.1094C73.4371 57.2087 74.1497 57.2574 74.8312 57.2574C77.1873 57.257 79.1292 56.6688 80.7728 55.6472L87.1352 57.0317L87.5993 57.7786C80.9405 71.758 48.6036 78.5827 41.3208 79.9547C40.7252 78.7651 40.2455 77.7702 39.8885 77.0095ZM86.3381 37.436C83.8262 45.228 81.9237 49.7333 79.2648 51.827C79.2346 51.8462 79.2139 51.8769 79.1847 51.8976C77.5746 53.1281 75.6855 53.4876 73.2152 53.1544C72.136 53.011 71.4003 52.9068 70.7943 52.7748C72.6939 51.8428 74.3627 50.2847 74.9013 47.7734C75.022 47.1948 74.8818 46.5908 74.5197 46.1252C74.4496 46.0317 67.4792 36.9626 71.6926 31.3127C73.5746 30.5758 80.7017 27.8967 86.7484 26.8237C87.7424 29.7193 87.6246 33.4443 86.3381 37.436ZM85.5554 10.5349C81.8709 11.1068 76.4577 12.1997 70.8826 14.2753C68.7448 14.2909 66.4785 13.8389 66.1436 13.3674C66.1436 13.3467 66.1777 11.2512 74.6255 5.68893C79.4077 6.7366 83.1294 8.79443 85.5554 10.5349ZM56.1593 7.54609C60.3726 5.84917 64.5626 4.99 68.6241 4.99C68.6385 4.99 68.6511 4.99292 68.6655 4.99292C63.4586 8.91327 61.499 11.8846 62.3352 14.5383C63.3788 17.8581 68.2697 18.2673 70.6101 18.2673C70.8982 18.2673 71.1474 18.2614 71.346 18.2536C71.5602 18.2458 71.7744 18.203 71.973 18.127C78.616 15.6121 85.2573 14.5554 88.463 14.1565L89.0133 22.4424C81.3031 23.1126 70.2207 27.5994 69.7183 27.8059C69.4224 27.9247 69.1615 28.1137 68.9551 28.3553C63.0478 35.254 68.6903 44.7302 70.7269 47.6857C69.695 49.6106 66.6342 49.9301 65.7464 49.9827C58.0323 47.6974 51.6188 35.0066 50.7271 33.1694C47.7287 16.3424 54.8431 8.78128 56.1593 7.54609ZM47.7676 46.9337C48.5464 47.0292 49.3057 46.661 49.7107 45.9908L51.7169 42.6934C54.8387 47.1867 59.3057 52.1533 64.5293 53.7521C65.7444 54.6965 66.596 55.3365 67.3653 55.7729C56.9517 62.6032 52.2321 62.4485 52.3314 62.4982C41.7043 59.1808 42.2062 50.1766 42.8509 46.6498C45.7588 46.7089 47.6946 46.9252 47.7676 46.9337ZM38.8206 46.686C38.4248 49.4272 38.297 53.8631 40.478 58.0367C41.9954 60.9408 44.3725 63.214 47.6583 64.8658C43.81 70.0455 39.016 72.962 37.2298 73.9156C28.5271 70.1012 22.7442 66.5311 19.0135 63.7322C20.6836 61.9739 24.1699 58.9785 29.9952 57.1659C31.0466 56.8386 31.6346 55.7203 31.3075 54.6682C30.9843 53.6181 29.8862 53.0317 28.8114 53.3551C21.9394 55.494 17.8733 59.0691 15.9153 61.1987C14.6743 60.0797 13.8607 59.195 13.391 58.629C17.5934 49.2097 30.1096 47.0197 38.8206 46.686ZM46.5176 119.689C44.9911 121.411 43.2155 122.262 41.0893 122.294C41.0504 122.294 41.0075 122.296 40.9647 122.296C36.1305 122.296 30.902 118.26 28.1939 115.847L38.409 110.07L46.5721 116.196C47.7559 117.945 46.6967 119.459 46.5176 119.689ZM25.7908 80.9225C25.786 80.9283 25.7789 80.9305 25.774 80.9364L21.2258 86.559C20.5327 87.4143 20.6651 88.6709 21.5217 89.3645C21.8917 89.6626 22.3356 89.8087 22.7756 89.8087C23.3558 89.8087 23.9322 89.5554 24.3255 89.0683L25.74 87.3198L37.4282 105.351C37.0213 105.465 36.6375 105.677 36.3619 106.043C36.1801 106.287 36.0762 106.559 36.0193 106.839L25.3574 112.868L4.34902 86.6155L14.9342 65.6113C14.9671 65.6381 15.0058 65.6673 15.0389 65.6941C15.0401 65.695 15.0408 65.6963 15.0421 65.6972C15.0416 65.697 15.0425 65.6975 15.0421 65.6972C18.2189 68.2718 23.0558 71.5164 30.1887 75.0349L25.7908 80.9225ZM48.6776 93.0245L53.3166 92.2635C54.403 92.0842 55.139 91.0575 54.9599 89.9704C54.7808 88.8813 53.7411 88.1605 52.6702 88.3241L46.4349 89.3469C45.2309 87.3052 44.1651 85.3881 43.2391 83.6576C52.3387 81.8854 81.0152 75.3189 89.9819 61.6147L93.8178 67.7904L90.4619 70.0632C89.5507 70.6808 89.3093 71.9219 89.9284 72.8336C90.3139 73.4025 90.9409 73.7104 91.5795 73.7104C91.965 73.7104 92.3544 73.5993 92.6971 73.3675L95.7858 71.2758L99.1127 77.1838C98.5364 76.9605 97.8771 76.9749 97.3193 77.3341L90.8552 81.5111C89.9323 82.1092 89.6636 83.3425 90.2633 84.2698C90.6449 84.8601 91.2835 85.1816 91.9377 85.1816C92.3116 85.1816 92.6854 85.0783 93.0203 84.8621L99.4844 80.6851C99.9592 80.3772 100.253 79.9006 100.352 79.3849L103.655 85.2498L104.89 94.4372L100.96 96.9782C100.037 97.5763 99.7687 98.8115 100.368 99.7369C100.75 100.327 101.389 100.649 102.043 100.649C102.417 100.649 102.79 100.545 103.125 100.329L105.478 98.8081L107.296 112.337L97.4867 123.361C95.7695 123.899 88.3357 123.615 82.3701 123.018C80.9237 122.731 79.5004 122.304 78.0981 121.772L78.7213 121.627C79.7961 121.378 80.4659 120.306 80.2167 119.233C79.9674 118.161 78.9083 117.499 77.8218 117.739L72.4804 118.977C62.8166 113.077 54.5588 102.37 48.6776 93.0245ZM46.7668 150.261C44.8899 147.221 41.2256 144.408 38.8463 142.779C47.6352 133.784 70.1428 129.75 80.7735 128.3C68.4761 134.716 52.6858 145.955 46.7668 150.261ZM105.528 265.203C105.357 265.09 105.068 264.872 105.068 264.693C105.076 263.686 107.29 261.521 109.015 260.381C111.49 259.604 115.979 258.802 117.946 259.865C118.067 259.93 118.14 260.012 118.231 260.087C111.635 267.847 105.589 265.214 105.528 265.203ZM125.002 241.933C125.15 242.054 125.31 242.155 125.485 242.229C129.34 243.897 130.037 246.216 130.053 246.27C130.107 246.5 130.201 246.722 130.333 246.921C131.061 248.02 130.995 248.772 130.878 249.239C130.528 250.681 128.919 251.916 128.141 252.395C124.774 253.341 121.922 255.836 120.692 257.051C120.404 256.816 120.174 256.53 119.831 256.346C117.889 255.302 115.275 255.254 112.953 255.511C113.559 253.375 113.428 251.384 113.409 251.172L112.086 242.136C112.023 241.719 111.832 241.337 111.544 241.037L106.902 236.243L114.594 228.688C117.405 235.532 124.645 241.636 125.002 241.933ZM94.8583 166.1L89.3341 177.915L83.4448 188.816C82.9191 189.783 83.2813 190.995 84.2509 191.517C84.5507 191.68 84.8739 191.758 85.1971 191.758C85.9059 191.758 86.5912 191.38 86.9495 190.71L91.5539 182.187L122.074 215.753L102.117 235.352L59.7106 189.12L62.1989 172.767L70.2211 139.124C79.7618 133.088 89.2153 127.863 93.5421 127.632C93.6209 127.627 93.6857 127.588 93.7616 127.575C96.6953 127.495 99.1113 127.147 100.209 126.301L107.997 117.548L109.336 127.513C109.43 128.223 109.893 128.808 110.52 129.079L111.762 134.969C111.531 136.065 110.984 138.981 110.82 142.585L94.8583 166.1ZM124.986 140.089C128.004 143.687 128.877 145.452 129.13 146.165C129.067 146.243 129.005 146.329 128.951 146.419L126.548 150.409C125.999 151.321 126.264 152.505 127.152 153.097C128.694 154.126 128.771 155.081 128.639 155.618C123.916 158.747 118.515 156.269 117.004 155.459C112.868 147.977 115.715 135.563 115.742 135.437C115.812 135.15 115.812 134.854 115.754 134.566L114.675 129.451L125.37 130.099L124.527 138.61C124.476 139.144 124.64 139.678 124.986 140.089ZM113.067 125.356L107.553 84.34C107.522 84.0886 107.44 83.8471 107.315 83.625L97.3037 65.8472L90.9759 55.6579C96.743 50.6237 100.614 46.2655 103.145 42.9632C116.642 54.5611 124.087 75.7248 124.11 75.7229L127.567 94.3413C127.485 94.5685 127.433 94.811 127.44 95.067C127.452 95.5375 127.647 95.9483 127.928 96.2822L133.051 123.872C133.062 123.964 133.043 124.053 133.067 124.144C133.074 124.175 133.106 124.188 133.115 124.217L133.557 126.599L113.067 125.356ZM185.142 108.432L136.598 121.156L132.092 96.9441L135.461 96.8574C136.563 96.8282 137.432 95.9125 137.405 94.8118C137.377 93.713 136.599 92.8694 135.36 92.8674L131.352 92.9707L129.838 84.8312L180.426 82.1716C180.644 82.1599 180.858 82.1131 181.061 82.0313L221.465 65.8921C221.59 65.8433 221.707 65.781 221.82 65.707L238.179 54.978L248.953 81.1312L185.142 108.432ZM278.723 74.2753C278.303 75.3177 277.602 76.0443 276.55 76.5197L272.405 74.2035C272.117 73.9814 269.379 71.739 271.001 67.324C271.379 66.2895 270.85 65.1439 269.818 64.764C268.778 64.388 267.637 64.916 267.255 65.9486C266.243 68.7097 266.391 71.0685 267.01 72.9678L259.078 71.3549C258.786 71.2965 258.482 71.3023 258.194 71.3744L250.085 73.4128L246.158 63.8827C248.674 62.2367 266.678 50.9427 275.113 58.2082C276.862 61.4579 280.503 69.8704 278.723 74.2753Z" fill="black"/>
<path d="M42 82.418L68.5 76.5L90 62.5L103.5 83.5L108.451 108.461L107 113L101 120L98 123L92.5 124.5L79.5 123L67 116.5L57 105L42 82.418Z" fill="#9B050E" fill-opacity="0.71"/>
<path d="M39.1969 139.596L72 127.5L83 127.5L45.9999 152L37.5 143L39.1969 139.596Z" fill="black"/>
</g>
<defs>
<clipPath id="clip0_166_752">
<rect width="283" height="269" fill="white"/>
</clipPath>
</defs>
</svg>
