<svg width="32" height="32" viewBox="0 0 32 32" fill="none" xmlns="http://www.w3.org/2000/svg">
<path d="M1 24.1818C1 20.4162 4.0526 17.3636 7.81818 17.3636C11.5838 17.3636 14.6364 20.4162 14.6364 24.1818C14.6364 27.9474 11.5838 31 7.81818 31C4.0526 31 1 27.9474 1 24.1818Z" fill="#248E73"/>
<path d="M17.3636 24.1818C17.3636 20.4162 20.4162 17.3636 24.1818 17.3636C27.9474 17.3636 31 20.4162 31 24.1818C31 27.9474 27.9474 31 24.1818 31C20.4162 31 17.3636 27.9474 17.3636 24.1818Z" fill="#248E73"/>
<path d="M1 7.81818C1 4.0526 4.0526 1 7.81818 1C11.5838 1 14.6364 4.0526 14.6364 7.81818C14.6364 11.5838 11.5838 14.6364 7.81818 14.6364C4.0526 14.6364 1 11.5838 1 7.81818Z" fill="#248E73"/>
<path fill-rule="evenodd" clip-rule="evenodd" d="M24.1818 1C20.4162 1 17.3636 4.0526 17.3636 7.81818C17.3636 11.5838 20.4162 14.6364 24.1818 14.6364C27.9474 14.6364 31 11.5838 31 7.81818C31 4.0526 27.9474 1 24.1818 1ZM24.1818 11.9091C26.4412 11.9091 28.2727 10.0775 28.2727 7.81818C28.2727 5.55884 26.4412 3.72727 24.1818 3.72727C21.9225 3.72727 20.0909 5.55884 20.0909 7.81818C20.0909 10.0775 21.9225 11.9091 24.1818 11.9091Z" fill="#248E73"/>
</svg>
