<svg width="319" height="65" viewBox="0 0 319 65" fill="none" xmlns="http://www.w3.org/2000/svg">
<g clip-path="url(#clip0_1418_57)">
<rect x="32" y="36" width="25" height="25" rx="12.5" fill="#248E73"/>
<rect x="3" y="36" width="25" height="25" rx="12.5" fill="#248E73"/>
<rect x="3" y="9" width="25" height="25" rx="12.5" fill="#248E73"/>
<path fill-rule="evenodd" clip-rule="evenodd" d="M44.5 9C37.5964 9 32 14.5964 32 21.5C32 28.4036 37.5964 34 44.5 34C51.4036 34 57 28.4036 57 21.5C57 14.5964 51.4036 9 44.5 9ZM44.5 29C48.6421 29 52 25.6421 52 21.5C52 17.3579 48.6421 14 44.5 14C40.3579 14 37 17.3579 37 21.5C37 25.6421 40.3579 29 44.5 29Z" fill="#248E73"/>
<path d="M88.981 51.57C82.445 51.57 76.802 49.442 72.052 45.186L77.239 38.973C81.153 42.203 85.124 43.818 89.152 43.818C90.938 43.818 92.344 43.495 93.37 42.849C94.396 42.165 94.909 41.234 94.909 40.056V39.942C94.909 38.802 94.377 37.89 93.313 37.206C92.249 36.484 90.102 35.705 86.872 34.869C84.592 34.299 82.749 33.748 81.343 33.216C79.937 32.646 78.588 31.905 77.296 30.993C76.042 30.081 75.111 28.96 74.503 27.63C73.933 26.262 73.648 24.609 73.648 22.671V22.557C73.648 18.947 74.94 16.04 77.524 13.836C80.146 11.632 83.509 10.53 87.613 10.53C93.275 10.53 98.215 12.221 102.433 15.603L97.873 22.215C94.111 19.593 90.653 18.282 87.499 18.282C85.865 18.282 84.592 18.605 83.68 19.251C82.806 19.897 82.369 20.733 82.369 21.759V21.873C82.369 23.165 82.92 24.134 84.022 24.78C85.124 25.426 87.442 26.205 90.976 27.117C95.308 28.257 98.5 29.72 100.552 31.506C102.604 33.254 103.63 35.781 103.63 39.087V39.201C103.63 43.077 102.281 46.117 99.583 48.321C96.923 50.487 93.389 51.57 88.981 51.57ZM107.771 60.12V20.448H116.435V24.837C118.867 21.531 122.04 19.878 125.954 19.878C129.754 19.878 133.022 21.303 135.758 24.153C138.494 26.965 139.862 30.803 139.862 35.667V35.781C139.862 40.645 138.494 44.502 135.758 47.352C133.06 50.164 129.792 51.57 125.954 51.57C122.154 51.57 118.981 50.05 116.435 47.01V60.12H107.771ZM118.43 41.88C119.874 43.438 121.641 44.217 123.731 44.217C125.821 44.217 127.588 43.438 129.032 41.88C130.476 40.322 131.198 38.289 131.198 35.781V35.667C131.198 33.197 130.476 31.183 129.032 29.625C127.588 28.029 125.821 27.231 123.731 27.231C121.641 27.231 119.874 28.029 118.43 29.625C117.024 31.183 116.321 33.197 116.321 35.667V35.781C116.321 38.251 117.024 40.284 118.43 41.88ZM170.46 47.067C167.306 50.145 163.373 51.684 158.661 51.684C153.949 51.684 150.016 50.164 146.862 47.124C143.746 44.046 142.188 40.303 142.188 35.895V35.781C142.188 31.335 143.765 27.573 146.919 24.495C150.111 21.417 154.063 19.878 158.775 19.878C163.487 19.878 167.401 21.417 170.517 24.495C173.671 27.535 175.248 31.259 175.248 35.667V35.781C175.248 40.227 173.652 43.989 170.46 47.067ZM158.775 44.217C161.169 44.217 163.088 43.419 164.532 41.823C165.976 40.227 166.698 38.251 166.698 35.895V35.781C166.698 33.463 165.938 31.487 164.418 29.853C162.936 28.181 161.017 27.345 158.661 27.345C156.267 27.345 154.348 28.143 152.904 29.739C151.46 31.335 150.738 33.311 150.738 35.667V35.781C150.738 38.099 151.479 40.094 152.961 41.766C154.481 43.4 156.419 44.217 158.775 44.217ZM189.273 51.513C186.423 51.513 184.219 50.829 182.661 49.461C181.141 48.055 180.381 45.68 180.381 42.336V27.858H176.733V20.448H180.381V12.639H189.045V20.448H196.227V27.858H189.045V40.911C189.045 42.887 189.976 43.875 191.838 43.875C193.358 43.875 194.783 43.514 196.113 42.792V49.746C194.137 50.924 191.857 51.513 189.273 51.513ZM206.946 51.228L197.541 20.448H206.319L211.221 38.973L216.978 20.334H224.445L230.259 39.03L235.275 20.448H243.882L234.363 51.228H226.554L220.683 32.475L214.698 51.228H206.946ZM246.75 17.085V9.39H255.87V17.085H246.75ZM246.978 51V20.448H255.642V51H246.978ZM260.189 51V44.901L275.978 27.459H260.702V20.448H286.751V26.547L270.905 43.989H286.751V51H260.189ZM289.742 51V44.901L305.531 27.459H290.255V20.448H316.304V26.547L300.458 43.989H316.304V51H289.742Z" fill="black"/>
</g>
<defs>
<clipPath id="clip0_1418_57">
<rect width="319" height="65" fill="white"/>
</clipPath>
</defs>
</svg>
